<svg width="375" height="51" viewBox="0 0 375 51" fill="none" xmlns="http://www.w3.org/2000/svg">
<path d="M-156.736 43V9.112H-149.2V43H-156.736ZM-135.76 43V9.112H-128.176V43H-135.76ZM-152.224 28.84V22.312H-133.264V28.84H-152.224ZM-111.113 43.528C-113.513 43.528 -115.689 43 -117.641 41.944C-119.561 40.856 -121.081 39.384 -122.201 37.528C-123.321 35.672 -123.881 33.592 -123.881 31.288C-123.881 28.984 -123.321 26.92 -122.201 25.096C-121.081 23.272 -119.561 21.832 -117.641 20.776C-115.721 19.688 -113.545 19.144 -111.113 19.144C-108.681 19.144 -106.505 19.672 -104.585 20.728C-102.665 21.784 -101.145 23.24 -100.025 25.096C-98.9055 26.92 -98.3455 28.984 -98.3455 31.288C-98.3455 33.592 -98.9055 35.672 -100.025 37.528C-101.145 39.384 -102.665 40.856 -104.585 41.944C-106.505 43 -108.681 43.528 -111.113 43.528ZM-111.113 36.856C-110.057 36.856 -109.129 36.632 -108.329 36.184C-107.529 35.704 -106.921 35.048 -106.505 34.216C-106.057 33.352 -105.833 32.376 -105.833 31.288C-105.833 30.2 -106.057 29.256 -106.505 28.456C-106.953 27.624 -107.577 26.984 -108.377 26.536C-109.145 26.056 -110.057 25.816 -111.113 25.816C-112.137 25.816 -113.049 26.056 -113.849 26.536C-114.649 26.984 -115.273 27.624 -115.721 28.456C-116.169 29.288 -116.393 30.248 -116.393 31.336C-116.393 32.392 -116.169 33.352 -115.721 34.216C-115.273 35.048 -114.649 35.704 -113.849 36.184C-113.049 36.632 -112.137 36.856 -111.113 36.856ZM-89.446 43L-97.51 19.672H-90.31L-85.318 36.616L-87.43 36.664L-81.91 19.672H-75.958L-70.39 36.664L-72.55 36.616L-67.51 19.672H-60.31L-68.374 43H-74.374L-79.798 26.872H-77.974L-83.494 43H-89.446ZM-41.8979 43V37.144H-33.9299C-32.4579 37.144 -31.3059 36.712 -30.4739 35.848C-29.6419 34.984 -29.2259 33.928 -29.2259 32.68C-29.2259 31.816 -29.4179 31.048 -29.8019 30.376C-30.1859 29.704 -30.7299 29.176 -31.4339 28.792C-32.1059 28.408 -32.9379 28.216 -33.9299 28.216H-41.8979V22.504H-34.5539C-33.3059 22.504 -32.2979 22.2 -31.5299 21.592C-30.7619 20.952 -30.3779 19.992 -30.3779 18.712C-30.3779 17.464 -30.7619 16.536 -31.5299 15.928C-32.2979 15.288 -33.3059 14.968 -34.5539 14.968H-41.8979V9.112H-33.1139C-30.9379 9.112 -29.0979 9.512 -27.5939 10.312C-26.0579 11.112 -24.8899 12.184 -24.0899 13.528C-23.2899 14.872 -22.8899 16.36 -22.8899 17.992C-22.8899 20.072 -23.5619 21.832 -24.9059 23.272C-26.2499 24.712 -28.2339 25.704 -30.8579 26.248L-30.6659 23.704C-27.8179 24.248 -25.6259 25.352 -24.0899 27.016C-22.5219 28.68 -21.7379 30.728 -21.7379 33.16C-21.7379 35.016 -22.2019 36.696 -23.1299 38.2C-24.0259 39.672 -25.3379 40.84 -27.0659 41.704C-28.7619 42.568 -30.8099 43 -33.2099 43H-41.8979ZM-47.6579 43V9.112H-40.2179V43H-47.6579ZM-7.21187 43.528C-9.35587 43.528 -11.2599 43.096 -12.9239 42.232C-14.5559 41.336 -15.8359 40.12 -16.7639 38.584C-17.6919 37.016 -18.1559 35.224 -18.1559 33.208V19.672H-10.8119V33.112C-10.8119 33.912 -10.6839 34.6 -10.4279 35.176C-10.1399 35.752 -9.72387 36.2 -9.17987 36.52C-8.63587 36.84 -7.97987 37 -7.21187 37C-6.12387 37 -5.25987 36.664 -4.61987 35.992C-3.97987 35.288 -3.65987 34.328 -3.65987 33.112V19.672H3.68413V33.16C3.68413 35.208 3.22013 37.016 2.29213 38.584C1.36413 40.12 0.0841255 41.336 -1.54787 42.232C-3.17987 43.096 -5.06787 43.528 -7.21187 43.528ZM18.2311 43.48C16.0231 43.48 14.0551 42.952 12.3271 41.896C10.6311 40.84 9.28713 39.4 8.29513 37.576C7.33513 35.752 6.85513 33.672 6.85513 31.336C6.85513 29 7.33513 26.92 8.29513 25.096C9.28713 23.272 10.6311 21.832 12.3271 20.776C14.0551 19.72 16.0231 19.192 18.2311 19.192C19.8311 19.192 21.2711 19.496 22.5511 20.104C23.8631 20.712 24.9351 21.56 25.7671 22.648C26.6311 23.704 27.1111 24.92 27.2071 26.296V36.136C27.1111 37.512 26.6471 38.76 25.8151 39.88C24.9831 40.968 23.9111 41.848 22.5991 42.52C21.2871 43.16 19.8311 43.48 18.2311 43.48ZM19.5271 36.856C20.5831 36.856 21.4951 36.632 22.2631 36.184C23.0311 35.704 23.6391 35.048 24.0871 34.216C24.5351 33.384 24.7591 32.424 24.7591 31.336C24.7591 30.248 24.5351 29.304 24.0871 28.504C23.6711 27.672 23.0631 27.016 22.2631 26.536C21.4951 26.056 20.5991 25.816 19.5751 25.816C18.5511 25.816 17.6391 26.056 16.8391 26.536C16.0711 27.016 15.4471 27.672 14.9671 28.504C14.5191 29.336 14.2951 30.28 14.2951 31.336C14.2951 32.392 14.5191 33.336 14.9671 34.168C15.4151 35 16.0391 35.656 16.8391 36.136C17.6391 36.616 18.5351 36.856 19.5271 36.856ZM31.6711 43H24.4711V36.712L25.5751 31.048L24.3271 25.384V8.152H31.6711V43ZM45.338 43.576C43.962 43.576 42.602 43.4 41.258 43.048C39.946 42.696 38.714 42.2 37.562 41.56C36.442 40.888 35.482 40.12 34.682 39.256L38.858 35.032C39.626 35.864 40.538 36.52 41.594 37C42.65 37.448 43.802 37.672 45.05 37.672C45.914 37.672 46.57 37.544 47.018 37.288C47.498 37.032 47.738 36.68 47.738 36.232C47.738 35.656 47.45 35.224 46.874 34.936C46.33 34.616 45.626 34.344 44.762 34.12C43.898 33.864 42.986 33.592 42.026 33.304C41.066 33.016 40.154 32.616 39.29 32.104C38.426 31.592 37.722 30.888 37.178 29.992C36.634 29.064 36.362 27.896 36.362 26.488C36.362 24.984 36.746 23.688 37.514 22.6C38.282 21.48 39.37 20.6 40.778 19.96C42.186 19.32 43.834 19 45.722 19C47.706 19 49.53 19.352 51.194 20.056C52.89 20.728 54.266 21.736 55.322 23.08L51.146 27.304C50.41 26.44 49.578 25.832 48.65 25.48C47.754 25.128 46.874 24.952 46.01 24.952C45.178 24.952 44.554 25.08 44.138 25.336C43.722 25.56 43.514 25.896 43.514 26.344C43.514 26.824 43.786 27.208 44.33 27.496C44.874 27.784 45.578 28.04 46.442 28.264C47.306 28.488 48.218 28.76 49.178 29.08C50.138 29.4 51.05 29.832 51.914 30.376C52.778 30.92 53.482 31.656 54.026 32.584C54.57 33.48 54.842 34.664 54.842 36.136C54.842 38.408 53.978 40.216 52.25 41.56C50.554 42.904 48.25 43.576 45.338 43.576ZM67.3224 43.576C65.9464 43.576 64.5864 43.4 63.2424 43.048C61.9304 42.696 60.6984 42.2 59.5464 41.56C58.4264 40.888 57.4664 40.12 56.6664 39.256L60.8424 35.032C61.6104 35.864 62.5224 36.52 63.5784 37C64.6344 37.448 65.7864 37.672 67.0344 37.672C67.8984 37.672 68.5544 37.544 69.0024 37.288C69.4824 37.032 69.7224 36.68 69.7224 36.232C69.7224 35.656 69.4344 35.224 68.8584 34.936C68.3144 34.616 67.6104 34.344 66.7464 34.12C65.8824 33.864 64.9704 33.592 64.0104 33.304C63.0504 33.016 62.1384 32.616 61.2744 32.104C60.4104 31.592 59.7064 30.888 59.1624 29.992C58.6184 29.064 58.3464 27.896 58.3464 26.488C58.3464 24.984 58.7304 23.688 59.4984 22.6C60.2664 21.48 61.3544 20.6 62.7624 19.96C64.1704 19.32 65.8184 19 67.7064 19C69.6904 19 71.5144 19.352 73.1784 20.056C74.8744 20.728 76.2504 21.736 77.3064 23.08L73.1304 27.304C72.3944 26.44 71.5624 25.832 70.6344 25.48C69.7384 25.128 68.8584 24.952 67.9944 24.952C67.1624 24.952 66.5384 25.08 66.1224 25.336C65.7064 25.56 65.4984 25.896 65.4984 26.344C65.4984 26.824 65.7704 27.208 66.3144 27.496C66.8584 27.784 67.5624 28.04 68.4264 28.264C69.2904 28.488 70.2024 28.76 71.1624 29.08C72.1224 29.4 73.0344 29.832 73.8984 30.376C74.7624 30.92 75.4664 31.656 76.0104 32.584C76.5544 33.48 76.8264 34.664 76.8264 36.136C76.8264 38.408 75.9624 40.216 74.2344 41.56C72.5384 42.904 70.2344 43.576 67.3224 43.576ZM99.0714 43L88.1754 9.112H95.6634L103.631 35.176H100.703L108.479 9.112H114.383L122.159 35.176H119.279L127.199 9.112H134.639L123.743 43H117.839L110.015 16.936H112.799L104.975 43H99.0714ZM146.277 43.528C143.877 43.528 141.701 43 139.749 41.944C137.829 40.856 136.309 39.384 135.189 37.528C134.069 35.672 133.509 33.592 133.509 31.288C133.509 28.984 134.069 26.92 135.189 25.096C136.309 23.272 137.829 21.832 139.749 20.776C141.669 19.688 143.845 19.144 146.277 19.144C148.709 19.144 150.885 19.672 152.805 20.728C154.725 21.784 156.245 23.24 157.365 25.096C158.485 26.92 159.045 28.984 159.045 31.288C159.045 33.592 158.485 35.672 157.365 37.528C156.245 39.384 154.725 40.856 152.805 41.944C150.885 43 148.709 43.528 146.277 43.528ZM146.277 36.856C147.333 36.856 148.261 36.632 149.061 36.184C149.861 35.704 150.469 35.048 150.885 34.216C151.333 33.352 151.557 32.376 151.557 31.288C151.557 30.2 151.333 29.256 150.885 28.456C150.437 27.624 149.813 26.984 149.013 26.536C148.245 26.056 147.333 25.816 146.277 25.816C145.253 25.816 144.341 26.056 143.541 26.536C142.741 26.984 142.117 27.624 141.669 28.456C141.221 29.288 140.997 30.248 140.997 31.336C140.997 32.392 141.221 33.352 141.669 34.216C142.117 35.048 142.741 35.704 143.541 36.184C144.341 36.632 145.253 36.856 146.277 36.856ZM162.701 43V19.672H170.045V43H162.701ZM170.045 30.184L166.973 27.784C167.581 25.064 168.605 22.952 170.045 21.448C171.485 19.944 173.485 19.192 176.045 19.192C177.165 19.192 178.141 19.368 178.973 19.72C179.837 20.04 180.589 20.552 181.229 21.256L176.861 26.776C176.541 26.424 176.141 26.152 175.661 25.96C175.181 25.768 174.637 25.672 174.029 25.672C172.813 25.672 171.837 26.056 171.101 26.824C170.397 27.56 170.045 28.68 170.045 30.184ZM198.114 43L189.954 30.904L198.066 19.672H206.274L196.482 32.296L196.722 29.272L206.754 43H198.114ZM183.186 43V8.152H190.53V43H183.186ZM216.526 43.576C215.15 43.576 213.79 43.4 212.446 43.048C211.134 42.696 209.902 42.2 208.75 41.56C207.63 40.888 206.67 40.12 205.87 39.256L210.046 35.032C210.814 35.864 211.726 36.52 212.782 37C213.838 37.448 214.99 37.672 216.238 37.672C217.102 37.672 217.758 37.544 218.206 37.288C218.686 37.032 218.926 36.68 218.926 36.232C218.926 35.656 218.638 35.224 218.062 34.936C217.518 34.616 216.814 34.344 215.95 34.12C215.086 33.864 214.174 33.592 213.214 33.304C212.253 33.016 211.342 32.616 210.478 32.104C209.614 31.592 208.91 30.888 208.366 29.992C207.822 29.064 207.55 27.896 207.55 26.488C207.55 24.984 207.934 23.688 208.702 22.6C209.47 21.48 210.558 20.6 211.966 19.96C213.374 19.32 215.022 19 216.91 19C218.894 19 220.718 19.352 222.382 20.056C224.078 20.728 225.454 21.736 226.51 23.08L222.334 27.304C221.598 26.44 220.766 25.832 219.838 25.48C218.942 25.128 218.062 24.952 217.198 24.952C216.366 24.952 215.742 25.08 215.326 25.336C214.91 25.56 214.702 25.896 214.702 26.344C214.702 26.824 214.974 27.208 215.518 27.496C216.062 27.784 216.766 28.04 217.63 28.264C218.494 28.488 219.406 28.76 220.366 29.08C221.326 29.4 222.238 29.832 223.102 30.376C223.966 30.92 224.67 31.656 225.214 32.584C225.758 33.48 226.03 34.664 226.03 36.136C226.03 38.408 225.166 40.216 223.438 41.56C221.742 42.904 219.438 43.576 216.526 43.576Z" fill="#2FDBBC"/>
<path d="M251.264 43H250.264V44H251.264V43ZM251.264 9.112V8.112H250.264V9.112H251.264ZM258.8 9.112H259.8V8.112H258.8V9.112ZM258.8 43V44H259.8V43H258.8ZM272.24 43H271.24V44H272.24V43ZM272.24 9.112V8.112H271.24V9.112H272.24ZM279.824 9.112H280.824V8.112H279.824V9.112ZM279.824 43V44H280.824V43H279.824ZM255.776 28.84H254.776V29.84H255.776V28.84ZM255.776 22.312V21.312H254.776V22.312H255.776ZM274.736 22.312H275.736V21.312H274.736V22.312ZM274.736 28.84V29.84H275.736V28.84H274.736ZM252.264 43V9.112H250.264V43H252.264ZM251.264 10.112H258.8V8.112H251.264V10.112ZM257.8 9.112V43H259.8V9.112H257.8ZM258.8 42H251.264V44H258.8V42ZM273.24 43V9.112H271.24V43H273.24ZM272.24 10.112H279.824V8.112H272.24V10.112ZM278.824 9.112V43H280.824V9.112H278.824ZM279.824 42H272.24V44H279.824V42ZM256.776 28.84V22.312H254.776V28.84H256.776ZM255.776 23.312H274.736V21.312H255.776V23.312ZM273.736 22.312V28.84H275.736V22.312H273.736ZM274.736 27.84H255.776V29.84H274.736V27.84ZM290.359 41.944L289.865 42.814L289.874 42.8189L289.883 42.8235L290.359 41.944ZM285.799 37.528L286.655 37.0113L285.799 37.528ZM285.799 25.096L284.946 24.5727L285.799 25.096ZM290.359 20.776L290.84 21.6523L290.852 21.646L290.359 20.776ZM307.975 25.096L307.118 25.6127L307.122 25.6193L307.975 25.096ZM307.975 37.528L308.831 38.0447L308.831 38.0447L307.975 37.528ZM303.415 41.944L303.896 42.8203L303.908 42.814L303.415 41.944ZM299.671 36.184L300.159 37.0565L300.172 37.0492L300.185 37.0415L299.671 36.184ZM301.494 34.216L300.607 33.7557L300.603 33.7622L300.6 33.7688L301.494 34.216ZM301.494 28.456L300.614 28.9301L300.618 28.9374L300.622 28.9446L301.494 28.456ZM299.623 26.536L299.093 27.384L299.113 27.3967L299.134 27.4085L299.623 26.536ZM294.151 26.536L294.639 27.4085L294.652 27.4012L294.665 27.3935L294.151 26.536ZM292.278 28.456L293.159 28.9301L292.278 28.456ZM292.278 34.216L291.391 34.6763L291.394 34.6832L291.398 34.6901L292.278 34.216ZM294.151 36.184L293.636 37.0415L293.649 37.0492L293.662 37.0565L294.151 36.184ZM296.887 42.528C294.639 42.528 292.628 42.035 290.834 41.0645L289.883 42.8235C291.993 43.965 294.334 44.528 296.887 44.528V42.528ZM290.852 41.074C289.078 40.069 287.684 38.7176 286.655 37.0113L284.942 38.0447C286.153 40.0504 287.799 41.643 289.865 42.814L290.852 41.074ZM286.655 37.0113C285.635 35.3211 285.118 33.4218 285.118 31.288H283.118C283.118 33.7622 283.722 36.0229 284.942 38.0447L286.655 37.0113ZM285.118 31.288C285.118 29.1541 285.635 27.2738 286.651 25.6193L284.946 24.5727C283.722 26.5662 283.118 28.8139 283.118 31.288H285.118ZM286.651 25.6193C287.678 23.9467 289.069 22.6267 290.84 21.6522L289.877 19.8998C287.808 21.0373 286.159 22.5973 284.946 24.5727L286.651 25.6193ZM290.852 21.646C292.606 20.6517 294.609 20.144 296.887 20.144V18.144C294.3 18.144 291.951 18.7243 289.865 19.906L290.852 21.646ZM296.887 20.144C299.169 20.144 301.176 20.6381 302.933 21.6042L303.896 19.8518C301.813 18.7059 299.468 18.144 296.887 18.144V20.144ZM302.933 21.6042C304.7 22.5764 306.09 23.9091 307.118 25.6127L308.831 24.5793C307.619 22.5709 305.969 20.9916 303.896 19.8518L302.933 21.6042ZM307.122 25.6193C308.138 27.2738 308.655 29.1541 308.655 31.288H310.655C310.655 28.8139 310.051 26.5662 308.827 24.5727L307.122 25.6193ZM308.655 31.288C308.655 33.4218 308.138 35.3211 307.118 37.0113L308.831 38.0447C310.051 36.0229 310.655 33.7622 310.655 31.288H308.655ZM307.118 37.0113C306.089 38.7176 304.695 40.069 302.921 41.074L303.908 42.814C305.974 41.643 307.62 40.0504 308.831 38.0447L307.118 37.0113ZM302.933 41.0678C301.176 42.0339 299.169 42.528 296.887 42.528V44.528C299.468 44.528 301.813 43.9661 303.896 42.8202L302.933 41.0678ZM296.887 37.856C298.087 37.856 299.188 37.6001 300.159 37.0565L299.182 35.3115C298.553 35.6639 297.798 35.856 296.887 35.856V37.856ZM300.185 37.0415C301.148 36.464 301.888 35.6659 302.389 34.6632L300.6 33.7688C300.269 34.4301 299.793 34.944 299.156 35.3265L300.185 37.0415ZM302.382 34.6763C302.912 33.654 303.167 32.5171 303.167 31.288H301.167C301.167 32.2349 300.973 33.05 300.607 33.7557L302.382 34.6763ZM303.167 31.288C303.167 30.0609 302.913 28.9423 302.367 27.9674L300.622 28.9446C300.972 29.5697 301.167 30.3391 301.167 31.288H303.167ZM302.375 27.9819C301.84 26.988 301.082 26.2073 300.111 25.6635L299.134 27.4085C299.763 27.7607 300.253 28.26 300.614 28.9301L302.375 27.9819ZM300.153 25.688C299.201 25.0931 298.098 24.816 296.887 24.816V26.816C297.787 26.816 298.508 27.0189 299.093 27.384L300.153 25.688ZM296.887 24.816C295.7 24.816 294.606 25.0963 293.636 25.6785L294.665 27.3935C295.295 27.0157 296.026 26.816 296.887 26.816V24.816ZM293.662 25.6635C292.691 26.2073 291.933 26.988 291.398 27.9819L293.159 28.9301C293.52 28.26 294.01 27.7607 294.639 27.4085L293.662 25.6635ZM291.398 27.9819C290.86 28.9803 290.606 30.1078 290.606 31.336H292.606C292.606 30.3882 292.801 29.5957 293.159 28.9301L291.398 27.9819ZM290.606 31.336C290.606 32.5383 290.863 33.6582 291.391 34.6763L293.166 33.7557C292.798 33.0458 292.606 32.2457 292.606 31.336H290.606ZM291.398 34.6901C291.93 35.6783 292.68 36.4677 293.636 37.0415L294.665 35.3265C294.021 34.9403 293.523 34.4177 293.159 33.7419L291.398 34.6901ZM293.662 37.0565C294.628 37.5975 295.712 37.856 296.887 37.856V35.856C296.013 35.856 295.273 35.6665 294.639 35.3115L293.662 37.0565ZM318.554 43L317.609 43.3267L317.842 44H318.554V43ZM310.49 19.672V18.672H309.086L309.545 19.9987L310.49 19.672ZM317.69 19.672L318.649 19.3894L318.438 18.672H317.69V19.672ZM322.682 36.616L322.705 37.6157L324.01 37.5861L323.641 36.3334L322.682 36.616ZM320.57 36.664L319.619 36.355L319.183 37.6958L320.593 37.6637L320.57 36.664ZM326.09 19.672V18.672H325.363L325.139 19.363L326.09 19.672ZM332.042 19.672L332.992 19.3606L332.767 18.672H332.042V19.672ZM337.61 36.664L337.588 37.6638L339 37.6951L338.56 36.3526L337.61 36.664ZM335.45 36.616L334.492 36.3309L334.118 37.5866L335.428 37.6158L335.45 36.616ZM340.49 19.672V18.672H339.744L339.532 19.3869L340.49 19.672ZM347.69 19.672L348.635 19.9987L349.094 18.672H347.69V19.672ZM339.626 43V44H340.338L340.571 43.3267L339.626 43ZM333.626 43L332.678 43.3188L332.907 44H333.626V43ZM328.202 26.872V25.872H326.811L327.254 27.1908L328.202 26.872ZM330.026 26.872L330.972 27.1958L331.425 25.872H330.026V26.872ZM324.506 43V44H325.221L325.452 43.3238L324.506 43ZM319.499 42.6733L311.435 19.3453L309.545 19.9987L317.609 43.3267L319.499 42.6733ZM310.49 20.672H317.69V18.672H310.49V20.672ZM316.731 19.9546L321.723 36.8986L323.641 36.3334L318.649 19.3894L316.731 19.9546ZM322.659 35.6163L320.547 35.6643L320.593 37.6637L322.705 37.6157L322.659 35.6163ZM321.521 36.973L327.041 19.981L325.139 19.363L319.619 36.355L321.521 36.973ZM326.09 20.672H332.042V18.672H326.09V20.672ZM331.092 19.9834L336.66 36.9754L338.56 36.3526L332.992 19.3606L331.092 19.9834ZM337.632 35.6642L335.472 35.6162L335.428 37.6158L337.588 37.6638L337.632 35.6642ZM336.409 36.9011L341.449 19.9571L339.532 19.3869L334.492 36.3309L336.409 36.9011ZM340.49 20.672H347.69V18.672H340.49V20.672ZM346.745 19.3453L338.681 42.6733L340.571 43.3267L348.635 19.9987L346.745 19.3453ZM339.626 42H333.626V44H339.626V42ZM334.574 42.6812L329.15 26.5532L327.254 27.1908L332.678 43.3188L334.574 42.6812ZM328.202 27.872H330.026V25.872H328.202V27.872ZM329.08 26.5482L323.56 42.6762L325.452 43.3238L330.972 27.1958L329.08 26.5482ZM324.506 42H318.554V44H324.506V42ZM366.102 43H365.102V44H366.102V43ZM366.102 37.144V36.144H365.102V37.144H366.102ZM377.526 35.848L378.246 36.5416L377.526 35.848ZM376.566 28.792L376.07 29.6602L376.079 29.6652L376.087 29.6699L376.566 28.792ZM366.102 28.216H365.102V29.216H366.102V28.216ZM366.102 22.504V21.504H365.102V22.504H366.102ZM376.47 21.592L377.091 22.376L377.101 22.3683L377.11 22.3602L376.47 21.592ZM376.47 15.928L375.83 16.6962L375.84 16.7043L375.849 16.712L376.47 15.928ZM366.102 14.968H365.102V15.968H366.102V14.968ZM366.102 9.112V8.112H365.102V9.112H366.102ZM380.406 10.312L379.936 11.1949L379.944 11.1989L380.406 10.312ZM383.91 13.528L383.051 14.0395V14.0395L383.91 13.528ZM383.094 23.272L383.825 23.9543V23.9543L383.094 23.272ZM377.142 26.248L376.145 26.1727L376.045 27.4967L377.345 27.2272L377.142 26.248ZM377.334 23.704L377.522 22.7218L376.421 22.5116L376.337 23.6287L377.334 23.704ZM383.91 27.016L383.175 27.6943L383.182 27.7018L383.91 27.016ZM384.87 38.2L384.019 37.6749L384.016 37.6801L384.87 38.2ZM380.934 41.704L380.487 40.8095L380.48 40.813L380.934 41.704ZM360.342 43H359.342V44H360.342V43ZM360.342 9.112V8.112H359.342V9.112H360.342ZM367.782 9.112H368.782V8.112H367.782V9.112ZM367.782 43V44H368.782V43H367.782ZM367.102 43V37.144H365.102V43H367.102ZM366.102 38.144H374.07V36.144H366.102V38.144ZM374.07 38.144C375.748 38.144 377.185 37.6443 378.246 36.5416L376.806 35.1544C376.204 35.7797 375.336 36.144 374.07 36.144V38.144ZM378.246 36.5416C379.266 35.4831 379.774 34.1751 379.774 32.68H377.774C377.774 33.6809 377.45 34.4849 376.806 35.1544L378.246 36.5416ZM379.774 32.68C379.774 31.6627 379.546 30.72 379.066 29.8799L377.33 30.8721C377.618 31.376 377.774 31.9693 377.774 32.68H379.774ZM379.066 29.8799C378.587 29.041 377.905 28.3835 377.045 27.9141L376.087 29.6699C376.635 29.9685 377.041 30.367 377.33 30.8721L379.066 29.8799ZM377.062 27.9238C376.202 27.4324 375.188 27.216 374.07 27.216V29.216C374.936 29.216 375.586 29.3836 376.07 29.6602L377.062 27.9238ZM374.07 27.216H366.102V29.216H374.07V27.216ZM367.102 28.216V22.504H365.102V28.216H367.102ZM366.102 23.504H373.446V21.504H366.102V23.504ZM373.446 23.504C374.857 23.504 376.103 23.1584 377.091 22.376L375.849 20.808C375.302 21.2416 374.532 21.504 373.446 21.504V23.504ZM377.11 22.3602C378.167 21.4794 378.622 20.1989 378.622 18.712H376.622C376.622 19.7851 376.309 20.4246 375.83 20.8238L377.11 22.3602ZM378.622 18.712C378.622 17.2498 378.162 15.9919 377.091 15.144L375.849 16.712C376.314 17.0801 376.622 17.6782 376.622 18.712H378.622ZM377.11 15.1598C376.121 14.3357 374.868 13.968 373.446 13.968V15.968C374.52 15.968 375.283 16.2403 375.83 16.6962L377.11 15.1598ZM373.446 13.968H366.102V15.968H373.446V13.968ZM367.102 14.968V9.112H365.102V14.968H367.102ZM366.102 10.112H374.886V8.112H366.102V10.112ZM374.886 10.112C376.943 10.112 378.612 10.4902 379.937 11.1949L380.876 9.42912C379.193 8.53382 377.182 8.112 374.886 8.112V10.112ZM379.944 11.1989C381.334 11.9226 382.356 12.8719 383.051 14.0395L384.769 13.0165C383.864 11.4961 382.551 10.3014 380.868 9.42508L379.944 11.1989ZM383.051 14.0395C383.755 15.2219 384.11 16.5319 384.11 17.992H386.11C386.11 16.1881 385.666 14.5221 384.769 13.0165L383.051 14.0395ZM384.11 17.992C384.11 19.8343 383.524 21.3459 382.363 22.5897L383.825 23.9543C385.352 22.3181 386.11 20.3097 386.11 17.992H384.11ZM382.363 22.5897C381.203 23.8327 379.432 24.752 376.939 25.2688L377.345 27.2272C380.1 26.656 382.297 25.5913 383.825 23.9543L382.363 22.5897ZM378.139 26.3233L378.331 23.7793L376.337 23.6287L376.145 26.1727L378.139 26.3233ZM377.146 24.6862C379.844 25.2014 381.821 26.2267 383.175 27.6943L384.645 26.3377C382.928 24.4773 380.521 23.2946 377.522 22.7218L377.146 24.6862ZM383.182 27.7018C384.564 29.1677 385.262 30.9651 385.262 33.16H387.262C387.262 30.4909 386.393 28.1923 384.638 26.3302L383.182 27.7018ZM385.262 33.16C385.262 34.8403 384.845 36.3368 384.019 37.6749L385.721 38.7251C386.752 37.0552 387.262 35.1917 387.262 33.16H385.262ZM384.016 37.6801C383.229 38.9725 382.068 40.0192 380.487 40.8096L381.381 42.5984C383.257 41.6608 384.719 40.3715 385.724 38.7199L384.016 37.6801ZM380.48 40.813C378.957 41.5891 377.072 42 374.79 42V44C377.308 44 379.52 43.5469 381.388 42.595L380.48 40.813ZM374.79 42H366.102V44H374.79V42ZM361.342 43V9.112H359.342V43H361.342ZM360.342 10.112H367.782V8.112H360.342V10.112ZM366.782 9.112V43H368.782V9.112H366.782ZM367.782 42H360.342V44H367.782V42ZM395.076 42.232L394.595 43.1086L394.605 43.1142L394.615 43.1195L395.076 42.232ZM391.236 38.584L390.376 39.0933L390.38 39.1011L391.236 38.584ZM389.844 19.672V18.672H388.844V19.672H389.844ZM397.188 19.672H398.188V18.672H397.188V19.672ZM397.572 35.176L396.658 35.5821L396.668 35.6029L396.678 35.6232L397.572 35.176ZM398.82 36.52L399.327 35.6581L398.82 36.52ZM403.38 35.992L404.104 36.6817L404.112 36.6733L404.12 36.6647L403.38 35.992ZM404.34 19.672V18.672H403.34V19.672H404.34ZM411.684 19.672H412.684V18.672H411.684V19.672ZM410.292 38.584L411.148 39.1011L411.153 39.0933L410.292 38.584ZM406.452 42.232L406.92 43.1158L406.927 43.1122L406.933 43.1086L406.452 42.232ZM400.788 42.528C398.781 42.528 397.039 42.1246 395.537 41.3445L394.615 43.1195C396.441 44.0674 398.507 44.528 400.788 44.528V42.528ZM395.557 41.3554C394.074 40.5409 392.925 39.4464 392.092 38.0669L390.38 39.1011C391.403 40.7936 392.815 42.1311 394.595 43.1086L395.557 41.3554ZM392.097 38.0747C391.269 36.6769 390.844 35.0644 390.844 33.208H388.844C388.844 35.3836 389.347 37.3551 390.376 39.0933L392.097 38.0747ZM390.844 33.208V19.672H388.844V33.208H390.844ZM389.844 20.672H397.188V18.672H389.844V20.672ZM396.188 19.672V33.112H398.188V19.672H396.188ZM396.188 33.112C396.188 34.0156 396.332 34.8488 396.658 35.5821L398.486 34.7699C398.3 34.3512 398.188 33.8084 398.188 33.112H396.188ZM396.678 35.6232C397.05 36.3682 397.599 36.9619 398.313 37.3819L399.327 35.6581C398.953 35.4381 398.67 35.1358 398.467 34.7288L396.678 35.6232ZM398.313 37.3819C399.041 37.8101 399.88 38 400.788 38V36C400.16 36 399.687 35.8699 399.327 35.6581L398.313 37.3819ZM400.788 38C402.099 38 403.243 37.5861 404.104 36.6817L402.656 35.3023C402.237 35.7419 401.654 36 400.788 36V38ZM404.12 36.6647C404.97 35.7298 405.34 34.5053 405.34 33.112H403.34C403.34 34.1507 403.07 34.8462 402.64 35.3193L404.12 36.6647ZM405.34 33.112V19.672H403.34V33.112H405.34ZM404.34 20.672H411.684V18.672H404.34V20.672ZM410.684 19.672V33.16H412.684V19.672H410.684ZM410.684 33.16C410.684 35.0515 410.257 36.6794 409.432 38.0747L411.153 39.0933C412.183 37.3526 412.684 35.3645 412.684 33.16H410.684ZM409.436 38.0669C408.603 39.4464 407.455 40.5409 405.971 41.3554L406.933 43.1086C408.714 42.1311 410.125 40.7936 411.148 39.1011L409.436 38.0669ZM405.984 41.3482C404.518 42.1244 402.795 42.528 400.788 42.528V44.528C403.069 44.528 405.122 44.0676 406.92 43.1158L405.984 41.3482ZM420.327 41.896L419.799 42.7449L419.806 42.7493L420.327 41.896ZM416.295 37.576L415.41 38.0418L415.417 38.0538L416.295 37.576ZM416.295 25.096L415.417 24.6182L415.41 24.6303L416.295 25.096ZM420.327 20.776L419.806 19.9227L419.799 19.9271L420.327 20.776ZM430.551 20.104L430.122 21.0073L430.131 21.0113L430.551 20.104ZM433.767 22.648L432.973 23.2554L432.983 23.2685L432.993 23.2812L433.767 22.648ZM435.207 26.296H436.207V26.2612L436.205 26.2264L435.207 26.296ZM435.207 36.136L436.205 36.2056L436.207 36.1708V36.136H435.207ZM433.815 39.88L434.61 40.4875L434.618 40.4763L433.815 39.88ZM430.599 42.52L431.038 43.4188L431.046 43.4145L431.055 43.41L430.599 42.52ZM430.263 36.184L430.767 37.0478L430.78 37.0401L430.793 37.032L430.263 36.184ZM432.087 34.216L431.207 33.7419V33.7419L432.087 34.216ZM432.087 28.504L431.193 28.9512L431.203 28.9722L431.215 28.9926L432.087 28.504ZM430.263 26.536L429.733 27.384L429.741 27.3888L429.749 27.3935L430.263 26.536ZM424.839 26.536L424.325 25.6785L424.317 25.6832L424.309 25.688L424.839 26.536ZM422.967 28.504L422.101 28.0043L422.094 28.017L422.087 28.0299L422.967 28.504ZM422.967 34.168L422.087 34.6421L422.967 34.168ZM439.671 43V44H440.671V43H439.671ZM432.471 43H431.471V44H432.471V43ZM432.471 36.712L431.49 36.5207L431.471 36.6155V36.712H432.471ZM433.575 31.048L434.557 31.2393L434.596 31.0356L434.552 30.8328L433.575 31.048ZM432.327 25.384H431.327V25.4929L431.351 25.5992L432.327 25.384ZM432.327 8.152V7.152H431.327V8.152H432.327ZM439.671 8.152H440.671V7.152H439.671V8.152ZM426.231 42.48C424.19 42.48 422.406 41.9942 420.849 41.0427L419.806 42.7493C421.705 43.9098 423.856 44.48 426.231 44.48V42.48ZM420.856 41.0471C419.312 40.0861 418.086 38.7766 417.174 37.0982L415.417 38.0538C416.488 40.0234 417.95 41.5939 419.799 42.7449L420.856 41.0471ZM417.18 37.1103C416.305 35.448 415.855 33.5316 415.855 31.336H413.855C413.855 33.8124 414.365 36.056 415.41 38.0417L417.18 37.1103ZM415.855 31.336C415.855 29.1404 416.305 27.224 417.18 25.5617L415.41 24.6303C414.365 26.616 413.855 28.8596 413.855 31.336H415.855ZM417.174 25.5738C418.086 23.8954 419.312 22.5859 420.856 21.6249L419.799 19.9271C417.95 21.0781 416.488 22.6486 415.417 24.6182L417.174 25.5738ZM420.849 21.6293C422.406 20.6778 424.19 20.192 426.231 20.192V18.192C423.856 18.192 421.705 18.7622 419.806 19.9227L420.849 21.6293ZM426.231 20.192C427.702 20.192 428.992 20.4707 430.122 21.0073L430.98 19.2007C429.55 18.5213 427.96 18.192 426.231 18.192V20.192ZM430.131 21.0113C431.304 21.5551 432.245 22.3034 432.973 23.2554L434.561 22.0405C433.625 20.8166 432.422 19.8689 430.972 19.1967L430.131 21.0113ZM432.993 23.2812C433.725 24.1752 434.128 25.1937 434.21 26.3656L436.205 26.2264C436.094 24.6463 435.538 23.2328 434.541 22.0148L432.993 23.2812ZM434.207 26.296V36.136H436.207V26.296H434.207ZM434.21 36.0664C434.127 37.2495 433.732 38.3152 433.012 39.2837L434.618 40.4763C435.562 39.2048 436.095 37.7745 436.205 36.2056L434.21 36.0664ZM433.021 39.2725C432.286 40.2335 431.333 41.0205 430.143 41.63L431.055 43.41C432.489 42.6755 433.68 41.7025 434.609 40.4874L433.021 39.2725ZM430.161 41.6212C428.998 42.1884 427.694 42.48 426.231 42.48V44.48C427.968 44.48 429.576 44.1316 431.038 43.4188L430.161 41.6212ZM427.527 37.856C428.727 37.856 429.82 37.6004 430.767 37.0478L429.759 35.3202C429.171 35.6636 428.439 35.856 427.527 35.856V37.856ZM430.793 37.032C431.715 36.4559 432.441 35.6682 432.968 34.6901L431.207 33.7419C430.837 34.4278 430.347 34.9521 429.733 35.336L430.793 37.032ZM432.968 34.6901C433.505 33.6917 433.759 32.5642 433.759 31.336H431.759C431.759 32.2838 431.565 33.0763 431.207 33.7419L432.968 34.6901ZM433.759 31.336C433.759 30.1089 433.506 28.9903 432.96 28.0154L431.215 28.9926C431.565 29.6177 431.759 30.3871 431.759 31.336H433.759ZM432.982 28.0568C432.48 27.0541 431.74 26.256 430.778 25.6785L429.749 27.3935C430.386 27.7759 430.862 28.2899 431.193 28.9512L432.982 28.0568ZM430.793 25.688C429.846 25.0961 428.761 24.816 427.575 24.816V26.816C428.437 26.816 429.144 27.0159 429.733 27.384L430.793 25.688ZM427.575 24.816C426.388 24.816 425.295 25.0963 424.325 25.6785L425.354 27.3935C425.983 27.0157 426.714 26.816 427.575 26.816V24.816ZM424.309 25.688C423.394 26.2601 422.658 27.0393 422.101 28.0043L423.833 29.0037C424.237 28.3047 424.748 27.7719 425.369 27.384L424.309 25.688ZM422.087 28.0299C421.551 29.0241 421.295 30.1343 421.295 31.336H423.295C423.295 30.4257 423.487 29.6479 423.848 28.9781L422.087 28.0299ZM421.295 31.336C421.295 32.5377 421.551 33.6479 422.087 34.6421L423.848 33.6939C423.487 33.0241 423.295 32.2463 423.295 31.336H421.295ZM422.087 34.6421C422.619 35.6303 423.368 36.4197 424.325 36.9935L425.354 35.2785C424.71 34.8923 424.211 34.3697 423.848 33.6939L422.087 34.6421ZM424.325 36.9935C425.29 37.5727 426.366 37.856 427.527 37.856V35.856C426.704 35.856 425.988 35.6593 425.354 35.2785L424.325 36.9935ZM439.671 42H432.471V44H439.671V42ZM433.471 43V36.712H431.471V43H433.471ZM433.453 36.9033L434.557 31.2393L432.594 30.8567L431.49 36.5207L433.453 36.9033ZM434.552 30.8328L433.304 25.1688L431.351 25.5992L432.599 31.2632L434.552 30.8328ZM433.327 25.384V8.152H431.327V25.384H433.327ZM432.327 9.152H439.671V7.152H432.327V9.152ZM438.671 8.152V43H440.671V8.152H438.671ZM449.258 43.048L448.999 44.0139L449.005 44.0154L449.258 43.048ZM445.562 41.56L445.048 42.4175L445.062 42.4261L445.076 42.4342L445.562 41.56ZM442.682 39.256L441.971 38.5529L441.298 39.2334L441.948 39.9354L442.682 39.256ZM446.858 35.032L447.593 34.3537L446.883 33.5845L446.147 34.3289L446.858 35.032ZM449.594 37L449.18 37.9104L449.192 37.9156L449.203 37.9206L449.594 37ZM455.018 37.288L454.547 36.4056L454.535 36.4125L454.522 36.4198L455.018 37.288ZM454.874 34.936L454.367 35.7979L454.396 35.8152L454.427 35.8304L454.874 34.936ZM452.762 34.12L452.478 35.0788L452.494 35.0837L452.511 35.088L452.762 34.12ZM447.29 32.104L447.8 31.2437L447.29 32.104ZM445.178 29.992L444.315 30.4977L444.319 30.5044L444.323 30.511L445.178 29.992ZM445.514 22.6L446.331 23.1767L446.339 23.1655L445.514 22.6ZM448.778 19.96L448.364 19.0496L448.778 19.96ZM459.194 20.056L458.804 20.977L458.815 20.9814L458.826 20.9857L459.194 20.056ZM463.322 23.08L464.033 23.7831L464.653 23.1558L464.108 22.4622L463.322 23.08ZM459.146 27.304L458.385 27.9525L459.091 28.7818L459.857 28.0071L459.146 27.304ZM456.65 25.48L456.284 26.4108L456.295 26.415L456.65 25.48ZM452.138 25.336L452.612 26.2165L452.638 26.2028L452.662 26.1877L452.138 25.336ZM454.442 28.264L454.191 29.232L454.442 28.264ZM457.178 29.08L457.494 28.1313L457.178 29.08ZM459.914 30.376L460.447 29.5298L459.914 30.376ZM462.026 32.584L461.163 33.0897L461.167 33.0964L461.171 33.103L462.026 32.584ZM460.25 41.56L459.636 40.7706L459.629 40.7763L460.25 41.56ZM453.338 42.576C452.048 42.576 450.773 42.4112 449.511 42.0806L449.005 44.0154C450.431 44.3888 451.876 44.576 453.338 44.576V42.576ZM449.517 42.0822C448.282 41.7507 447.126 41.2849 446.048 40.6858L445.076 42.4342C446.302 43.1151 447.61 43.6413 448.999 44.0138L449.517 42.0822ZM446.076 40.7025C445.029 40.0739 444.145 39.364 443.416 38.5766L441.948 39.9354C442.819 40.876 443.855 41.7021 445.048 42.4175L446.076 40.7025ZM443.393 39.9591L447.569 35.7351L446.147 34.3289L441.971 38.5529L443.393 39.9591ZM446.123 35.7103C446.984 36.6427 448.006 37.3766 449.18 37.9104L450.008 36.0896C449.07 35.6634 448.268 35.0853 447.593 34.3537L446.123 35.7103ZM449.203 37.9206C450.393 38.4254 451.68 38.672 453.05 38.672V36.672C451.924 36.672 450.907 36.4706 449.985 36.0794L449.203 37.9206ZM453.05 38.672C453.984 38.672 454.845 38.5386 455.514 38.1562L454.522 36.4198C454.295 36.5494 453.844 36.672 453.05 36.672V38.672ZM455.489 38.1704C456.211 37.785 456.738 37.1351 456.738 36.232H454.738C454.738 36.2537 454.735 36.2624 454.735 36.2627C454.735 36.2632 454.735 36.2634 454.735 36.2637C454.735 36.264 454.734 36.2656 454.732 36.2687C454.725 36.2793 454.683 36.3332 454.547 36.4056L455.489 38.1704ZM456.738 36.232C456.738 35.769 456.619 35.3193 456.354 34.9213C456.093 34.5296 455.728 34.2449 455.321 34.0416L454.427 35.8304C454.596 35.9151 454.663 35.9904 454.69 36.0307C454.713 36.0647 454.738 36.119 454.738 36.232H456.738ZM455.381 34.0741C454.732 33.692 453.933 33.3905 453.013 33.152L452.511 35.088C453.319 35.2975 453.928 35.54 454.367 35.7979L455.381 34.0741ZM453.046 33.1612C452.183 32.9056 451.272 32.6339 450.313 32.3462L449.739 34.2618C450.7 34.5501 451.613 34.8224 452.478 35.0788L453.046 33.1612ZM450.313 32.3462C449.431 32.0816 448.594 31.7144 447.8 31.2437L446.78 32.9643C447.714 33.5176 448.701 33.9504 449.739 34.2618L450.313 32.3462ZM447.8 31.2437C447.083 30.8191 446.495 30.235 446.033 29.473L444.323 30.511C444.949 31.541 445.769 32.3649 446.78 32.9643L447.8 31.2437ZM446.041 29.4863C445.61 28.752 445.362 27.7717 445.362 26.488H443.362C443.362 28.0203 443.658 29.376 444.315 30.4977L446.041 29.4863ZM445.362 26.488C445.362 25.1627 445.697 24.0746 446.331 23.1767L444.697 22.0233C443.795 23.3014 443.362 24.8053 443.362 26.488H445.362ZM446.339 23.1655C446.99 22.2157 447.926 21.4457 449.192 20.8704L448.364 19.0496C446.814 19.7543 445.574 20.7443 444.689 22.0345L446.339 23.1655ZM449.192 20.8704C450.444 20.301 451.946 20 453.722 20V18C451.722 18 449.928 18.339 448.364 19.0496L449.192 20.8704ZM453.722 20C455.585 20 457.275 20.33 458.804 20.977L459.584 19.135C457.785 18.374 455.827 18 453.722 18V20ZM458.826 20.9857C460.369 21.5971 461.596 22.5023 462.536 23.6978L464.108 22.4622C462.936 20.9697 461.411 19.8589 459.562 19.1263L458.826 20.9857ZM462.611 22.3769L458.435 26.6009L459.857 28.0071L464.033 23.7831L462.611 22.3769ZM459.907 26.6555C459.078 25.6819 458.112 24.9649 457.005 24.545L456.295 26.415C457.044 26.6991 457.742 27.1981 458.385 27.9525L459.907 26.6555ZM457.016 24.5492C456.016 24.1567 455.013 23.952 454.01 23.952V25.952C454.735 25.952 455.492 26.0993 456.284 26.4108L457.016 24.5492ZM454.01 23.952C453.108 23.952 452.263 24.0849 451.614 24.4843L452.662 26.1877C452.845 26.0751 453.248 25.952 454.01 25.952V23.952ZM451.664 24.4555C451.332 24.6343 451.032 24.886 450.82 25.2296C450.605 25.5761 450.514 25.9595 450.514 26.344H452.514C452.514 26.3096 452.518 26.2915 452.52 26.2854C452.521 26.2801 452.521 26.2804 452.52 26.2824C452.516 26.29 452.528 26.2617 452.612 26.2165L451.664 24.4555ZM450.514 26.344C450.514 27.3029 451.099 27.9759 451.862 28.3798L452.798 26.6122C452.623 26.5197 452.556 26.445 452.534 26.414C452.52 26.3945 452.514 26.3814 452.514 26.344H450.514ZM451.862 28.3798C452.498 28.7165 453.282 28.9964 454.191 29.232L454.693 27.296C453.874 27.0836 453.25 26.8515 452.798 26.6122L451.862 28.3798ZM454.191 29.232C455.03 29.4496 455.921 29.7149 456.862 30.0287L457.494 28.1313C456.515 27.8051 455.582 27.5264 454.693 27.296L454.191 29.232ZM456.862 30.0287C457.745 30.3231 458.584 30.7206 459.381 31.2222L460.447 29.5298C459.516 28.9434 458.531 28.4769 457.494 28.1313L456.862 30.0287ZM459.381 31.2222C460.102 31.6762 460.696 32.2924 461.163 33.0897L462.889 32.0783C462.268 31.0196 461.454 30.1638 460.447 29.5298L459.381 31.2222ZM461.171 33.103C461.589 33.7916 461.842 34.7765 461.842 36.136H463.842C463.842 34.5515 463.551 33.1684 462.881 32.065L461.171 33.103ZM461.842 36.136C461.842 38.113 461.11 39.6243 459.636 40.7706L460.864 42.3494C462.846 40.8077 463.842 38.703 463.842 36.136H461.842ZM459.629 40.7763C458.162 41.9386 456.102 42.576 453.338 42.576V44.576C456.398 44.576 458.946 43.8694 460.871 42.3437L459.629 40.7763ZM471.242 43.048L470.983 44.0139L470.989 44.0154L471.242 43.048ZM467.546 41.56L467.032 42.4175L467.046 42.4261L467.061 42.4342L467.546 41.56ZM464.666 39.256L463.955 38.5529L463.283 39.2334L463.933 39.9354L464.666 39.256ZM468.842 35.032L469.577 34.3537L468.867 33.5845L468.131 34.3289L468.842 35.032ZM471.578 37L471.165 37.9104L471.176 37.9156L471.188 37.9206L471.578 37ZM477.002 37.288L476.532 36.4056L476.519 36.4125L476.506 36.4198L477.002 37.288ZM476.858 34.936L476.351 35.7979L476.381 35.8152L476.411 35.8304L476.858 34.936ZM474.746 34.12L474.462 35.0788L474.479 35.0837L474.495 35.088L474.746 34.12ZM469.274 32.104L469.784 31.2437L469.274 32.104ZM467.162 29.992L466.3 30.4977L466.304 30.5044L466.308 30.511L467.162 29.992ZM467.498 22.6L468.315 23.1767L468.323 23.1655L467.498 22.6ZM470.762 19.96L470.349 19.0496L470.762 19.96ZM481.178 20.056L480.789 20.977L480.799 20.9814L480.81 20.9857L481.178 20.056ZM485.306 23.08L486.018 23.7831L486.638 23.1558L486.093 22.4622L485.306 23.08ZM481.13 27.304L480.369 27.9525L481.076 28.7818L481.842 28.0071L481.13 27.304ZM478.634 25.48L478.269 26.4108L478.28 26.415L478.634 25.48ZM474.122 25.336L474.596 26.2165L474.622 26.2028L474.646 26.1877L474.122 25.336ZM476.426 28.264L476.175 29.232L476.426 28.264ZM479.162 29.08L479.479 28.1313L479.162 29.08ZM481.898 30.376L482.431 29.5298L481.898 30.376ZM484.01 32.584L483.148 33.0897L483.152 33.0964L483.156 33.103L484.01 32.584ZM482.234 41.56L481.62 40.7706L481.613 40.7763L482.234 41.56ZM475.322 42.576C474.033 42.576 472.758 42.4112 471.496 42.0806L470.989 44.0154C472.415 44.3888 473.86 44.576 475.322 44.576V42.576ZM471.502 42.0822C470.266 41.7507 469.11 41.2849 468.032 40.6858L467.061 42.4342C468.286 43.1151 469.595 43.6413 470.983 44.0138L471.502 42.0822ZM468.061 40.7025C467.013 40.0739 466.129 39.364 465.4 38.5766L463.933 39.9354C464.803 40.876 465.839 41.7021 467.032 42.4175L468.061 40.7025ZM465.378 39.9591L469.554 35.7351L468.131 34.3289L463.955 38.5529L465.378 39.9591ZM468.108 35.7103C468.968 36.6427 469.99 37.3766 471.165 37.9104L471.992 36.0896C471.055 35.6634 470.252 35.0853 469.577 34.3537L468.108 35.7103ZM471.188 37.9206C472.378 38.4254 473.664 38.672 475.034 38.672V36.672C473.909 36.672 472.891 36.4706 471.969 36.0794L471.188 37.9206ZM475.034 38.672C475.969 38.672 476.829 38.5386 477.499 38.1562L476.506 36.4198C476.279 36.5494 475.828 36.672 475.034 36.672V38.672ZM477.473 38.1704C478.195 37.785 478.722 37.1351 478.722 36.232H476.722C476.722 36.2537 476.72 36.2624 476.72 36.2627C476.719 36.2632 476.719 36.2634 476.719 36.2637C476.719 36.264 476.718 36.2656 476.716 36.2687C476.709 36.2793 476.668 36.3332 476.532 36.4056L477.473 38.1704ZM478.722 36.232C478.722 35.769 478.604 35.3193 478.338 34.9213C478.077 34.5296 477.712 34.2449 477.306 34.0416L476.411 35.8304C476.581 35.9151 476.647 35.9904 476.674 36.0307C476.697 36.0647 476.722 36.119 476.722 36.232H478.722ZM477.365 34.0741C476.716 33.692 475.917 33.3905 474.997 33.152L474.495 35.088C475.304 35.2975 475.913 35.54 476.351 35.7979L477.365 34.0741ZM475.03 33.1612C474.168 32.9056 473.257 32.6339 472.298 32.3462L471.723 34.2618C472.684 34.5501 473.597 34.8224 474.462 35.0788L475.03 33.1612ZM472.298 32.3462C471.416 32.0816 470.578 31.7144 469.784 31.2437L468.765 32.9643C469.698 33.5176 470.685 33.9504 471.723 34.2618L472.298 32.3462ZM469.784 31.2437C469.068 30.8191 468.48 30.235 468.017 29.473L466.308 30.511C466.933 31.541 467.753 32.3649 468.765 32.9643L469.784 31.2437ZM468.025 29.4863C467.595 28.752 467.346 27.7717 467.346 26.488H465.346C465.346 28.0203 465.642 29.376 466.3 30.4977L468.025 29.4863ZM467.346 26.488C467.346 25.1627 467.682 24.0746 468.315 23.1767L466.681 22.0233C465.779 23.3014 465.346 24.8053 465.346 26.488H467.346ZM468.323 23.1655C468.974 22.2157 469.91 21.4457 471.176 20.8704L470.349 19.0496C468.798 19.7543 467.558 20.7443 466.674 22.0345L468.323 23.1655ZM471.176 20.8704C472.429 20.301 473.93 20 475.706 20V18C473.706 18 471.912 18.339 470.349 19.0496L471.176 20.8704ZM475.706 20C477.57 20 479.26 20.33 480.789 20.977L481.568 19.135C479.769 18.374 477.811 18 475.706 18V20ZM480.81 20.9857C482.353 21.5971 483.581 22.5023 484.52 23.6978L486.093 22.4622C484.92 20.9697 483.396 19.8589 481.547 19.1263L480.81 20.9857ZM484.595 22.3769L480.419 26.6009L481.842 28.0071L486.018 23.7831L484.595 22.3769ZM481.892 26.6555C481.062 25.6819 480.096 24.9649 478.989 24.545L478.28 26.415C479.029 26.6991 479.727 27.1981 480.369 27.9525L481.892 26.6555ZM479 24.5492C478.001 24.1567 476.997 23.952 475.994 23.952V25.952C476.72 25.952 477.476 26.0993 478.269 26.4108L479 24.5492ZM475.994 23.952C475.092 23.952 474.247 24.0849 473.598 24.4843L474.646 26.1877C474.829 26.0751 475.232 25.952 475.994 25.952V23.952ZM473.648 24.4555C473.316 24.6343 473.017 24.886 472.804 25.2296C472.59 25.5761 472.498 25.9595 472.498 26.344H474.498C474.498 26.3096 474.502 26.2915 474.504 26.2854C474.505 26.2801 474.506 26.2804 474.505 26.2824C474.5 26.29 474.512 26.2617 474.596 26.2165L473.648 24.4555ZM472.498 26.344C472.498 27.3029 473.084 27.9759 473.846 28.3798L474.782 26.6122C474.608 26.5197 474.54 26.445 474.518 26.414C474.505 26.3945 474.498 26.3814 474.498 26.344H472.498ZM473.846 28.3798C474.482 28.7165 475.267 28.9964 476.175 29.232L476.677 27.296C475.858 27.0836 475.234 26.8515 474.782 26.6122L473.846 28.3798ZM476.175 29.232C477.015 29.4496 477.905 29.7149 478.846 30.0287L479.479 28.1313C478.5 27.8051 477.566 27.5264 476.677 27.296L476.175 29.232ZM478.846 30.0287C479.729 30.3231 480.569 30.7206 481.366 31.2222L482.431 29.5298C481.5 28.9434 480.515 28.4769 479.479 28.1313L478.846 30.0287ZM481.366 31.2222C482.087 31.6762 482.68 32.2924 483.148 33.0897L484.873 32.0783C484.252 31.0196 483.438 30.1638 482.431 29.5298L481.366 31.2222ZM483.156 33.103C483.574 33.7916 483.826 34.7765 483.826 36.136H485.826C485.826 34.5515 485.535 33.1684 484.865 32.065L483.156 33.103ZM483.826 36.136C483.826 38.113 483.094 39.6243 481.62 40.7706L482.848 42.3494C484.83 40.8077 485.826 38.703 485.826 36.136H483.826ZM481.613 40.7763C480.147 41.9386 478.087 42.576 475.322 42.576V44.576C478.382 44.576 480.93 43.8694 482.855 42.3437L481.613 40.7763ZM507.071 43L506.119 43.3061L506.342 44H507.071V43ZM496.175 9.112V8.112H494.803L495.223 9.41809L496.175 9.112ZM503.663 9.112L504.62 8.81965L504.403 8.112H503.663V9.112ZM511.631 35.176V36.176H512.983L512.588 34.8836L511.631 35.176ZM508.703 35.176L507.745 34.8901L507.361 36.176H508.703V35.176ZM516.479 9.112V8.112H515.734L515.521 8.82611L516.479 9.112ZM522.383 9.112L523.342 8.82611L523.129 8.112H522.383V9.112ZM530.159 35.176V36.176H531.501L531.118 34.8901L530.159 35.176ZM527.279 35.176L526.323 34.8853L525.93 36.176H527.279V35.176ZM535.199 9.112V8.112H534.458L534.243 8.82126L535.199 9.112ZM542.639 9.112L543.591 9.41809L544.011 8.112H542.639V9.112ZM531.743 43V44H532.472L532.695 43.3061L531.743 43ZM525.839 43L524.882 43.2875L525.095 44H525.839V43ZM518.015 16.936V15.936H516.671L517.058 17.2235L518.015 16.936ZM520.799 16.936L521.757 17.2235L522.144 15.936H520.799V16.936ZM512.975 43V44H513.719L513.933 43.2875L512.975 43ZM508.023 42.6939L497.127 8.8059L495.223 9.41809L506.119 43.3061L508.023 42.6939ZM496.175 10.112H503.663V8.112H496.175V10.112ZM502.707 9.40435L510.675 35.4684L512.588 34.8836L504.62 8.81965L502.707 9.40435ZM511.631 34.176H508.703V36.176H511.631V34.176ZM509.662 35.4619L517.438 9.39789L515.521 8.82611L507.745 34.8901L509.662 35.4619ZM516.479 10.112H522.383V8.112H516.479V10.112ZM521.425 9.39789L529.201 35.4619L531.118 34.8901L523.342 8.82611L521.425 9.39789ZM530.159 34.176H527.279V36.176H530.159V34.176ZM528.236 35.4667L536.156 9.40274L534.243 8.82126L526.323 34.8853L528.236 35.4667ZM535.199 10.112H542.639V8.112H535.199V10.112ZM541.687 8.8059L530.791 42.6939L532.695 43.3061L543.591 9.41809L541.687 8.8059ZM531.743 42H525.839V44H531.743V42ZM526.797 42.7125L518.973 16.6485L517.058 17.2235L524.882 43.2875L526.797 42.7125ZM518.015 17.936H520.799V15.936H518.015V17.936ZM519.842 16.6485L512.018 42.7125L513.933 43.2875L521.757 17.2235L519.842 16.6485ZM512.975 42H507.071V44H512.975V42ZM547.749 41.944L547.256 42.814L547.265 42.8189L547.273 42.8235L547.749 41.944ZM543.189 37.528L544.045 37.0113L543.189 37.528ZM543.189 25.096L542.337 24.5727L543.189 25.096ZM547.749 20.776L548.231 21.6523L548.242 21.646L547.749 20.776ZM565.365 25.096L564.509 25.6127L564.513 25.6193L565.365 25.096ZM565.365 37.528L566.221 38.0447V38.0447L565.365 37.528ZM560.805 41.944L561.287 42.8203L561.298 42.814L560.805 41.944ZM557.061 36.184L557.55 37.0565L557.563 37.0492L557.576 37.0415L557.061 36.184ZM558.885 34.216L557.997 33.7557L557.994 33.7622L557.991 33.7688L558.885 34.216ZM558.885 28.456L558.005 28.9301L558.009 28.9374L558.013 28.9446L558.885 28.456ZM557.013 26.536L556.483 27.384L556.504 27.3967L556.525 27.4085L557.013 26.536ZM551.541 26.536L552.03 27.4085L552.043 27.4012L552.056 27.3935L551.541 26.536ZM549.669 28.456L550.55 28.9301L549.669 28.456ZM549.669 34.216L548.781 34.6763L548.785 34.6832L548.789 34.6901L549.669 34.216ZM551.541 36.184L551.027 37.0415L551.039 37.0492L551.053 37.0565L551.541 36.184ZM554.277 42.528C552.029 42.528 550.019 42.035 548.225 41.0645L547.273 42.8235C549.383 43.965 551.725 44.528 554.277 44.528V42.528ZM548.242 41.074C546.469 40.069 545.075 38.7176 544.045 37.0113L542.333 38.0447C543.543 40.0504 545.19 41.643 547.256 42.814L548.242 41.074ZM544.045 37.0113C543.025 35.3211 542.509 33.4218 542.509 31.288H540.509C540.509 33.7622 541.113 36.0229 542.333 38.0447L544.045 37.0113ZM542.509 31.288C542.509 29.1541 543.025 27.2738 544.041 25.6193L542.337 24.5727C541.113 26.5662 540.509 28.8139 540.509 31.288H542.509ZM544.041 25.6193C545.068 23.9467 546.459 22.6267 548.231 21.6522L547.267 19.8998C545.199 21.0373 543.55 22.5973 542.337 24.5727L544.041 25.6193ZM548.242 21.646C549.997 20.6517 552 20.144 554.277 20.144V18.144C551.69 18.144 549.341 18.7243 547.256 19.906L548.242 21.646ZM554.277 20.144C556.56 20.144 558.567 20.6381 560.323 21.6042L561.287 19.8518C559.204 18.7059 556.859 18.144 554.277 18.144V20.144ZM560.323 21.6042C562.091 22.5764 563.481 23.9091 564.509 25.6127L566.221 24.5793C565.009 22.5709 563.36 20.9916 561.287 19.8518L560.323 21.6042ZM564.513 25.6193C565.529 27.2738 566.045 29.1541 566.045 31.288H568.045C568.045 28.8139 567.441 26.5662 566.217 24.5727L564.513 25.6193ZM566.045 31.288C566.045 33.4218 565.529 35.3211 564.509 37.0113L566.221 38.0447C567.441 36.0229 568.045 33.7622 568.045 31.288H566.045ZM564.509 37.0113C563.479 38.7176 562.086 40.069 560.312 41.074L561.298 42.814C563.365 41.643 565.011 40.0504 566.221 38.0447L564.509 37.0113ZM560.323 41.0678C558.567 42.0339 556.56 42.528 554.277 42.528V44.528C556.859 44.528 559.204 43.9661 561.287 42.8202L560.323 41.0678ZM554.277 37.856C555.478 37.856 556.579 37.6001 557.55 37.0565L556.573 35.3115C555.943 35.6639 555.188 35.856 554.277 35.856V37.856ZM557.576 37.0415C558.538 36.464 559.278 35.6659 559.78 34.6632L557.991 33.7688C557.66 34.4301 557.184 34.944 556.547 35.3265L557.576 37.0415ZM559.773 34.6763C560.303 33.654 560.557 32.5171 560.557 31.288H558.557C558.557 32.2349 558.363 33.05 557.997 33.7557L559.773 34.6763ZM560.557 31.288C560.557 30.0609 560.304 28.9423 559.758 27.9674L558.013 28.9446C558.363 29.5697 558.557 30.3391 558.557 31.288H560.557ZM559.766 27.9819C559.23 26.988 558.473 26.2073 557.502 25.6635L556.525 27.4085C557.153 27.7607 557.644 28.26 558.005 28.9301L559.766 27.9819ZM557.543 25.688C556.591 25.0931 555.489 24.816 554.277 24.816V26.816C555.177 26.816 555.899 27.0189 556.483 27.384L557.543 25.688ZM554.277 24.816C553.09 24.816 551.997 25.0963 551.027 25.6785L552.056 27.3935C552.685 27.0157 553.416 26.816 554.277 26.816V24.816ZM551.053 25.6635C550.081 26.2073 549.324 26.988 548.789 27.9819L550.55 28.9301C550.91 28.26 551.401 27.7607 552.03 27.4085L551.053 25.6635ZM548.789 27.9819C548.251 28.9803 547.997 30.1078 547.997 31.336H549.997C549.997 30.3882 550.191 29.5957 550.55 28.9301L548.789 27.9819ZM547.997 31.336C547.997 32.5383 548.253 33.6582 548.781 34.6763L550.557 33.7557C550.189 33.0458 549.997 32.2457 549.997 31.336H547.997ZM548.789 34.6901C549.321 35.6783 550.07 36.4677 551.027 37.0415L552.056 35.3265C551.412 34.9403 550.913 34.4177 550.55 33.7419L548.789 34.6901ZM551.053 37.0565C552.019 37.5975 553.102 37.856 554.277 37.856V35.856C553.404 35.856 552.664 35.6665 552.03 35.3115L551.053 37.0565ZM570.701 43H569.701V44H570.701V43ZM570.701 19.672V18.672H569.701V19.672H570.701ZM578.045 19.672H579.045V18.672H578.045V19.672ZM578.045 43V44H579.045V43H578.045ZM578.045 30.184L577.43 30.972L579.045 32.2342V30.184H578.045ZM574.973 27.784L573.997 27.5659L573.86 28.1828L574.358 28.572L574.973 27.784ZM578.045 21.448L578.768 22.1396L578.045 21.448ZM586.973 19.72L586.584 20.641L586.605 20.6498L586.626 20.6577L586.973 19.72ZM589.229 21.256L590.014 21.8765L590.54 21.2112L589.969 20.5833L589.229 21.256ZM584.861 26.776L584.121 27.4487L584.914 28.3207L585.646 27.3965L584.861 26.776ZM583.661 25.96L583.29 26.8885L583.661 25.96ZM579.101 26.824L578.379 26.1321L578.379 26.1328L579.101 26.824ZM571.701 43V19.672H569.701V43H571.701ZM570.701 20.672H578.045V18.672H570.701V20.672ZM577.045 19.672V43H579.045V19.672H577.045ZM578.045 42H570.701V44H578.045V42ZM578.661 29.396L575.589 26.996L574.358 28.572L577.43 30.972L578.661 29.396ZM575.949 28.0021C576.531 25.4017 577.49 23.4744 578.768 22.1396L577.323 20.7564C575.721 22.4296 574.632 24.7263 573.997 27.5659L575.949 28.0021ZM578.768 22.1396C579.977 20.8762 581.691 20.192 584.045 20.192V18.192C581.28 18.192 578.993 19.0118 577.323 20.7564L578.768 22.1396ZM584.045 20.192C585.063 20.192 585.901 20.352 586.584 20.641L587.363 18.799C586.382 18.384 585.268 18.192 584.045 18.192V20.192ZM586.626 20.6577C587.335 20.9203 587.954 21.3392 588.489 21.9287L589.969 20.5833C589.225 19.7648 588.34 19.1597 587.321 18.7822L586.626 20.6577ZM588.445 20.6355L584.077 26.1555L585.646 27.3965L590.014 21.8765L588.445 20.6355ZM585.601 26.1033C585.171 25.6298 584.641 25.2748 584.033 25.0315L583.29 26.8885C583.642 27.0292 583.912 27.2182 584.121 27.4487L585.601 26.1033ZM584.033 25.0315C583.416 24.7847 582.743 24.672 582.029 24.672V26.672C582.532 26.672 582.947 26.7513 583.29 26.8885L584.033 25.0315ZM582.029 24.672C580.583 24.672 579.332 25.1385 578.379 26.1321L579.823 27.5159C580.343 26.9735 581.043 26.672 582.029 26.672V24.672ZM578.379 26.1328C577.428 27.1271 577.045 28.5437 577.045 30.184H579.045C579.045 28.8163 579.367 27.9929 579.824 27.5152L578.379 26.1328ZM606.114 43L605.285 43.5592L605.582 44H606.114V43ZM597.954 30.904L597.143 30.3185L596.734 30.8845L597.125 31.4632L597.954 30.904ZM606.066 19.672V18.672H605.554L605.255 19.0865L606.066 19.672ZM614.274 19.672L615.064 20.2849L616.315 18.672H614.274V19.672ZM604.482 32.296L603.485 32.2169L603.22 35.5542L605.272 32.9089L604.482 32.296ZM604.722 29.272L605.529 28.682L603.938 26.5049L603.725 29.1929L604.722 29.272ZM614.754 43V44H616.723L615.561 42.41L614.754 43ZM591.186 43H590.186V44H591.186V43ZM591.186 8.152V7.152H590.186V8.152H591.186ZM598.53 8.152H599.53V7.152H598.53V8.152ZM598.53 43V44H599.53V43H598.53ZM606.943 42.4408L598.783 30.3448L597.125 31.4632L605.285 43.5592L606.943 42.4408ZM598.764 31.4895L606.876 20.2575L605.255 19.0865L597.143 30.3185L598.764 31.4895ZM606.066 20.672H614.274V18.672H606.066V20.672ZM613.484 19.0591L603.692 31.6831L605.272 32.9089L615.064 20.2849L613.484 19.0591ZM605.479 32.3751L605.719 29.3511L603.725 29.1929L603.485 32.2169L605.479 32.3751ZM603.914 29.862L613.946 43.59L615.561 42.41L605.529 28.682L603.914 29.862ZM614.754 42H606.114V44H614.754V42ZM592.186 43V8.152H590.186V43H592.186ZM591.186 9.152H598.53V7.152H591.186V9.152ZM597.53 8.152V43H599.53V8.152H597.53ZM598.53 42H591.186V44H598.53V42ZM620.445 43.048L620.186 44.0139L620.192 44.0154L620.445 43.048ZM616.75 41.56L616.235 42.4175L616.249 42.4261L616.264 42.4342L616.75 41.56ZM613.87 39.256L613.158 38.5529L612.486 39.2334L613.136 39.9354L613.87 39.256ZM618.046 35.032L618.78 34.3537L618.07 33.5845L617.334 34.3289L618.046 35.032ZM620.781 37L620.368 37.9104L620.379 37.9156L620.391 37.9206L620.781 37ZM626.206 37.288L625.735 36.4056L625.722 36.4125L625.709 36.4198L626.206 37.288ZM626.061 34.936L625.554 35.7979L625.584 35.8152L625.614 35.8304L626.061 34.936ZM623.949 34.12L623.665 35.0788L623.682 35.0837L623.699 35.088L623.949 34.12ZM618.478 32.104L618.987 31.2437L618.478 32.104ZM616.366 29.992L615.503 30.4977L615.507 30.5044L615.511 30.511L616.366 29.992ZM616.702 22.6L617.519 23.1767L617.526 23.1655L616.702 22.6ZM619.966 19.96L619.552 19.0496L619.966 19.96ZM630.382 20.056L629.992 20.977L630.002 20.9814L630.013 20.9857L630.382 20.056ZM634.509 23.08L635.221 23.7831L635.841 23.1558L635.296 22.4622L634.509 23.08ZM630.333 27.304L629.572 27.9525L630.279 28.7818L631.045 28.0071L630.333 27.304ZM627.837 25.48L627.472 26.4108L627.483 26.415L627.837 25.48ZM623.326 25.336L623.8 26.2165L623.825 26.2028L623.85 26.1877L623.326 25.336ZM625.629 28.264L625.379 29.232L625.629 28.264ZM628.366 29.08L628.682 28.1313L628.366 29.08ZM631.102 30.376L631.634 29.5298L631.102 30.376ZM633.214 32.584L632.351 33.0897L632.355 33.0964L632.359 33.103L633.214 32.584ZM631.438 41.56L630.824 40.7706L630.816 40.7763L631.438 41.56ZM624.526 42.576C623.236 42.576 621.961 42.4112 620.699 42.0806L620.192 44.0154C621.618 44.3888 623.063 44.576 624.526 44.576V42.576ZM620.705 42.0822C619.469 41.7507 618.314 41.2849 617.235 40.6858L616.264 42.4342C617.49 43.1151 618.798 43.6413 620.186 44.0138L620.705 42.0822ZM617.264 40.7025C616.216 40.0739 615.332 39.364 614.603 38.5766L613.136 39.9354C614.007 40.876 615.043 41.7021 616.235 42.4175L617.264 40.7025ZM614.581 39.9591L618.757 35.7351L617.334 34.3289L613.158 38.5529L614.581 39.9591ZM617.311 35.7103C618.171 36.6427 619.193 37.3766 620.368 37.9104L621.195 36.0896C620.258 35.6634 619.456 35.0853 618.78 34.3537L617.311 35.7103ZM620.391 37.9206C621.581 38.4254 622.867 38.672 624.237 38.672V36.672C623.112 36.672 622.094 36.4706 621.172 36.0794L620.391 37.9206ZM624.237 38.672C625.172 38.672 626.033 38.5386 626.702 38.1562L625.709 36.4198C625.482 36.5494 625.031 36.672 624.237 36.672V38.672ZM626.676 38.1704C627.399 37.785 627.926 37.1351 627.926 36.232H625.926C625.926 36.2537 625.923 36.2624 625.923 36.2627C625.923 36.2632 625.922 36.2634 625.922 36.2637C625.922 36.264 625.921 36.2656 625.919 36.2687C625.912 36.2793 625.871 36.3332 625.735 36.4056L626.676 38.1704ZM627.926 36.232C627.926 35.769 627.807 35.3193 627.542 34.9213C627.28 34.5296 626.915 34.2449 626.509 34.0416L625.614 35.8304C625.784 35.9151 625.851 35.9904 625.877 36.0307C625.9 36.0647 625.926 36.119 625.926 36.232H627.926ZM626.569 34.0741C625.919 33.692 625.12 33.3905 624.2 33.152L623.699 35.088C624.507 35.2975 625.116 35.54 625.554 35.7979L626.569 34.0741ZM624.234 33.1612C623.371 32.9056 622.46 32.6339 621.501 32.3462L620.926 34.2618C621.887 34.5501 622.8 34.8224 623.665 35.0788L624.234 33.1612ZM621.501 32.3462C620.619 32.0816 619.782 31.7144 618.987 31.2437L617.968 32.9643C618.901 33.5176 619.888 33.9504 620.926 34.2618L621.501 32.3462ZM618.987 31.2437C618.271 30.8191 617.683 30.235 617.22 29.473L615.511 30.511C616.136 31.541 616.956 32.3649 617.968 32.9643L618.987 31.2437ZM617.228 29.4863C616.798 28.752 616.549 27.7717 616.549 26.488H614.549C614.549 28.0203 614.845 29.376 615.503 30.4977L617.228 29.4863ZM616.549 26.488C616.549 25.1627 616.885 24.0746 617.518 23.1767L615.885 22.0233C614.982 23.3014 614.549 24.8053 614.549 26.488H616.549ZM617.526 23.1655C618.178 22.2157 619.114 21.4457 620.379 20.8704L619.552 19.0496C618.001 19.7543 616.761 20.7443 615.877 22.0345L617.526 23.1655ZM620.379 20.8704C621.632 20.301 623.133 20 624.91 20V18C622.91 18 621.115 18.339 619.552 19.0496L620.379 20.8704ZM624.91 20C626.773 20 628.463 20.33 629.992 20.977L630.771 19.135C628.972 18.374 627.014 18 624.91 18V20ZM630.013 20.9857C631.556 21.5971 632.784 22.5023 633.723 23.6978L635.296 22.4622C634.123 20.9697 632.599 19.8589 630.75 19.1263L630.013 20.9857ZM633.798 22.3769L629.622 26.6009L631.045 28.0071L635.221 23.7831L633.798 22.3769ZM631.095 26.6555C630.265 25.6819 629.299 24.9649 628.192 24.545L627.483 26.415C628.232 26.6991 628.93 27.1981 629.572 27.9525L631.095 26.6555ZM628.203 24.5492C627.204 24.1567 626.2 23.952 625.198 23.952V25.952C625.923 25.952 626.679 26.0993 627.472 26.4108L628.203 24.5492ZM625.198 23.952C624.295 23.952 623.45 24.0849 622.801 24.4843L623.85 26.1877C624.033 26.0751 624.436 25.952 625.198 25.952V23.952ZM622.851 24.4555C622.519 24.6343 622.22 24.886 622.007 25.2296C621.793 25.5761 621.702 25.9595 621.702 26.344H623.702C623.702 26.3096 623.705 26.2915 623.707 26.2854C623.708 26.2801 623.709 26.2804 623.708 26.2824C623.703 26.29 623.716 26.2617 623.8 26.2165L622.851 24.4555ZM621.702 26.344C621.702 27.3029 622.287 27.9759 623.05 28.3798L623.985 26.6122C623.811 26.5197 623.744 26.445 623.722 26.414C623.708 26.3945 623.702 26.3814 623.702 26.344H621.702ZM623.05 28.3798C623.686 28.7165 624.47 28.9964 625.379 29.232L625.88 27.296C625.061 27.0836 624.437 26.8515 623.985 26.6122L623.05 28.3798ZM625.379 29.232C626.218 29.4496 627.108 29.7149 628.049 30.0287L628.682 28.1313C627.703 27.8051 626.769 27.5264 625.88 27.296L625.379 29.232ZM628.049 30.0287C628.933 30.3231 629.772 30.7206 630.569 31.2222L631.634 29.5298C630.703 28.9434 629.718 28.4769 628.682 28.1313L628.049 30.0287ZM630.569 31.2222C631.29 31.6762 631.883 32.2924 632.351 33.0897L634.076 32.0783C633.456 31.0196 632.641 30.1638 631.634 29.5298L630.569 31.2222ZM632.359 33.103C632.777 33.7916 633.03 34.7765 633.03 36.136H635.03C635.03 34.5515 634.738 33.1684 634.068 32.065L632.359 33.103ZM633.03 36.136C633.03 38.113 632.297 39.6243 630.824 40.7706L632.051 42.3494C634.034 40.8077 635.03 38.703 635.03 36.136H633.03ZM630.816 40.7763C629.35 41.9386 627.29 42.576 624.526 42.576V44.576C627.585 44.576 630.133 43.8694 632.059 42.3437L630.816 40.7763Z" fill="#444444"/>
</svg>
