<svg width="375" height="51" viewBox="0 0 375 51" fill="none" xmlns="http://www.w3.org/2000/svg">
<path d="M-268.736 43H-269.736V44H-268.736V43ZM-268.736 9.112V8.112H-269.736V9.112H-268.736ZM-261.2 9.112H-260.2V8.112H-261.2V9.112ZM-261.2 43V44H-260.2V43H-261.2ZM-247.76 43H-248.76V44H-247.76V43ZM-247.76 9.112V8.112H-248.76V9.112H-247.76ZM-240.176 9.112H-239.176V8.112H-240.176V9.112ZM-240.176 43V44H-239.176V43H-240.176ZM-264.224 28.84H-265.224V29.84H-264.224V28.84ZM-264.224 22.312V21.312H-265.224V22.312H-264.224ZM-245.264 22.312H-244.264V21.312H-245.264V22.312ZM-245.264 28.84V29.84H-244.264V28.84H-245.264ZM-267.736 43V9.112H-269.736V43H-267.736ZM-268.736 10.112H-261.2V8.112H-268.736V10.112ZM-262.2 9.112V43H-260.2V9.112H-262.2ZM-261.2 42H-268.736V44H-261.2V42ZM-246.76 43V9.112H-248.76V43H-246.76ZM-247.76 10.112H-240.176V8.112H-247.76V10.112ZM-241.176 9.112V43H-239.176V9.112H-241.176ZM-240.176 42H-247.76V44H-240.176V42ZM-263.224 28.84V22.312H-265.224V28.84H-263.224ZM-264.224 23.312H-245.264V21.312H-264.224V23.312ZM-246.264 22.312V28.84H-244.264V22.312H-246.264ZM-245.264 27.84H-264.224V29.84H-245.264V27.84ZM-229.641 41.944L-230.135 42.814L-230.126 42.8189L-230.117 42.8235L-229.641 41.944ZM-234.201 37.528L-233.345 37.0113L-234.201 37.528ZM-234.201 25.096L-235.054 24.5727L-234.201 25.096ZM-229.641 20.776L-229.16 21.6523L-229.148 21.646L-229.641 20.776ZM-212.025 25.096L-212.882 25.6127L-212.878 25.6193L-212.025 25.096ZM-212.025 37.528L-211.169 38.0447L-211.169 38.0447L-212.025 37.528ZM-216.585 41.944L-216.104 42.8203L-216.092 42.814L-216.585 41.944ZM-220.329 36.184L-219.841 37.0565L-219.828 37.0492L-219.815 37.0415L-220.329 36.184ZM-218.506 34.216L-219.393 33.7557L-219.397 33.7622L-219.4 33.7688L-218.506 34.216ZM-218.506 28.456L-219.386 28.9301L-219.382 28.9374L-219.378 28.9446L-218.506 28.456ZM-220.377 26.536L-220.907 27.384L-220.887 27.3967L-220.866 27.4085L-220.377 26.536ZM-225.849 26.536L-225.361 27.4085L-225.348 27.4012L-225.335 27.3935L-225.849 26.536ZM-227.722 28.456L-226.841 28.9301L-227.722 28.456ZM-227.722 34.216L-228.609 34.6763L-228.606 34.6832L-228.602 34.6901L-227.722 34.216ZM-225.849 36.184L-226.364 37.0415L-226.351 37.0492L-226.338 37.0565L-225.849 36.184ZM-223.113 42.528C-225.361 42.528 -227.372 42.035 -229.166 41.0645L-230.117 42.8235C-228.007 43.965 -225.666 44.528 -223.113 44.528V42.528ZM-229.148 41.074C-230.922 40.069 -232.316 38.7176 -233.345 37.0113L-235.058 38.0447C-233.847 40.0504 -232.201 41.643 -230.135 42.814L-229.148 41.074ZM-233.345 37.0113C-234.365 35.3211 -234.882 33.4218 -234.882 31.288H-236.882C-236.882 33.7622 -236.278 36.0229 -235.058 38.0447L-233.345 37.0113ZM-234.882 31.288C-234.882 29.1541 -234.365 27.2738 -233.349 25.6193L-235.054 24.5727C-236.278 26.5662 -236.882 28.8139 -236.882 31.288H-234.882ZM-233.349 25.6193C-232.322 23.9467 -230.931 22.6267 -229.16 21.6522L-230.123 19.8998C-232.192 21.0373 -233.841 22.5973 -235.054 24.5727L-233.349 25.6193ZM-229.148 21.646C-227.394 20.6517 -225.391 20.144 -223.113 20.144V18.144C-225.7 18.144 -228.049 18.7243 -230.135 19.906L-229.148 21.646ZM-223.113 20.144C-220.831 20.144 -218.824 20.6381 -217.067 21.6042L-216.104 19.8518C-218.187 18.7059 -220.532 18.144 -223.113 18.144V20.144ZM-217.067 21.6042C-215.3 22.5764 -213.91 23.9091 -212.882 25.6127L-211.169 24.5793C-212.381 22.5709 -214.031 20.9916 -216.104 19.8518L-217.067 21.6042ZM-212.878 25.6193C-211.862 27.2738 -211.345 29.1541 -211.345 31.288H-209.345C-209.345 28.8139 -209.949 26.5662 -211.173 24.5727L-212.878 25.6193ZM-211.345 31.288C-211.345 33.4218 -211.862 35.3211 -212.882 37.0113L-211.169 38.0447C-209.949 36.0229 -209.345 33.7622 -209.345 31.288H-211.345ZM-212.882 37.0113C-213.911 38.7176 -215.305 40.069 -217.079 41.074L-216.092 42.814C-214.026 41.643 -212.38 40.0504 -211.169 38.0447L-212.882 37.0113ZM-217.067 41.0678C-218.824 42.0339 -220.831 42.528 -223.113 42.528V44.528C-220.532 44.528 -218.187 43.9661 -216.104 42.8202L-217.067 41.0678ZM-223.113 37.856C-221.913 37.856 -220.812 37.6001 -219.841 37.0565L-220.818 35.3115C-221.447 35.6639 -222.202 35.856 -223.113 35.856V37.856ZM-219.815 37.0415C-218.852 36.464 -218.112 35.6659 -217.611 34.6632L-219.4 33.7688C-219.731 34.4301 -220.207 34.944 -220.844 35.3265L-219.815 37.0415ZM-217.618 34.6763C-217.088 33.654 -216.833 32.5171 -216.833 31.288H-218.833C-218.833 32.2349 -219.027 33.05 -219.393 33.7557L-217.618 34.6763ZM-216.833 31.288C-216.833 30.0609 -217.087 28.9423 -217.633 27.9674L-219.378 28.9446C-219.028 29.5697 -218.833 30.3391 -218.833 31.288H-216.833ZM-217.625 27.9819C-218.16 26.988 -218.918 26.2073 -219.889 25.6635L-220.866 27.4085C-220.237 27.7607 -219.747 28.26 -219.386 28.9301L-217.625 27.9819ZM-219.847 25.688C-220.799 25.0931 -221.902 24.816 -223.113 24.816V26.816C-222.213 26.816 -221.492 27.0189 -220.907 27.384L-219.847 25.688ZM-223.113 24.816C-224.3 24.816 -225.394 25.0963 -226.364 25.6785L-225.335 27.3935C-224.705 27.0157 -223.974 26.816 -223.113 26.816V24.816ZM-226.338 25.6635C-227.309 26.2073 -228.067 26.988 -228.602 27.9819L-226.841 28.9301C-226.48 28.26 -225.99 27.7607 -225.361 27.4085L-226.338 25.6635ZM-228.602 27.9819C-229.14 28.9803 -229.394 30.1078 -229.394 31.336H-227.394C-227.394 30.3882 -227.199 29.5957 -226.841 28.9301L-228.602 27.9819ZM-229.394 31.336C-229.394 32.5383 -229.137 33.6582 -228.609 34.6763L-226.834 33.7557C-227.202 33.0458 -227.394 32.2457 -227.394 31.336H-229.394ZM-228.602 34.6901C-228.07 35.6783 -227.32 36.4677 -226.364 37.0415L-225.335 35.3265C-225.979 34.9403 -226.477 34.4177 -226.841 33.7419L-228.602 34.6901ZM-226.338 37.0565C-225.372 37.5975 -224.288 37.856 -223.113 37.856V35.856C-223.987 35.856 -224.727 35.6665 -225.361 35.3115L-226.338 37.0565ZM-201.446 43L-202.391 43.3267L-202.158 44H-201.446V43ZM-209.51 19.672V18.672H-210.914L-210.455 19.9987L-209.51 19.672ZM-202.31 19.672L-201.351 19.3894L-201.562 18.672H-202.31V19.672ZM-197.318 36.616L-197.295 37.6157L-195.99 37.5861L-196.359 36.3334L-197.318 36.616ZM-199.43 36.664L-200.381 36.355L-200.817 37.6958L-199.407 37.6637L-199.43 36.664ZM-193.91 19.672V18.672H-194.637L-194.861 19.363L-193.91 19.672ZM-187.958 19.672L-187.008 19.3606L-187.233 18.672H-187.958V19.672ZM-182.39 36.664L-182.412 37.6638L-181 37.6951L-181.44 36.3526L-182.39 36.664ZM-184.55 36.616L-185.508 36.3309L-185.882 37.5866L-184.572 37.6158L-184.55 36.616ZM-179.51 19.672V18.672H-180.256L-180.468 19.3869L-179.51 19.672ZM-172.31 19.672L-171.365 19.9987L-170.906 18.672H-172.31V19.672ZM-180.374 43V44H-179.662L-179.429 43.3267L-180.374 43ZM-186.374 43L-187.322 43.3188L-187.093 44H-186.374V43ZM-191.798 26.872V25.872H-193.189L-192.746 27.1908L-191.798 26.872ZM-189.974 26.872L-189.028 27.1958L-188.575 25.872H-189.974V26.872ZM-195.494 43V44H-194.779L-194.548 43.3238L-195.494 43ZM-200.501 42.6733L-208.565 19.3453L-210.455 19.9987L-202.391 43.3267L-200.501 42.6733ZM-209.51 20.672H-202.31V18.672H-209.51V20.672ZM-203.269 19.9546L-198.277 36.8986L-196.359 36.3334L-201.351 19.3894L-203.269 19.9546ZM-197.341 35.6163L-199.453 35.6643L-199.407 37.6637L-197.295 37.6157L-197.341 35.6163ZM-198.479 36.973L-192.959 19.981L-194.861 19.363L-200.381 36.355L-198.479 36.973ZM-193.91 20.672H-187.958V18.672H-193.91V20.672ZM-188.908 19.9834L-183.34 36.9754L-181.44 36.3526L-187.008 19.3606L-188.908 19.9834ZM-182.368 35.6642L-184.528 35.6162L-184.572 37.6158L-182.412 37.6638L-182.368 35.6642ZM-183.591 36.9011L-178.551 19.9571L-180.468 19.3869L-185.508 36.3309L-183.591 36.9011ZM-179.51 20.672H-172.31V18.672H-179.51V20.672ZM-173.255 19.3453L-181.319 42.6733L-179.429 43.3267L-171.365 19.9987L-173.255 19.3453ZM-180.374 42H-186.374V44H-180.374V42ZM-185.426 42.6812L-190.85 26.5532L-192.746 27.1908L-187.322 43.3188L-185.426 42.6812ZM-191.798 27.872H-189.974V25.872H-191.798V27.872ZM-190.92 26.5482L-196.44 42.6762L-194.548 43.3238L-189.028 27.1958L-190.92 26.5482ZM-195.494 42H-201.446V44H-195.494V42ZM-153.898 43H-154.898V44H-153.898V43ZM-153.898 37.144V36.144H-154.898V37.144H-153.898ZM-142.474 35.848L-141.754 36.5416L-142.474 35.848ZM-143.434 28.792L-143.93 29.6602L-143.921 29.6652L-143.913 29.6699L-143.434 28.792ZM-153.898 28.216H-154.898V29.216H-153.898V28.216ZM-153.898 22.504V21.504H-154.898V22.504H-153.898ZM-143.53 21.592L-142.909 22.376L-142.899 22.3683L-142.89 22.3602L-143.53 21.592ZM-143.53 15.928L-144.17 16.6962L-144.16 16.7043L-144.151 16.712L-143.53 15.928ZM-153.898 14.968H-154.898V15.968H-153.898V14.968ZM-153.898 9.112V8.112H-154.898V9.112H-153.898ZM-139.594 10.312L-140.064 11.1949L-140.056 11.1989L-139.594 10.312ZM-136.09 13.528L-136.949 14.0395V14.0395L-136.09 13.528ZM-136.906 23.272L-136.175 23.9543V23.9543L-136.906 23.272ZM-142.858 26.248L-143.855 26.1727L-143.955 27.4967L-142.655 27.2272L-142.858 26.248ZM-142.666 23.704L-142.478 22.7218L-143.579 22.5116L-143.663 23.6287L-142.666 23.704ZM-136.09 27.016L-136.825 27.6943L-136.818 27.7018L-136.09 27.016ZM-135.13 38.2L-135.981 37.6749L-135.984 37.6801L-135.13 38.2ZM-139.066 41.704L-139.513 40.8095L-139.52 40.813L-139.066 41.704ZM-159.658 43H-160.658V44H-159.658V43ZM-159.658 9.112V8.112H-160.658V9.112H-159.658ZM-152.218 9.112H-151.218V8.112H-152.218V9.112ZM-152.218 43V44H-151.218V43H-152.218ZM-152.898 43V37.144H-154.898V43H-152.898ZM-153.898 38.144H-145.93V36.144H-153.898V38.144ZM-145.93 38.144C-144.252 38.144 -142.815 37.6443 -141.754 36.5416L-143.194 35.1544C-143.796 35.7797 -144.664 36.144 -145.93 36.144V38.144ZM-141.754 36.5416C-140.734 35.4831 -140.226 34.1751 -140.226 32.68H-142.226C-142.226 33.6809 -142.55 34.4849 -143.194 35.1544L-141.754 36.5416ZM-140.226 32.68C-140.226 31.6627 -140.454 30.72 -140.934 29.8799L-142.67 30.8721C-142.382 31.376 -142.226 31.9693 -142.226 32.68H-140.226ZM-140.934 29.8799C-141.413 29.041 -142.095 28.3835 -142.955 27.9141L-143.913 29.6699C-143.365 29.9685 -142.959 30.367 -142.67 30.8721L-140.934 29.8799ZM-142.938 27.9238C-143.798 27.4324 -144.812 27.216 -145.93 27.216V29.216C-145.064 29.216 -144.414 29.3836 -143.93 29.6602L-142.938 27.9238ZM-145.93 27.216H-153.898V29.216H-145.93V27.216ZM-152.898 28.216V22.504H-154.898V28.216H-152.898ZM-153.898 23.504H-146.554V21.504H-153.898V23.504ZM-146.554 23.504C-145.143 23.504 -143.897 23.1584 -142.909 22.376L-144.151 20.808C-144.698 21.2416 -145.468 21.504 -146.554 21.504V23.504ZM-142.89 22.3602C-141.833 21.4794 -141.378 20.1989 -141.378 18.712H-143.378C-143.378 19.7851 -143.691 20.4246 -144.17 20.8238L-142.89 22.3602ZM-141.378 18.712C-141.378 17.2498 -141.838 15.9919 -142.909 15.144L-144.151 16.712C-143.686 17.0801 -143.378 17.6782 -143.378 18.712H-141.378ZM-142.89 15.1598C-143.879 14.3357 -145.132 13.968 -146.554 13.968V15.968C-145.48 15.968 -144.717 16.2403 -144.17 16.6962L-142.89 15.1598ZM-146.554 13.968H-153.898V15.968H-146.554V13.968ZM-152.898 14.968V9.112H-154.898V14.968H-152.898ZM-153.898 10.112H-145.114V8.112H-153.898V10.112ZM-145.114 10.112C-143.057 10.112 -141.388 10.4902 -140.063 11.1949L-139.124 9.42912C-140.807 8.53382 -142.818 8.112 -145.114 8.112V10.112ZM-140.056 11.1989C-138.666 11.9226 -137.644 12.8719 -136.949 14.0395L-135.231 13.0165C-136.136 11.4961 -137.449 10.3014 -139.132 9.42508L-140.056 11.1989ZM-136.949 14.0395C-136.245 15.2219 -135.89 16.5319 -135.89 17.992H-133.89C-133.89 16.1881 -134.334 14.5221 -135.231 13.0165L-136.949 14.0395ZM-135.89 17.992C-135.89 19.8343 -136.476 21.3459 -137.637 22.5897L-136.175 23.9543C-134.648 22.3181 -133.89 20.3097 -133.89 17.992H-135.89ZM-137.637 22.5897C-138.797 23.8327 -140.568 24.752 -143.061 25.2688L-142.655 27.2272C-139.9 26.656 -137.703 25.5913 -136.175 23.9543L-137.637 22.5897ZM-141.861 26.3233L-141.669 23.7793L-143.663 23.6287L-143.855 26.1727L-141.861 26.3233ZM-142.854 24.6862C-140.156 25.2014 -138.179 26.2267 -136.825 27.6943L-135.355 26.3377C-137.072 24.4773 -139.479 23.2946 -142.478 22.7218L-142.854 24.6862ZM-136.818 27.7018C-135.436 29.1677 -134.738 30.9651 -134.738 33.16H-132.738C-132.738 30.4909 -133.607 28.1923 -135.362 26.3302L-136.818 27.7018ZM-134.738 33.16C-134.738 34.8403 -135.155 36.3368 -135.981 37.6749L-134.279 38.7251C-133.248 37.0552 -132.738 35.1917 -132.738 33.16H-134.738ZM-135.984 37.6801C-136.771 38.9725 -137.932 40.0192 -139.513 40.8096L-138.619 42.5984C-136.743 41.6608 -135.281 40.3715 -134.276 38.7199L-135.984 37.6801ZM-139.52 40.813C-141.043 41.5891 -142.928 42 -145.21 42V44C-142.692 44 -140.48 43.5469 -138.612 42.595L-139.52 40.813ZM-145.21 42H-153.898V44H-145.21V42ZM-158.658 43V9.112H-160.658V43H-158.658ZM-159.658 10.112H-152.218V8.112H-159.658V10.112ZM-153.218 9.112V43H-151.218V9.112H-153.218ZM-152.218 42H-159.658V44H-152.218V42ZM-124.924 42.232L-125.405 43.1086L-125.395 43.1142L-125.385 43.1195L-124.924 42.232ZM-128.764 38.584L-129.624 39.0933L-129.62 39.1011L-128.764 38.584ZM-130.156 19.672V18.672H-131.156V19.672H-130.156ZM-122.812 19.672H-121.812V18.672H-122.812V19.672ZM-122.428 35.176L-123.342 35.5821L-123.332 35.6029L-123.322 35.6232L-122.428 35.176ZM-121.18 36.52L-120.673 35.6581L-121.18 36.52ZM-116.62 35.992L-115.896 36.6817L-115.888 36.6733L-115.88 36.6647L-116.62 35.992ZM-115.66 19.672V18.672H-116.66V19.672H-115.66ZM-108.316 19.672H-107.316V18.672H-108.316V19.672ZM-109.708 38.584L-108.852 39.1011L-108.847 39.0933L-109.708 38.584ZM-113.548 42.232L-113.08 43.1158L-113.073 43.1122L-113.067 43.1086L-113.548 42.232ZM-119.212 42.528C-121.219 42.528 -122.961 42.1246 -124.463 41.3445L-125.385 43.1195C-123.559 44.0674 -121.493 44.528 -119.212 44.528V42.528ZM-124.443 41.3554C-125.926 40.5409 -127.075 39.4464 -127.908 38.0669L-129.62 39.1011C-128.597 40.7936 -127.185 42.1311 -125.405 43.1086L-124.443 41.3554ZM-127.903 38.0747C-128.731 36.6769 -129.156 35.0644 -129.156 33.208H-131.156C-131.156 35.3836 -130.653 37.3551 -129.624 39.0933L-127.903 38.0747ZM-129.156 33.208V19.672H-131.156V33.208H-129.156ZM-130.156 20.672H-122.812V18.672H-130.156V20.672ZM-123.812 19.672V33.112H-121.812V19.672H-123.812ZM-123.812 33.112C-123.812 34.0156 -123.668 34.8488 -123.342 35.5821L-121.514 34.7699C-121.7 34.3512 -121.812 33.8084 -121.812 33.112H-123.812ZM-123.322 35.6232C-122.95 36.3682 -122.401 36.9619 -121.687 37.3819L-120.673 35.6581C-121.047 35.4381 -121.33 35.1358 -121.533 34.7288L-123.322 35.6232ZM-121.687 37.3819C-120.959 37.8101 -120.12 38 -119.212 38V36C-119.84 36 -120.313 35.8699 -120.673 35.6581L-121.687 37.3819ZM-119.212 38C-117.901 38 -116.757 37.5861 -115.896 36.6817L-117.344 35.3023C-117.763 35.7419 -118.346 36 -119.212 36V38ZM-115.88 36.6647C-115.03 35.7298 -114.66 34.5053 -114.66 33.112H-116.66C-116.66 34.1507 -116.93 34.8462 -117.36 35.3193L-115.88 36.6647ZM-114.66 33.112V19.672H-116.66V33.112H-114.66ZM-115.66 20.672H-108.316V18.672H-115.66V20.672ZM-109.316 19.672V33.16H-107.316V19.672H-109.316ZM-109.316 33.16C-109.316 35.0515 -109.743 36.6794 -110.568 38.0747L-108.847 39.0933C-107.817 37.3526 -107.316 35.3645 -107.316 33.16H-109.316ZM-110.564 38.0669C-111.397 39.4464 -112.545 40.5409 -114.029 41.3554L-113.067 43.1086C-111.286 42.1311 -109.875 40.7936 -108.852 39.1011L-110.564 38.0669ZM-114.016 41.3482C-115.482 42.1244 -117.205 42.528 -119.212 42.528V44.528C-116.931 44.528 -114.878 44.0676 -113.08 43.1158L-114.016 41.3482ZM-99.6729 41.896L-100.201 42.7449L-100.194 42.7493L-99.6729 41.896ZM-103.705 37.576L-104.59 38.0418L-104.583 38.0538L-103.705 37.576ZM-103.705 25.096L-104.583 24.6182L-104.59 24.6303L-103.705 25.096ZM-99.6729 20.776L-100.194 19.9227L-100.201 19.9271L-99.6729 20.776ZM-89.4489 20.104L-89.8779 21.0073L-89.8693 21.0113L-89.4489 20.104ZM-86.2329 22.648L-87.0272 23.2554L-87.0172 23.2685L-87.0068 23.2812L-86.2329 22.648ZM-84.7929 26.296H-83.7929V26.2612L-83.7953 26.2264L-84.7929 26.296ZM-84.7929 36.136L-83.7953 36.2056L-83.7929 36.1708V36.136H-84.7929ZM-86.1849 39.88L-85.3904 40.4875L-85.3821 40.4763L-86.1849 39.88ZM-89.4009 42.52L-88.9624 43.4188L-88.9537 43.4145L-88.945 43.41L-89.4009 42.52ZM-89.7369 36.184L-89.233 37.0478L-89.2198 37.0401L-89.2069 37.032L-89.7369 36.184ZM-87.9129 34.216L-88.7934 33.7419V33.7419L-87.9129 34.216ZM-87.9129 28.504L-88.8073 28.9512L-88.7968 28.9722L-88.7854 28.9926L-87.9129 28.504ZM-89.7369 26.536L-90.2669 27.384L-90.2592 27.3888L-90.2514 27.3935L-89.7369 26.536ZM-95.1609 26.536L-95.6754 25.6785L-95.6832 25.6832L-95.6909 25.688L-95.1609 26.536ZM-97.0329 28.504L-97.8991 28.0043L-97.9064 28.017L-97.9133 28.0299L-97.0329 28.504ZM-97.0329 34.168L-97.9133 34.6421L-97.0329 34.168ZM-80.3289 43V44H-79.3289V43H-80.3289ZM-87.5289 43H-88.5289V44H-87.5289V43ZM-87.5289 36.712L-88.5104 36.5207L-88.5289 36.6155V36.712H-87.5289ZM-86.4249 31.048L-85.4433 31.2393L-85.4036 31.0356L-85.4483 30.8328L-86.4249 31.048ZM-87.6729 25.384H-88.6729V25.4929L-88.6494 25.5992L-87.6729 25.384ZM-87.6729 8.152V7.152H-88.6729V8.152H-87.6729ZM-80.3289 8.152H-79.3289V7.152H-80.3289V8.152ZM-93.7689 42.48C-95.8101 42.48 -97.5945 41.9942 -99.1514 41.0427L-100.194 42.7493C-98.2953 43.9098 -96.1437 44.48 -93.7689 44.48V42.48ZM-99.1443 41.0471C-100.688 40.0861 -101.914 38.7766 -102.826 37.0982L-104.583 38.0538C-103.512 40.0234 -102.05 41.5939 -100.201 42.7449L-99.1443 41.0471ZM-102.82 37.1103C-103.695 35.448 -104.145 33.5316 -104.145 31.336H-106.145C-106.145 33.8124 -105.635 36.056 -104.59 38.0417L-102.82 37.1103ZM-104.145 31.336C-104.145 29.1404 -103.695 27.224 -102.82 25.5617L-104.59 24.6303C-105.635 26.616 -106.145 28.8596 -106.145 31.336H-104.145ZM-102.826 25.5738C-101.914 23.8954 -100.688 22.5859 -99.1443 21.6249L-100.201 19.9271C-102.05 21.0781 -103.512 22.6486 -104.583 24.6182L-102.826 25.5738ZM-99.1514 21.6293C-97.5945 20.6778 -95.8101 20.192 -93.7689 20.192V18.192C-96.1437 18.192 -98.2953 18.7622 -100.194 19.9227L-99.1514 21.6293ZM-93.7689 20.192C-92.298 20.192 -91.0075 20.4707 -89.8779 21.0073L-89.0198 19.2007C-90.4502 18.5213 -92.0397 18.192 -93.7689 18.192V20.192ZM-89.8693 21.0113C-88.696 21.5551 -87.7552 22.3034 -87.0272 23.2554L-85.4385 22.0405C-86.3745 20.8166 -87.5778 19.8689 -89.0284 19.1967L-89.8693 21.0113ZM-87.0068 23.2812C-86.2754 24.1752 -85.8722 25.1937 -85.7905 26.3656L-83.7953 26.2264C-83.9055 24.6463 -84.4623 23.2328 -85.4589 22.0148L-87.0068 23.2812ZM-85.7929 26.296V36.136H-83.7929V26.296H-85.7929ZM-85.7905 36.0664C-85.873 37.2495 -86.2682 38.3152 -86.9876 39.2837L-85.3821 40.4763C-84.4376 39.2048 -83.9048 37.7745 -83.7953 36.2056L-85.7905 36.0664ZM-86.9792 39.2725C-87.7141 40.2335 -88.6669 41.0205 -89.8568 41.63L-88.945 43.41C-87.5108 42.6755 -86.3197 41.7025 -85.3905 40.4874L-86.9792 39.2725ZM-89.8393 41.6212C-91.002 42.1884 -92.306 42.48 -93.7689 42.48V44.48C-92.0318 44.48 -90.4237 44.1316 -88.9624 43.4188L-89.8393 41.6212ZM-92.4729 37.856C-91.2732 37.856 -90.1804 37.6004 -89.233 37.0478L-90.2407 35.3202C-90.8293 35.6636 -91.5605 35.856 -92.4729 35.856V37.856ZM-89.2069 37.032C-88.285 36.4559 -87.5591 35.6682 -87.0324 34.6901L-88.7934 33.7419C-89.1627 34.4278 -89.6527 34.9521 -90.2669 35.336L-89.2069 37.032ZM-87.0324 34.6901C-86.4948 33.6917 -86.2409 32.5642 -86.2409 31.336H-88.2409C-88.2409 32.2838 -88.435 33.0763 -88.7934 33.7419L-87.0324 34.6901ZM-86.2409 31.336C-86.2409 30.1089 -86.4944 28.9903 -87.0404 28.0154L-88.7854 28.9926C-88.4353 29.6177 -88.2409 30.3871 -88.2409 31.336H-86.2409ZM-87.0184 28.0568C-87.5198 27.0541 -88.2598 26.256 -89.2224 25.6785L-90.2514 27.3935C-89.6139 27.7759 -89.138 28.2899 -88.8073 28.9512L-87.0184 28.0568ZM-89.2069 25.688C-90.1539 25.0961 -91.2386 24.816 -92.4249 24.816V26.816C-91.5632 26.816 -90.8559 27.0159 -90.2669 27.384L-89.2069 25.688ZM-92.4249 24.816C-93.6119 24.816 -94.705 25.0963 -95.6754 25.6785L-94.6464 27.3935C-94.0167 27.0157 -93.2859 26.816 -92.4249 26.816V24.816ZM-95.6909 25.688C-96.6062 26.2601 -97.3423 27.0393 -97.8991 28.0043L-96.1667 29.0037C-95.7634 28.3047 -95.2516 27.7719 -94.6309 27.384L-95.6909 25.688ZM-97.9133 28.0299C-98.4487 29.0241 -98.7049 30.1343 -98.7049 31.336H-96.7049C-96.7049 30.4257 -96.5131 29.6479 -96.1524 28.9781L-97.9133 28.0299ZM-98.7049 31.336C-98.7049 32.5377 -98.4487 33.6479 -97.9133 34.6421L-96.1524 33.6939C-96.5131 33.0241 -96.7049 32.2463 -96.7049 31.336H-98.7049ZM-97.9133 34.6421C-97.3812 35.6303 -96.6317 36.4197 -95.6754 36.9935L-94.6464 35.2785C-95.2901 34.8923 -95.7885 34.3697 -96.1524 33.6939L-97.9133 34.6421ZM-95.6754 36.9935C-94.71 37.5727 -93.6342 37.856 -92.4729 37.856V35.856C-93.2956 35.856 -94.0117 35.6593 -94.6464 35.2785L-95.6754 36.9935ZM-80.3289 42H-87.5289V44H-80.3289V42ZM-86.5289 43V36.712H-88.5289V43H-86.5289ZM-86.5473 36.9033L-85.4433 31.2393L-87.4064 30.8567L-88.5104 36.5207L-86.5473 36.9033ZM-85.4483 30.8328L-86.6963 25.1688L-88.6494 25.5992L-87.4014 31.2632L-85.4483 30.8328ZM-86.6729 25.384V8.152H-88.6729V25.384H-86.6729ZM-87.6729 9.152H-80.3289V7.152H-87.6729V9.152ZM-81.3289 8.152V43H-79.3289V8.152H-81.3289ZM-70.742 43.048L-71.0011 44.0139L-70.9954 44.0154L-70.742 43.048ZM-74.438 41.56L-74.9525 42.4175L-74.9382 42.4261L-74.9236 42.4342L-74.438 41.56ZM-77.318 39.256L-78.0291 38.5529L-78.7018 39.2334L-78.0518 39.9354L-77.318 39.256ZM-73.142 35.032L-72.4072 34.3537L-73.1172 33.5845L-73.8531 34.3289L-73.142 35.032ZM-70.406 37L-70.8198 37.9104L-70.8082 37.9156L-70.7966 37.9206L-70.406 37ZM-64.982 37.288L-65.4526 36.4056L-65.4655 36.4125L-65.4781 36.4198L-64.982 37.288ZM-65.126 34.936L-65.633 35.7979L-65.6037 35.8152L-65.5732 35.8304L-65.126 34.936ZM-67.238 34.12L-67.5221 35.0788L-67.5056 35.0837L-67.489 35.088L-67.238 34.12ZM-72.71 32.104L-72.2002 31.2437L-72.71 32.104ZM-74.822 29.992L-75.6847 30.4977L-75.6808 30.5044L-75.6768 30.511L-74.822 29.992ZM-74.486 22.6L-73.669 23.1767L-73.6613 23.1655L-74.486 22.6ZM-71.222 19.96L-71.6358 19.0496L-71.222 19.96ZM-60.806 20.056L-61.1956 20.977L-61.1851 20.9814L-61.1744 20.9857L-60.806 20.056ZM-56.678 23.08L-55.9669 23.7831L-55.3467 23.1558L-55.8917 22.4622L-56.678 23.08ZM-60.854 27.304L-61.6152 27.9525L-60.9088 28.7818L-60.1429 28.0071L-60.854 27.304ZM-63.35 25.48L-63.7157 26.4108L-63.7047 26.415L-63.35 25.48ZM-67.862 25.336L-67.3879 26.2165L-67.3625 26.2028L-67.3379 26.1877L-67.862 25.336ZM-65.558 28.264L-65.809 29.232L-65.558 28.264ZM-62.822 29.08L-62.5058 28.1313L-62.822 29.08ZM-60.086 30.376L-59.5532 29.5298L-60.086 30.376ZM-57.974 32.584L-58.8367 33.0897L-58.8328 33.0964L-58.8288 33.103L-57.974 32.584ZM-59.75 41.56L-60.364 40.7706L-60.3711 40.7763L-59.75 41.56ZM-66.662 42.576C-67.9517 42.576 -69.2265 42.4112 -70.4886 42.0806L-70.9954 44.0154C-69.5695 44.3888 -68.1243 44.576 -66.662 44.576V42.576ZM-70.4829 42.0822C-71.7183 41.7507 -72.874 41.2849 -73.9524 40.6858L-74.9236 42.4342C-73.698 43.1151 -72.3897 43.6413 -71.0011 44.0138L-70.4829 42.0822ZM-73.9235 40.7025C-74.9711 40.0739 -75.8551 39.364 -76.5842 38.5766L-78.0518 39.9354C-77.1809 40.876 -76.1449 41.7021 -74.9525 42.4175L-73.9235 40.7025ZM-76.6069 39.9591L-72.4309 35.7351L-73.8531 34.3289L-78.0291 38.5529L-76.6069 39.9591ZM-73.8768 35.7103C-73.0161 36.6427 -71.9942 37.3766 -70.8198 37.9104L-69.9922 36.0896C-70.9298 35.6634 -71.7319 35.0853 -72.4072 34.3537L-73.8768 35.7103ZM-70.7966 37.9206C-69.6065 38.4254 -68.3203 38.672 -66.95 38.672V36.672C-68.0757 36.672 -69.0935 36.4706 -70.0155 36.0794L-70.7966 37.9206ZM-66.95 38.672C-66.0158 38.672 -65.1549 38.5386 -64.4859 38.1562L-65.4781 36.4198C-65.7051 36.5494 -66.1562 36.672 -66.95 36.672V38.672ZM-64.5114 38.1704C-63.7889 37.785 -63.262 37.1351 -63.262 36.232H-65.262C-65.262 36.2537 -65.2648 36.2624 -65.2648 36.2627C-65.265 36.2632 -65.2651 36.2634 -65.2652 36.2637C-65.2654 36.264 -65.2661 36.2656 -65.2682 36.2687C-65.2755 36.2793 -65.3167 36.3332 -65.4526 36.4056L-64.5114 38.1704ZM-63.262 36.232C-63.262 35.769 -63.3806 35.3193 -63.646 34.9213C-63.9071 34.5296 -64.2722 34.2449 -64.6788 34.0416L-65.5732 35.8304C-65.4038 35.9151 -65.3369 35.9904 -65.31 36.0307C-65.2874 36.0647 -65.262 36.119 -65.262 36.232H-63.262ZM-64.619 34.0741C-65.2685 33.692 -66.0671 33.3905 -66.987 33.152L-67.489 35.088C-66.6809 35.2975 -66.0715 35.54 -65.633 35.7979L-64.619 34.0741ZM-66.9539 33.1612C-67.8167 32.9056 -68.7276 32.6339 -69.6866 32.3462L-70.2614 34.2618C-69.3004 34.5501 -68.3873 34.8224 -67.5221 35.0788L-66.9539 33.1612ZM-69.6866 32.3462C-70.5686 32.0816 -71.406 31.7144 -72.2002 31.2437L-73.2198 32.9643C-72.286 33.5176 -71.2993 33.9504 -70.2614 34.2618L-69.6866 32.3462ZM-72.2002 31.2437C-72.9167 30.8191 -73.5046 30.235 -73.9672 29.473L-75.6768 30.511C-75.0514 31.541 -74.2313 32.3649 -73.2198 32.9643L-72.2002 31.2437ZM-73.9593 29.4863C-74.3897 28.752 -74.638 27.7717 -74.638 26.488H-76.638C-76.638 28.0203 -76.3423 29.376 -75.6847 30.4977L-73.9593 29.4863ZM-74.638 26.488C-74.638 25.1627 -74.3029 24.0746 -73.669 23.1767L-75.303 22.0233C-76.2051 23.3014 -76.638 24.8053 -76.638 26.488H-74.638ZM-73.6613 23.1655C-73.01 22.2157 -72.0739 21.4457 -70.8082 20.8704L-71.6358 19.0496C-73.1861 19.7543 -74.426 20.7443 -75.3107 22.0345L-73.6613 23.1655ZM-70.8082 20.8704C-69.5556 20.301 -68.0541 20 -66.278 20V18C-68.2779 18 -70.0724 18.339 -71.6358 19.0496L-70.8082 20.8704ZM-66.278 20C-64.4147 20 -62.7248 20.33 -61.1956 20.977L-60.4164 19.135C-62.2152 18.374 -64.1733 18 -66.278 18V20ZM-61.1744 20.9857C-59.6313 21.5971 -58.4037 22.5023 -57.4643 23.6978L-55.8917 22.4622C-57.0643 20.9697 -58.5887 19.8589 -60.4376 19.1263L-61.1744 20.9857ZM-57.3891 22.3769L-61.5651 26.6009L-60.1429 28.0071L-55.9669 23.7831L-57.3891 22.3769ZM-60.0928 26.6555C-60.9221 25.6819 -61.8885 24.9649 -62.9953 24.545L-63.7047 26.415C-62.9555 26.6991 -62.2579 27.1981 -61.6152 27.9525L-60.0928 26.6555ZM-62.9843 24.5492C-63.9836 24.1567 -64.9874 23.952 -65.99 23.952V25.952C-65.2646 25.952 -64.5084 26.0993 -63.7157 26.4108L-62.9843 24.5492ZM-65.99 23.952C-66.8921 23.952 -67.7371 24.0849 -68.3861 24.4843L-67.3379 26.1877C-67.1549 26.0751 -66.7519 25.952 -65.99 25.952V23.952ZM-68.3361 24.4555C-68.6681 24.6343 -68.9675 24.886 -69.1803 25.2296C-69.3947 25.5761 -69.486 25.9595 -69.486 26.344H-67.486C-67.486 26.3096 -67.4821 26.2915 -67.4804 26.2854C-67.479 26.2801 -67.4785 26.2804 -67.4797 26.2824C-67.4845 26.29 -67.4719 26.2617 -67.3879 26.2165L-68.3361 24.4555ZM-69.486 26.344C-69.486 27.3029 -68.9008 27.9759 -68.1379 28.3798L-67.2021 26.6122C-67.3768 26.5197 -67.444 26.445 -67.466 26.414C-67.4797 26.3945 -67.486 26.3814 -67.486 26.344H-69.486ZM-68.1379 28.3798C-67.5019 28.7165 -66.7178 28.9964 -65.809 29.232L-65.307 27.296C-66.1262 27.0836 -66.7501 26.8515 -67.2021 26.6122L-68.1379 28.3798ZM-65.809 29.232C-64.9696 29.4496 -64.0795 29.7149 -63.1382 30.0287L-62.5058 28.1313C-63.4845 27.8051 -64.4184 27.5264 -65.307 27.296L-65.809 29.232ZM-63.1382 30.0287C-62.2549 30.3231 -61.4156 30.7206 -60.6188 31.2222L-59.5532 29.5298C-60.4844 28.9434 -61.469 28.4769 -62.5058 28.1313L-63.1382 30.0287ZM-60.6188 31.2222C-59.8978 31.6762 -59.3041 32.2924 -58.8367 33.0897L-57.1113 32.0783C-57.7319 31.0196 -58.5462 30.1638 -59.5532 29.5298L-60.6188 31.2222ZM-58.8288 33.103C-58.4107 33.7916 -58.158 34.7765 -58.158 36.136H-56.158C-56.158 34.5515 -56.4493 33.1684 -57.1192 32.065L-58.8288 33.103ZM-58.158 36.136C-58.158 38.113 -58.8901 39.6243 -60.3639 40.7706L-59.1361 42.3494C-57.1539 40.8077 -56.158 38.703 -56.158 36.136H-58.158ZM-60.3711 40.7763C-61.8378 41.9386 -63.8978 42.576 -66.662 42.576V44.576C-63.6022 44.576 -61.0542 43.8694 -59.1289 42.3437L-60.3711 40.7763ZM-48.7576 43.048L-49.0168 44.0139L-49.011 44.0154L-48.7576 43.048ZM-52.4536 41.56L-52.9681 42.4175L-52.9538 42.4261L-52.9393 42.4342L-52.4536 41.56ZM-55.3336 39.256L-56.0448 38.5529L-56.7174 39.2334L-56.0674 39.9354L-55.3336 39.256ZM-51.1576 35.032L-50.4228 34.3537L-51.1328 33.5845L-51.8688 34.3289L-51.1576 35.032ZM-48.4216 37L-48.8354 37.9104L-48.8239 37.9156L-48.8122 37.9206L-48.4216 37ZM-42.9976 37.288L-43.4682 36.4056L-43.4811 36.4125L-43.4938 36.4198L-42.9976 37.288ZM-43.1416 34.936L-43.6487 35.7979L-43.6193 35.8152L-43.5888 35.8304L-43.1416 34.936ZM-45.2536 34.12L-45.5377 35.0788L-45.5212 35.0837L-45.5046 35.088L-45.2536 34.12ZM-50.7256 32.104L-50.2158 31.2437L-50.7256 32.104ZM-52.8376 29.992L-53.7003 30.4977L-53.6964 30.5044L-53.6924 30.511L-52.8376 29.992ZM-52.5016 22.6L-51.6846 23.1767L-51.6769 23.1655L-52.5016 22.6ZM-49.2376 19.96L-49.6514 19.0496L-49.2376 19.96ZM-38.8216 20.056L-39.2113 20.977L-39.2007 20.9814L-39.19 20.9857L-38.8216 20.056ZM-34.6936 23.08L-33.9825 23.7831L-33.3623 23.1558L-33.9073 22.4622L-34.6936 23.08ZM-38.8696 27.304L-39.6309 27.9525L-38.9244 28.7818L-38.1585 28.0071L-38.8696 27.304ZM-41.3656 25.48L-41.7313 26.4108L-41.7203 26.415L-41.3656 25.48ZM-45.8776 25.336L-45.4035 26.2165L-45.3781 26.2028L-45.3535 26.1877L-45.8776 25.336ZM-43.5736 28.264L-43.8246 29.232L-43.5736 28.264ZM-40.8376 29.08L-40.5214 28.1313L-40.8376 29.08ZM-38.1016 30.376L-37.5688 29.5298L-38.1016 30.376ZM-35.9896 32.584L-36.8523 33.0897L-36.8484 33.0964L-36.8444 33.103L-35.9896 32.584ZM-37.7656 41.56L-38.3796 40.7706L-38.3867 40.7763L-37.7656 41.56ZM-44.6776 42.576C-45.9673 42.576 -47.2422 42.4112 -48.5043 42.0806L-49.011 44.0154C-47.5851 44.3888 -46.14 44.576 -44.6776 44.576V42.576ZM-48.4985 42.0822C-49.734 41.7507 -50.8896 41.2849 -51.968 40.6858L-52.9393 42.4342C-51.7136 43.1151 -50.4053 43.6413 -49.0168 44.0138L-48.4985 42.0822ZM-51.9391 40.7025C-52.9867 40.0739 -53.8707 39.364 -54.5999 38.5766L-56.0674 39.9354C-55.1965 40.876 -54.1605 41.7021 -52.9681 42.4175L-51.9391 40.7025ZM-54.6225 39.9591L-50.4465 35.7351L-51.8688 34.3289L-56.0448 38.5529L-54.6225 39.9591ZM-51.8924 35.7103C-51.0317 36.6427 -50.0098 37.3766 -48.8354 37.9104L-48.0078 36.0896C-48.9455 35.6634 -49.7475 35.0853 -50.4228 34.3537L-51.8924 35.7103ZM-48.8122 37.9206C-47.6221 38.4254 -46.3359 38.672 -44.9656 38.672V36.672C-46.0913 36.672 -47.1091 36.4706 -48.0311 36.0794L-48.8122 37.9206ZM-44.9656 38.672C-44.0314 38.672 -43.1705 38.5386 -42.5015 38.1562L-43.4938 36.4198C-43.7207 36.5494 -44.1719 36.672 -44.9656 36.672V38.672ZM-42.527 38.1704C-41.8046 37.785 -41.2776 37.1351 -41.2776 36.232H-43.2776C-43.2776 36.2537 -43.2804 36.2624 -43.2805 36.2627C-43.2806 36.2632 -43.2807 36.2634 -43.2809 36.2637C-43.281 36.264 -43.2818 36.2656 -43.2838 36.2687C-43.2911 36.2793 -43.3324 36.3332 -43.4682 36.4056L-42.527 38.1704ZM-41.2776 36.232C-41.2776 35.769 -41.3962 35.3193 -41.6616 34.9213C-41.9227 34.5296 -42.2878 34.2449 -42.6944 34.0416L-43.5888 35.8304C-43.4195 35.9151 -43.3525 35.9904 -43.3257 36.0307C-43.303 36.0647 -43.2776 36.119 -43.2776 36.232H-41.2776ZM-42.6346 34.0741C-43.2841 33.692 -44.0828 33.3905 -45.0027 33.152L-45.5046 35.088C-44.6965 35.2975 -44.0872 35.54 -43.6487 35.7979L-42.6346 34.0741ZM-44.9695 33.1612C-45.8323 32.9056 -46.7432 32.6339 -47.7023 32.3462L-48.277 34.2618C-47.316 34.5501 -46.4029 34.8224 -45.5377 35.0788L-44.9695 33.1612ZM-47.7023 32.3462C-48.5843 32.0816 -49.4216 31.7144 -50.2158 31.2437L-51.2354 32.9643C-50.3017 33.5176 -49.315 33.9504 -48.277 34.2618L-47.7023 32.3462ZM-50.2158 31.2437C-50.9323 30.8191 -51.5202 30.235 -51.9828 29.473L-53.6924 30.511C-53.067 31.541 -52.247 32.3649 -51.2354 32.9643L-50.2158 31.2437ZM-51.9749 29.4863C-52.4053 28.752 -52.6536 27.7717 -52.6536 26.488H-54.6536C-54.6536 28.0203 -54.3579 29.376 -53.7003 30.4977L-51.9749 29.4863ZM-52.6536 26.488C-52.6536 25.1627 -52.3185 24.0746 -51.6847 23.1767L-53.3186 22.0233C-54.2208 23.3014 -54.6536 24.8053 -54.6536 26.488H-52.6536ZM-51.6769 23.1655C-51.0256 22.2157 -50.0895 21.4457 -48.8238 20.8704L-49.6514 19.0496C-51.2017 19.7543 -52.4417 20.7443 -53.3264 22.0345L-51.6769 23.1655ZM-48.8238 20.8704C-47.5712 20.301 -46.0697 20 -44.2936 20V18C-46.2935 18 -48.0881 18.339 -49.6514 19.0496L-48.8238 20.8704ZM-44.2936 20C-42.4303 20 -40.7404 20.33 -39.2113 20.977L-38.432 19.135C-40.2309 18.374 -42.189 18 -44.2936 18V20ZM-39.19 20.9857C-37.647 21.5971 -36.4193 22.5023 -35.4799 23.6978L-33.9073 22.4622C-35.08 20.9697 -36.6043 19.8589 -38.4533 19.1263L-39.19 20.9857ZM-35.4048 22.3769L-39.5808 26.6009L-38.1585 28.0071L-33.9825 23.7831L-35.4048 22.3769ZM-38.1084 26.6555C-38.9378 25.6819 -39.9041 24.9649 -41.011 24.545L-41.7203 26.415C-40.9712 26.6991 -40.2735 27.1981 -39.6309 27.9525L-38.1084 26.6555ZM-41 24.5492C-41.9992 24.1567 -43.003 23.952 -44.0056 23.952V25.952C-43.2803 25.952 -42.5241 26.0993 -41.7313 26.4108L-41 24.5492ZM-44.0056 23.952C-44.9077 23.952 -45.7527 24.0849 -46.4017 24.4843L-45.3535 26.1877C-45.1705 26.0751 -44.7675 25.952 -44.0056 25.952V23.952ZM-46.3517 24.4555C-46.6837 24.6343 -46.9832 24.886 -47.1959 25.2296C-47.4104 25.5761 -47.5016 25.9595 -47.5016 26.344H-45.5016C-45.5016 26.3096 -45.4977 26.2915 -45.4961 26.2854C-45.4947 26.2801 -45.4942 26.2804 -45.4954 26.2824C-45.5001 26.29 -45.4875 26.2617 -45.4035 26.2165L-46.3517 24.4555ZM-47.5016 26.344C-47.5016 27.3029 -46.9164 27.9759 -46.1535 28.3798L-45.2177 26.6122C-45.3924 26.5197 -45.4596 26.445 -45.4816 26.414C-45.4954 26.3945 -45.5016 26.3814 -45.5016 26.344H-47.5016ZM-46.1535 28.3798C-45.5175 28.7165 -44.7334 28.9964 -43.8246 29.232L-43.3227 27.296C-44.1418 27.0836 -44.7657 26.8515 -45.2177 26.6122L-46.1535 28.3798ZM-43.8246 29.232C-42.9852 29.4496 -42.0951 29.7149 -41.1539 30.0287L-40.5214 28.1313C-41.5001 27.8051 -42.434 27.5264 -43.3227 27.296L-43.8246 29.232ZM-41.1539 30.0287C-40.2706 30.3231 -39.4312 30.7206 -38.6344 31.2222L-37.5688 29.5298C-38.5 28.9434 -39.4847 28.4769 -40.5214 28.1313L-41.1539 30.0287ZM-38.6344 31.2222C-37.9134 31.6762 -37.3197 32.2924 -36.8523 33.0897L-35.1269 32.0783C-35.7475 31.0196 -36.5618 30.1638 -37.5688 29.5298L-38.6344 31.2222ZM-36.8444 33.103C-36.4263 33.7916 -36.1736 34.7765 -36.1736 36.136H-34.1736C-34.1736 34.5515 -34.4649 33.1684 -35.1348 32.065L-36.8444 33.103ZM-36.1736 36.136C-36.1736 38.113 -36.9057 39.6243 -38.3796 40.7706L-37.1517 42.3494C-35.1696 40.8077 -34.1736 38.703 -34.1736 36.136H-36.1736ZM-38.3867 40.7763C-39.8535 41.9386 -41.9134 42.576 -44.6776 42.576V44.576C-41.6178 44.576 -39.0698 43.8694 -37.1445 42.3437L-38.3867 40.7763ZM-12.9286 43L-13.8806 43.3061L-13.6575 44H-12.9286V43ZM-23.8246 9.112V8.112H-25.1966L-24.7766 9.41809L-23.8246 9.112ZM-16.3366 9.112L-15.3803 8.81965L-15.5966 8.112H-16.3366V9.112ZM-8.36862 35.176V36.176H-7.01724L-7.41232 34.8836L-8.36862 35.176ZM-11.2966 35.176L-12.2549 34.8901L-12.6385 36.176H-11.2966V35.176ZM-3.52063 9.112V8.112H-4.26584L-4.47888 8.82611L-3.52063 9.112ZM2.38336 9.112L3.34164 8.82611L3.1286 8.112H2.38336V9.112ZM10.1594 35.176V36.176H11.5013L11.1176 34.8901L10.1594 35.176ZM7.27939 35.176L6.32257 34.8853L5.93036 36.176H7.27939V35.176ZM15.1994 9.112V8.112H14.4581L14.2426 8.82126L15.1994 9.112ZM22.6394 9.112L23.5914 9.41809L24.0113 8.112H22.6394V9.112ZM11.7434 43V44H12.4723L12.6954 43.3061L11.7434 43ZM5.83939 43L4.88159 43.2875L5.09549 44H5.83939V43ZM-1.98462 16.936V15.936H-3.32889L-2.94241 17.2235L-1.98462 16.936ZM0.799377 16.936L1.75714 17.2235L2.14365 15.936H0.799377V16.936ZM-7.02463 43V44H-6.28073L-6.06683 43.2875L-7.02463 43ZM-11.9766 42.6939L-22.8726 8.8059L-24.7766 9.41809L-13.8806 43.3061L-11.9766 42.6939ZM-23.8246 10.112H-16.3366V8.112H-23.8246V10.112ZM-17.2929 9.40435L-9.32492 35.4684L-7.41232 34.8836L-15.3803 8.81965L-17.2929 9.40435ZM-8.36862 34.176H-11.2966V36.176H-8.36862V34.176ZM-10.3383 35.4619L-2.56235 9.39789L-4.47888 8.82611L-12.2549 34.8901L-10.3383 35.4619ZM-3.52063 10.112H2.38336V8.112H-3.52063V10.112ZM1.42511 9.39789L9.20111 35.4619L11.1176 34.8901L3.34164 8.82611L1.42511 9.39789ZM10.1594 34.176H7.27939V36.176H10.1594V34.176ZM8.23618 35.4667L16.1562 9.40274L14.2426 8.82126L6.32257 34.8853L8.23618 35.4667ZM15.1994 10.112H22.6394V8.112H15.1994V10.112ZM21.6874 8.8059L10.7914 42.6939L12.6954 43.3061L23.5914 9.41809L21.6874 8.8059ZM11.7434 42H5.83939V44H11.7434V42ZM6.79715 42.7125L-1.02686 16.6485L-2.94241 17.2235L4.88159 43.2875L6.79715 42.7125ZM-1.98462 17.936H0.799377V15.936H-1.98462V17.936ZM-0.158386 16.6485L-7.98239 42.7125L-6.06683 43.2875L1.75714 17.2235L-0.158386 16.6485ZM-7.02463 42H-12.9286V44H-7.02463V42ZM27.7491 41.944L27.2561 42.814L27.2646 42.8189L27.2733 42.8235L27.7491 41.944ZM23.1891 37.528L24.0453 37.0113L23.1891 37.528ZM23.1891 25.096L22.3369 24.5727L23.1891 25.096ZM27.7491 20.776L28.2311 21.6523L28.2421 21.646L27.7491 20.776ZM45.3651 25.096L44.5089 25.6127L44.513 25.6193L45.3651 25.096ZM45.3651 37.528L46.2213 38.0447V38.0447L45.3651 37.528ZM40.8051 41.944L41.2871 42.8203L41.2981 42.814L40.8051 41.944ZM37.0611 36.184L37.5497 37.0565L37.5628 37.0492L37.5756 37.0415L37.0611 36.184ZM38.8851 34.216L37.9974 33.7557L37.994 33.7622L37.9907 33.7688L38.8851 34.216ZM38.8851 28.456L38.0046 28.9301L38.0086 28.9374L38.0126 28.9446L38.8851 28.456ZM37.0131 26.536L36.4831 27.384L36.5035 27.3967L36.5245 27.4085L37.0131 26.536ZM31.5411 26.536L32.0297 27.4085L32.0428 27.4012L32.0556 27.3935L31.5411 26.536ZM29.6691 28.456L30.5496 28.9301L29.6691 28.456ZM29.6691 34.216L28.7814 34.6763L28.785 34.6832L28.7887 34.6901L29.6691 34.216ZM31.5411 36.184L31.0266 37.0415L31.0395 37.0492L31.0525 37.0565L31.5411 36.184ZM34.2771 42.528C32.0294 42.528 30.0191 42.035 28.2249 41.0645L27.2733 42.8235C29.3832 43.965 31.7249 44.528 34.2771 44.528V42.528ZM28.2421 41.074C26.4687 40.069 25.075 38.7176 24.0453 37.0113L22.3329 38.0447C23.5433 40.0504 25.1895 41.643 27.2561 42.814L28.2421 41.074ZM24.0453 37.0113C23.0254 35.3211 22.5091 33.4218 22.5091 31.288H20.5091C20.5091 33.7622 21.1129 36.0229 22.3329 38.0447L24.0453 37.0113ZM22.5091 31.288C22.5091 29.1541 23.0254 27.2738 24.0413 25.6193L22.3369 24.5727C21.1129 26.5662 20.5091 28.8139 20.5091 31.288H22.5091ZM24.0413 25.6193C25.0683 23.9467 26.4592 22.6267 28.231 21.6522L27.2672 19.8998C25.199 21.0373 23.5499 22.5973 22.3369 24.5727L24.0413 25.6193ZM28.2421 21.646C29.9968 20.6517 31.9998 20.144 34.2771 20.144V18.144C31.6904 18.144 29.3414 18.7243 27.2561 19.906L28.2421 21.646ZM34.2771 20.144C36.5595 20.144 38.5666 20.6381 40.3232 21.6042L41.287 19.8518C39.2037 18.7059 36.8587 18.144 34.2771 18.144V20.144ZM40.3232 21.6042C42.0907 22.5764 43.4809 23.9091 44.5089 25.6127L46.2213 24.5793C45.0093 22.5709 43.3595 20.9916 41.287 19.8518L40.3232 21.6042ZM44.513 25.6193C45.5289 27.2738 46.0451 29.1541 46.0451 31.288H48.0451C48.0451 28.8139 47.4413 26.5662 46.2173 24.5727L44.513 25.6193ZM46.0451 31.288C46.0451 33.4218 45.5289 35.3211 44.5089 37.0113L46.2213 38.0447C47.4414 36.0229 48.0451 33.7622 48.0451 31.288H46.0451ZM44.5089 37.0113C43.4793 38.7176 42.0855 40.069 40.3121 41.074L41.2981 42.814C43.3647 41.643 45.011 40.0504 46.2213 38.0447L44.5089 37.0113ZM40.3232 41.0678C38.5666 42.0339 36.5595 42.528 34.2771 42.528V44.528C36.8587 44.528 39.2037 43.9661 41.287 42.8202L40.3232 41.0678ZM34.2771 37.856C35.478 37.856 36.5791 37.6001 37.5497 37.0565L36.5725 35.3115C35.9431 35.6639 35.1883 35.856 34.2771 35.856V37.856ZM37.5756 37.0415C38.5382 36.464 39.2782 35.6659 39.7795 34.6632L37.9907 33.7688C37.66 34.4301 37.1841 34.944 36.5466 35.3265L37.5756 37.0415ZM39.7729 34.6763C40.303 33.654 40.5571 32.5171 40.5571 31.288H38.5571C38.5571 32.2349 38.3633 33.05 37.9974 33.7557L39.7729 34.6763ZM40.5571 31.288C40.5571 30.0609 40.3036 28.9423 39.7576 27.9674L38.0126 28.9446C38.3627 29.5697 38.5571 30.3391 38.5571 31.288H40.5571ZM39.7656 27.9819C39.2304 26.988 38.4728 26.2073 37.5017 25.6635L36.5245 27.4085C37.1534 27.7607 37.6439 28.26 38.0046 28.9301L39.7656 27.9819ZM37.5431 25.688C36.5913 25.0931 35.4889 24.816 34.2771 24.816V26.816C35.1774 26.816 35.8989 27.0189 36.4831 27.384L37.5431 25.688ZM34.2771 24.816C33.0901 24.816 31.997 25.0963 31.0266 25.6785L32.0556 27.3935C32.6853 27.0157 33.4161 26.816 34.2771 26.816V24.816ZM31.0525 25.6635C30.0814 26.2073 29.3239 26.988 28.7887 27.9819L30.5496 28.9301C30.9104 28.26 31.4008 27.7607 32.0297 27.4085L31.0525 25.6635ZM28.7887 27.9819C28.251 28.9803 27.9971 30.1078 27.9971 31.336H29.9971C29.9971 30.3882 30.1912 29.5957 30.5496 28.9301L28.7887 27.9819ZM27.9971 31.336C27.9971 32.5383 28.2535 33.6582 28.7814 34.6763L30.5569 33.7557C30.1888 33.0458 29.9971 32.2457 29.9971 31.336H27.9971ZM28.7887 34.6901C29.3208 35.6783 30.0703 36.4677 31.0266 37.0415L32.0556 35.3265C31.412 34.9403 30.9135 34.4177 30.5496 33.7419L28.7887 34.6901ZM31.0525 37.0565C32.0186 37.5975 33.1024 37.856 34.2771 37.856V35.856C33.4038 35.856 32.6636 35.6665 32.0297 35.3115L31.0525 37.0565ZM50.7014 43H49.7014V44H50.7014V43ZM50.7014 19.672V18.672H49.7014V19.672H50.7014ZM58.0454 19.672H59.0454V18.672H58.0454V19.672ZM58.0454 43V44H59.0454V43H58.0454ZM58.0454 30.184L57.4297 30.972L59.0454 32.2342V30.184H58.0454ZM54.9734 27.784L53.9975 27.5659L53.8596 28.1828L54.3577 28.572L54.9734 27.784ZM58.0454 21.448L58.7677 22.1396L58.0454 21.448ZM66.9734 19.72L66.5837 20.641L66.6047 20.6498L66.6261 20.6577L66.9734 19.72ZM69.2294 21.256L70.0135 21.8765L70.5401 21.2112L69.9693 20.5833L69.2294 21.256ZM64.8614 26.776L64.1214 27.4487L64.9142 28.3207L65.6456 27.3965L64.8614 26.776ZM63.6614 25.96L63.29 26.8885L63.6614 25.96ZM59.1014 26.824L58.3794 26.1321L58.3787 26.1328L59.1014 26.824ZM51.7014 43V19.672H49.7014V43H51.7014ZM50.7014 20.672H58.0454V18.672H50.7014V20.672ZM57.0454 19.672V43H59.0454V19.672H57.0454ZM58.0454 42H50.7014V44H58.0454V42ZM58.661 29.396L55.589 26.996L54.3577 28.572L57.4297 30.972L58.661 29.396ZM55.9493 28.0021C56.5306 25.4017 57.4896 23.4744 58.7677 22.1396L57.3231 20.7564C55.7211 22.4296 54.6322 24.7263 53.9975 27.5659L55.9493 28.0021ZM58.7677 22.1396C59.9773 20.8762 61.6912 20.192 64.0454 20.192V18.192C61.2795 18.192 58.9935 19.0118 57.3231 20.7564L58.7677 22.1396ZM64.0454 20.192C65.0626 20.192 65.9008 20.352 66.5837 20.641L67.363 18.799C66.382 18.384 65.2681 18.192 64.0454 18.192V20.192ZM66.6261 20.6577C67.3348 20.9203 67.9536 21.3392 68.4894 21.9287L69.9693 20.5833C69.2252 19.7648 68.3399 19.1597 67.3207 18.7822L66.6261 20.6577ZM68.4452 20.6355L64.0772 26.1555L65.6456 27.3965L70.0135 21.8765L68.4452 20.6355ZM65.6013 26.1033C65.1708 25.6298 64.641 25.2748 64.0328 25.0315L63.29 26.8885C63.6418 27.0292 63.912 27.2182 64.1214 27.4487L65.6013 26.1033ZM64.0328 25.0315C63.4158 24.7847 62.7426 24.672 62.0294 24.672V26.672C62.5322 26.672 62.947 26.7513 63.29 26.8885L64.0328 25.0315ZM62.0294 24.672C60.5835 24.672 59.3316 25.1385 58.3794 26.1321L59.8234 27.5159C60.3431 26.9735 61.0433 26.672 62.0294 26.672V24.672ZM58.3787 26.1328C57.4276 27.1271 57.0454 28.5437 57.0454 30.184H59.0454C59.0454 28.8163 59.3672 27.9929 59.824 27.5152L58.3787 26.1328ZM86.1137 43L85.2848 43.5592L85.5821 44H86.1137V43ZM77.9537 30.904L77.1431 30.3185L76.7343 30.8845L77.1248 31.4632L77.9537 30.904ZM86.0658 19.672V18.672H85.5544L85.2551 19.0865L86.0658 19.672ZM94.2737 19.672L95.0639 20.2849L96.315 18.672H94.2737V19.672ZM84.4818 32.296L83.4849 32.2169L83.22 35.5542L85.2719 32.9089L84.4818 32.296ZM84.7217 29.272L85.5291 28.682L83.9382 26.5049L83.7249 29.1929L84.7217 29.272ZM94.7538 43V44H96.7231L95.5611 42.41L94.7538 43ZM71.1858 43H70.1858V44H71.1858V43ZM71.1858 8.152V7.152H70.1858V8.152H71.1858ZM78.5298 8.152H79.5298V7.152H78.5298V8.152ZM78.5298 43V44H79.5298V43H78.5298ZM86.9427 42.4408L78.7827 30.3448L77.1248 31.4632L85.2848 43.5592L86.9427 42.4408ZM78.7644 31.4895L86.8764 20.2575L85.2551 19.0865L77.1431 30.3185L78.7644 31.4895ZM86.0658 20.672H94.2737V18.672H86.0658V20.672ZM93.4836 19.0591L83.6916 31.6831L85.2719 32.9089L95.0639 20.2849L93.4836 19.0591ZM85.4786 32.3751L85.7186 29.3511L83.7249 29.1929L83.4849 32.2169L85.4786 32.3751ZM83.9144 29.862L93.9464 43.59L95.5611 42.41L85.5291 28.682L83.9144 29.862ZM94.7538 42H86.1137V44H94.7538V42ZM72.1858 43V8.152H70.1858V43H72.1858ZM71.1858 9.152H78.5298V7.152H71.1858V9.152ZM77.5298 8.152V43H79.5298V8.152H77.5298ZM78.5298 42H71.1858V44H78.5298V42ZM100.445 43.048L100.186 44.0139L100.192 44.0154L100.445 43.048ZM96.7495 41.56L96.235 42.4175L96.2493 42.4261L96.2639 42.4342L96.7495 41.56ZM93.8695 39.256L93.1584 38.5529L92.4857 39.2334L93.1357 39.9354L93.8695 39.256ZM98.0455 35.032L98.7803 34.3537L98.0703 33.5845L97.3344 34.3289L98.0455 35.032ZM100.781 37L100.368 37.9104L100.379 37.9156L100.391 37.9206L100.781 37ZM106.206 37.288L105.735 36.4056L105.722 36.4125L105.709 36.4198L106.206 37.288ZM106.061 34.936L105.554 35.7979L105.584 35.8152L105.614 35.8304L106.061 34.936ZM103.949 34.12L103.665 35.0788L103.682 35.0837L103.699 35.088L103.949 34.12ZM98.4775 32.104L98.9873 31.2437L98.4775 32.104ZM96.3655 29.992L95.5028 30.4977L95.5067 30.5044L95.5107 30.511L96.3655 29.992ZM96.7015 22.6L97.5186 23.1767L97.5262 23.1655L96.7015 22.6ZM99.9655 19.96L99.5517 19.0496L99.9655 19.96ZM110.382 20.056L109.992 20.977L110.002 20.9814L110.013 20.9857L110.382 20.056ZM114.509 23.08L115.221 23.7831L115.841 23.1558L115.296 22.4622L114.509 23.08ZM110.333 27.304L109.572 27.9525L110.279 28.7818L111.045 28.0071L110.333 27.304ZM107.837 25.48L107.472 26.4108L107.483 26.415L107.837 25.48ZM103.326 25.336L103.8 26.2165L103.825 26.2028L103.85 26.1877L103.326 25.336ZM105.629 28.264L105.379 29.232L105.629 28.264ZM108.366 29.08L108.682 28.1313L108.366 29.08ZM111.102 30.376L111.634 29.5298L111.102 30.376ZM113.214 32.584L112.351 33.0897L112.355 33.0964L112.359 33.103L113.214 32.584ZM111.438 41.56L110.824 40.7706L110.816 40.7763L111.438 41.56ZM104.526 42.576C103.236 42.576 101.961 42.4112 100.699 42.0806L100.192 44.0154C101.618 44.3888 103.063 44.576 104.526 44.576V42.576ZM100.705 42.0822C99.4691 41.7507 98.3135 41.2849 97.2351 40.6858L96.2639 42.4342C97.4895 43.1151 98.7979 43.6413 100.186 44.0138L100.705 42.0822ZM97.264 40.7025C96.2164 40.0739 95.3324 39.364 94.6033 38.5766L93.1357 39.9354C94.0066 40.876 95.0426 41.7021 96.235 42.4175L97.264 40.7025ZM94.5806 39.9591L98.7566 35.7351L97.3344 34.3289L93.1584 38.5529L94.5806 39.9591ZM97.3107 35.7103C98.1714 36.6427 99.1933 37.3766 100.368 37.9104L101.195 36.0896C100.258 35.6634 99.4556 35.0853 98.7803 34.3537L97.3107 35.7103ZM100.391 37.9206C101.581 38.4254 102.867 38.672 104.237 38.672V36.672C103.112 36.672 102.094 36.4706 101.172 36.0794L100.391 37.9206ZM104.237 38.672C105.172 38.672 106.033 38.5386 106.702 38.1562L105.709 36.4198C105.482 36.5494 105.031 36.672 104.237 36.672V38.672ZM106.676 38.1704C107.399 37.785 107.926 37.1351 107.926 36.232H105.926C105.926 36.2537 105.923 36.2624 105.923 36.2627C105.923 36.2632 105.922 36.2634 105.922 36.2637C105.922 36.264 105.921 36.2656 105.919 36.2687C105.912 36.2793 105.871 36.3332 105.735 36.4056L106.676 38.1704ZM107.926 36.232C107.926 35.769 107.807 35.3193 107.542 34.9213C107.28 34.5296 106.915 34.2449 106.509 34.0416L105.614 35.8304C105.784 35.9151 105.851 35.9904 105.877 36.0307C105.9 36.0647 105.926 36.119 105.926 36.232H107.926ZM106.569 34.0741C105.919 33.692 105.12 33.3905 104.2 33.152L103.699 35.088C104.507 35.2975 105.116 35.54 105.554 35.7979L106.569 34.0741ZM104.234 33.1612C103.371 32.9056 102.46 32.6339 101.501 32.3462L100.926 34.2618C101.887 34.5501 102.8 34.8224 103.665 35.0788L104.234 33.1612ZM101.501 32.3462C100.619 32.0816 99.7815 31.7144 98.9873 31.2437L97.9677 32.9643C98.9015 33.5176 99.8882 33.9504 100.926 34.2618L101.501 32.3462ZM98.9873 31.2437C98.2708 30.8191 97.6829 30.235 97.2203 29.473L95.5107 30.511C96.1361 31.541 96.9562 32.3649 97.9677 32.9643L98.9873 31.2437ZM97.2282 29.4863C96.7978 28.752 96.5495 27.7717 96.5495 26.488H94.5495C94.5495 28.0203 94.8452 29.376 95.5028 30.4977L97.2282 29.4863ZM96.5495 26.488C96.5495 25.1627 96.8846 24.0746 97.5185 23.1767L95.8845 22.0233C94.9824 23.3014 94.5495 24.8053 94.5495 26.488H96.5495ZM97.5262 23.1655C98.1775 22.2157 99.1136 21.4457 100.379 20.8704L99.5517 19.0496C98.0014 19.7543 96.7615 20.7443 95.8768 22.0345L97.5262 23.1655ZM100.379 20.8704C101.632 20.301 103.133 20 104.91 20V18C102.91 18 101.115 18.339 99.5517 19.0496L100.379 20.8704ZM104.91 20C106.773 20 108.463 20.33 109.992 20.977L110.771 19.135C108.972 18.374 107.014 18 104.91 18V20ZM110.013 20.9857C111.556 21.5971 112.784 22.5023 113.723 23.6978L115.296 22.4622C114.123 20.9697 112.599 19.8589 110.75 19.1263L110.013 20.9857ZM113.798 22.3769L109.622 26.6009L111.045 28.0071L115.221 23.7831L113.798 22.3769ZM111.095 26.6555C110.265 25.6819 109.299 24.9649 108.192 24.545L107.483 26.415C108.232 26.6991 108.93 27.1981 109.572 27.9525L111.095 26.6555ZM108.203 24.5492C107.204 24.1567 106.2 23.952 105.198 23.952V25.952C105.923 25.952 106.679 26.0993 107.472 26.4108L108.203 24.5492ZM105.198 23.952C104.295 23.952 103.45 24.0849 102.801 24.4843L103.85 26.1877C104.033 26.0751 104.436 25.952 105.198 25.952V23.952ZM102.851 24.4555C102.519 24.6343 102.22 24.886 102.007 25.2296C101.793 25.5761 101.702 25.9595 101.702 26.344H103.702C103.702 26.3096 103.705 26.2915 103.707 26.2854C103.708 26.2801 103.709 26.2804 103.708 26.2824C103.703 26.29 103.716 26.2617 103.8 26.2165L102.851 24.4555ZM101.702 26.344C101.702 27.3029 102.287 27.9759 103.05 28.3798L103.985 26.6122C103.811 26.5197 103.744 26.445 103.722 26.414C103.708 26.3945 103.702 26.3814 103.702 26.344H101.702ZM103.05 28.3798C103.686 28.7165 104.47 28.9964 105.379 29.232L105.88 27.296C105.061 27.0836 104.437 26.8515 103.985 26.6122L103.05 28.3798ZM105.379 29.232C106.218 29.4496 107.108 29.7149 108.049 30.0287L108.682 28.1313C107.703 27.8051 106.769 27.5264 105.88 27.296L105.379 29.232ZM108.049 30.0287C108.933 30.3231 109.772 30.7206 110.569 31.2222L111.634 29.5298C110.703 28.9434 109.718 28.4769 108.682 28.1313L108.049 30.0287ZM110.569 31.2222C111.29 31.6762 111.883 32.2924 112.351 33.0897L114.076 32.0783C113.456 31.0196 112.641 30.1638 111.634 29.5298L110.569 31.2222ZM112.359 33.103C112.777 33.7916 113.03 34.7765 113.03 36.136H115.03C115.03 34.5515 114.738 33.1684 114.068 32.065L112.359 33.103ZM113.03 36.136C113.03 38.113 112.297 39.6243 110.824 40.7706L112.051 42.3494C114.034 40.8077 115.03 38.703 115.03 36.136H113.03ZM110.816 40.7763C109.35 41.9386 107.29 42.576 104.526 42.576V44.576C107.585 44.576 110.133 43.8694 112.059 42.3437L110.816 40.7763Z" fill="#444444"/>
<path d="M139.264 43V9.112H146.8V43H139.264ZM160.24 43V9.112H167.824V43H160.24ZM143.776 28.84V22.312H162.736V28.84H143.776ZM184.887 43.528C182.487 43.528 180.311 43 178.359 41.944C176.439 40.856 174.919 39.384 173.799 37.528C172.679 35.672 172.119 33.592 172.119 31.288C172.119 28.984 172.679 26.92 173.799 25.096C174.919 23.272 176.439 21.832 178.359 20.776C180.279 19.688 182.455 19.144 184.887 19.144C187.319 19.144 189.495 19.672 191.415 20.728C193.335 21.784 194.855 23.24 195.975 25.096C197.095 26.92 197.655 28.984 197.655 31.288C197.655 33.592 197.095 35.672 195.975 37.528C194.855 39.384 193.335 40.856 191.415 41.944C189.495 43 187.319 43.528 184.887 43.528ZM184.887 36.856C185.943 36.856 186.871 36.632 187.671 36.184C188.471 35.704 189.079 35.048 189.495 34.216C189.943 33.352 190.167 32.376 190.167 31.288C190.167 30.2 189.943 29.256 189.495 28.456C189.047 27.624 188.423 26.984 187.623 26.536C186.855 26.056 185.943 25.816 184.887 25.816C183.863 25.816 182.951 26.056 182.151 26.536C181.351 26.984 180.727 27.624 180.279 28.456C179.831 29.288 179.607 30.248 179.607 31.336C179.607 32.392 179.831 33.352 180.279 34.216C180.727 35.048 181.351 35.704 182.151 36.184C182.951 36.632 183.863 36.856 184.887 36.856ZM206.554 43L198.49 19.672H205.69L210.682 36.616L208.57 36.664L214.09 19.672H220.042L225.61 36.664L223.45 36.616L228.49 19.672H235.69L227.626 43H221.626L216.202 26.872H218.026L212.506 43H206.554ZM254.102 43V37.144H262.07C263.542 37.144 264.694 36.712 265.526 35.848C266.358 34.984 266.774 33.928 266.774 32.68C266.774 31.816 266.582 31.048 266.198 30.376C265.814 29.704 265.27 29.176 264.566 28.792C263.894 28.408 263.062 28.216 262.07 28.216H254.102V22.504H261.446C262.694 22.504 263.702 22.2 264.47 21.592C265.238 20.952 265.622 19.992 265.622 18.712C265.622 17.464 265.238 16.536 264.47 15.928C263.702 15.288 262.694 14.968 261.446 14.968H254.102V9.112H262.886C265.062 9.112 266.902 9.512 268.406 10.312C269.942 11.112 271.11 12.184 271.91 13.528C272.71 14.872 273.11 16.36 273.11 17.992C273.11 20.072 272.438 21.832 271.094 23.272C269.75 24.712 267.766 25.704 265.142 26.248L265.334 23.704C268.182 24.248 270.374 25.352 271.91 27.016C273.478 28.68 274.262 30.728 274.262 33.16C274.262 35.016 273.798 36.696 272.87 38.2C271.974 39.672 270.662 40.84 268.934 41.704C267.238 42.568 265.19 43 262.79 43H254.102ZM248.342 43V9.112H255.782V43H248.342ZM288.788 43.528C286.644 43.528 284.74 43.096 283.076 42.232C281.444 41.336 280.164 40.12 279.236 38.584C278.308 37.016 277.844 35.224 277.844 33.208V19.672H285.188V33.112C285.188 33.912 285.316 34.6 285.572 35.176C285.86 35.752 286.276 36.2 286.82 36.52C287.364 36.84 288.02 37 288.788 37C289.876 37 290.74 36.664 291.38 35.992C292.02 35.288 292.34 34.328 292.34 33.112V19.672H299.684V33.16C299.684 35.208 299.22 37.016 298.292 38.584C297.364 40.12 296.084 41.336 294.452 42.232C292.82 43.096 290.932 43.528 288.788 43.528ZM314.231 43.48C312.023 43.48 310.055 42.952 308.327 41.896C306.631 40.84 305.287 39.4 304.295 37.576C303.335 35.752 302.855 33.672 302.855 31.336C302.855 29 303.335 26.92 304.295 25.096C305.287 23.272 306.631 21.832 308.327 20.776C310.055 19.72 312.023 19.192 314.231 19.192C315.831 19.192 317.271 19.496 318.551 20.104C319.863 20.712 320.935 21.56 321.767 22.648C322.631 23.704 323.111 24.92 323.207 26.296V36.136C323.111 37.512 322.647 38.76 321.815 39.88C320.983 40.968 319.911 41.848 318.599 42.52C317.287 43.16 315.831 43.48 314.231 43.48ZM315.527 36.856C316.583 36.856 317.495 36.632 318.263 36.184C319.031 35.704 319.639 35.048 320.087 34.216C320.535 33.384 320.759 32.424 320.759 31.336C320.759 30.248 320.535 29.304 320.087 28.504C319.671 27.672 319.063 27.016 318.263 26.536C317.495 26.056 316.599 25.816 315.575 25.816C314.551 25.816 313.639 26.056 312.839 26.536C312.071 27.016 311.447 27.672 310.967 28.504C310.519 29.336 310.295 30.28 310.295 31.336C310.295 32.392 310.519 33.336 310.967 34.168C311.415 35 312.039 35.656 312.839 36.136C313.639 36.616 314.535 36.856 315.527 36.856ZM327.671 43H320.471V36.712L321.575 31.048L320.327 25.384V8.152H327.671V43ZM341.338 43.576C339.962 43.576 338.602 43.4 337.258 43.048C335.946 42.696 334.714 42.2 333.562 41.56C332.442 40.888 331.482 40.12 330.682 39.256L334.858 35.032C335.626 35.864 336.538 36.52 337.594 37C338.65 37.448 339.802 37.672 341.05 37.672C341.914 37.672 342.57 37.544 343.018 37.288C343.498 37.032 343.738 36.68 343.738 36.232C343.738 35.656 343.45 35.224 342.874 34.936C342.33 34.616 341.626 34.344 340.762 34.12C339.898 33.864 338.986 33.592 338.026 33.304C337.066 33.016 336.154 32.616 335.29 32.104C334.426 31.592 333.722 30.888 333.178 29.992C332.634 29.064 332.362 27.896 332.362 26.488C332.362 24.984 332.746 23.688 333.514 22.6C334.282 21.48 335.37 20.6 336.778 19.96C338.186 19.32 339.834 19 341.722 19C343.706 19 345.53 19.352 347.194 20.056C348.89 20.728 350.266 21.736 351.322 23.08L347.146 27.304C346.41 26.44 345.578 25.832 344.65 25.48C343.754 25.128 342.874 24.952 342.01 24.952C341.178 24.952 340.554 25.08 340.138 25.336C339.722 25.56 339.514 25.896 339.514 26.344C339.514 26.824 339.786 27.208 340.33 27.496C340.874 27.784 341.578 28.04 342.442 28.264C343.306 28.488 344.218 28.76 345.178 29.08C346.138 29.4 347.05 29.832 347.914 30.376C348.778 30.92 349.482 31.656 350.026 32.584C350.57 33.48 350.842 34.664 350.842 36.136C350.842 38.408 349.978 40.216 348.25 41.56C346.554 42.904 344.25 43.576 341.338 43.576ZM363.322 43.576C361.946 43.576 360.586 43.4 359.242 43.048C357.93 42.696 356.698 42.2 355.546 41.56C354.426 40.888 353.466 40.12 352.666 39.256L356.842 35.032C357.61 35.864 358.522 36.52 359.578 37C360.634 37.448 361.786 37.672 363.034 37.672C363.898 37.672 364.554 37.544 365.002 37.288C365.482 37.032 365.722 36.68 365.722 36.232C365.722 35.656 365.434 35.224 364.858 34.936C364.314 34.616 363.61 34.344 362.746 34.12C361.882 33.864 360.97 33.592 360.01 33.304C359.05 33.016 358.138 32.616 357.274 32.104C356.41 31.592 355.706 30.888 355.162 29.992C354.618 29.064 354.346 27.896 354.346 26.488C354.346 24.984 354.73 23.688 355.498 22.6C356.266 21.48 357.354 20.6 358.762 19.96C360.17 19.32 361.818 19 363.706 19C365.69 19 367.514 19.352 369.178 20.056C370.874 20.728 372.25 21.736 373.306 23.08L369.13 27.304C368.394 26.44 367.562 25.832 366.634 25.48C365.738 25.128 364.858 24.952 363.994 24.952C363.162 24.952 362.538 25.08 362.122 25.336C361.706 25.56 361.498 25.896 361.498 26.344C361.498 26.824 361.77 27.208 362.314 27.496C362.858 27.784 363.562 28.04 364.426 28.264C365.29 28.488 366.202 28.76 367.162 29.08C368.122 29.4 369.034 29.832 369.898 30.376C370.762 30.92 371.466 31.656 372.01 32.584C372.554 33.48 372.826 34.664 372.826 36.136C372.826 38.408 371.962 40.216 370.234 41.56C368.538 42.904 366.234 43.576 363.322 43.576ZM395.071 43L384.175 9.112H391.663L399.631 35.176H396.703L404.479 9.112H410.383L418.159 35.176H415.279L423.199 9.112H430.639L419.743 43H413.839L406.015 16.936H408.799L400.975 43H395.071ZM442.277 43.528C439.877 43.528 437.701 43 435.749 41.944C433.829 40.856 432.309 39.384 431.189 37.528C430.069 35.672 429.509 33.592 429.509 31.288C429.509 28.984 430.069 26.92 431.189 25.096C432.309 23.272 433.829 21.832 435.749 20.776C437.669 19.688 439.845 19.144 442.277 19.144C444.709 19.144 446.885 19.672 448.805 20.728C450.725 21.784 452.245 23.24 453.365 25.096C454.485 26.92 455.045 28.984 455.045 31.288C455.045 33.592 454.485 35.672 453.365 37.528C452.245 39.384 450.725 40.856 448.805 41.944C446.885 43 444.709 43.528 442.277 43.528ZM442.277 36.856C443.333 36.856 444.261 36.632 445.061 36.184C445.861 35.704 446.469 35.048 446.885 34.216C447.333 33.352 447.557 32.376 447.557 31.288C447.557 30.2 447.333 29.256 446.885 28.456C446.437 27.624 445.813 26.984 445.013 26.536C444.245 26.056 443.333 25.816 442.277 25.816C441.253 25.816 440.341 26.056 439.541 26.536C438.741 26.984 438.117 27.624 437.669 28.456C437.221 29.288 436.997 30.248 436.997 31.336C436.997 32.392 437.221 33.352 437.669 34.216C438.117 35.048 438.741 35.704 439.541 36.184C440.341 36.632 441.253 36.856 442.277 36.856ZM458.701 43V19.672H466.045V43H458.701ZM466.045 30.184L462.973 27.784C463.581 25.064 464.605 22.952 466.045 21.448C467.485 19.944 469.485 19.192 472.045 19.192C473.165 19.192 474.141 19.368 474.973 19.72C475.837 20.04 476.589 20.552 477.229 21.256L472.861 26.776C472.541 26.424 472.141 26.152 471.661 25.96C471.181 25.768 470.637 25.672 470.029 25.672C468.813 25.672 467.837 26.056 467.101 26.824C466.397 27.56 466.045 28.68 466.045 30.184ZM494.114 43L485.954 30.904L494.066 19.672H502.274L492.482 32.296L492.722 29.272L502.754 43H494.114ZM479.186 43V8.152H486.53V43H479.186ZM512.526 43.576C511.15 43.576 509.79 43.4 508.446 43.048C507.134 42.696 505.902 42.2 504.75 41.56C503.63 40.888 502.67 40.12 501.87 39.256L506.046 35.032C506.814 35.864 507.726 36.52 508.782 37C509.838 37.448 510.99 37.672 512.238 37.672C513.102 37.672 513.758 37.544 514.206 37.288C514.686 37.032 514.926 36.68 514.926 36.232C514.926 35.656 514.638 35.224 514.062 34.936C513.518 34.616 512.814 34.344 511.95 34.12C511.086 33.864 510.174 33.592 509.214 33.304C508.253 33.016 507.342 32.616 506.478 32.104C505.614 31.592 504.91 30.888 504.366 29.992C503.822 29.064 503.55 27.896 503.55 26.488C503.55 24.984 503.934 23.688 504.702 22.6C505.47 21.48 506.558 20.6 507.966 19.96C509.374 19.32 511.022 19 512.91 19C514.894 19 516.718 19.352 518.382 20.056C520.078 20.728 521.454 21.736 522.51 23.08L518.334 27.304C517.598 26.44 516.766 25.832 515.838 25.48C514.942 25.128 514.062 24.952 513.198 24.952C512.366 24.952 511.742 25.08 511.326 25.336C510.91 25.56 510.702 25.896 510.702 26.344C510.702 26.824 510.974 27.208 511.518 27.496C512.062 27.784 512.766 28.04 513.63 28.264C514.494 28.488 515.406 28.76 516.366 29.08C517.326 29.4 518.238 29.832 519.102 30.376C519.966 30.92 520.67 31.656 521.214 32.584C521.758 33.48 522.03 34.664 522.03 36.136C522.03 38.408 521.166 40.216 519.438 41.56C517.742 42.904 515.438 43.576 512.526 43.576Z" fill="#A64CED"/>
</svg>
