<svg width="375" height="51" viewBox="0 0 375 51" fill="none" xmlns="http://www.w3.org/2000/svg">
<path d="M-257.736 43V9.112H-250.2V43H-257.736ZM-236.76 43V9.112H-229.176V43H-236.76ZM-253.224 28.84V22.312H-234.264V28.84H-253.224ZM-212.113 43.528C-214.513 43.528 -216.689 43 -218.641 41.944C-220.561 40.856 -222.081 39.384 -223.201 37.528C-224.321 35.672 -224.881 33.592 -224.881 31.288C-224.881 28.984 -224.321 26.92 -223.201 25.096C-222.081 23.272 -220.561 21.832 -218.641 20.776C-216.721 19.688 -214.545 19.144 -212.113 19.144C-209.681 19.144 -207.505 19.672 -205.585 20.728C-203.665 21.784 -202.145 23.24 -201.025 25.096C-199.905 26.92 -199.345 28.984 -199.345 31.288C-199.345 33.592 -199.905 35.672 -201.025 37.528C-202.145 39.384 -203.665 40.856 -205.585 41.944C-207.505 43 -209.681 43.528 -212.113 43.528ZM-212.113 36.856C-211.057 36.856 -210.129 36.632 -209.329 36.184C-208.529 35.704 -207.921 35.048 -207.505 34.216C-207.057 33.352 -206.833 32.376 -206.833 31.288C-206.833 30.2 -207.057 29.256 -207.505 28.456C-207.953 27.624 -208.577 26.984 -209.377 26.536C-210.145 26.056 -211.057 25.816 -212.113 25.816C-213.137 25.816 -214.049 26.056 -214.849 26.536C-215.649 26.984 -216.273 27.624 -216.721 28.456C-217.169 29.288 -217.393 30.248 -217.393 31.336C-217.393 32.392 -217.169 33.352 -216.721 34.216C-216.273 35.048 -215.649 35.704 -214.849 36.184C-214.049 36.632 -213.137 36.856 -212.113 36.856ZM-190.446 43L-198.51 19.672H-191.31L-186.318 36.616L-188.43 36.664L-182.91 19.672H-176.958L-171.39 36.664L-173.55 36.616L-168.51 19.672H-161.31L-169.374 43H-175.374L-180.798 26.872H-178.974L-184.494 43H-190.446ZM-142.898 43V37.144H-134.93C-133.458 37.144 -132.306 36.712 -131.474 35.848C-130.642 34.984 -130.226 33.928 -130.226 32.68C-130.226 31.816 -130.418 31.048 -130.802 30.376C-131.186 29.704 -131.73 29.176 -132.434 28.792C-133.106 28.408 -133.938 28.216 -134.93 28.216H-142.898V22.504H-135.554C-134.306 22.504 -133.298 22.2 -132.53 21.592C-131.762 20.952 -131.378 19.992 -131.378 18.712C-131.378 17.464 -131.762 16.536 -132.53 15.928C-133.298 15.288 -134.306 14.968 -135.554 14.968H-142.898V9.112H-134.114C-131.938 9.112 -130.098 9.512 -128.594 10.312C-127.058 11.112 -125.89 12.184 -125.09 13.528C-124.29 14.872 -123.89 16.36 -123.89 17.992C-123.89 20.072 -124.562 21.832 -125.906 23.272C-127.25 24.712 -129.234 25.704 -131.858 26.248L-131.666 23.704C-128.818 24.248 -126.626 25.352 -125.09 27.016C-123.522 28.68 -122.738 30.728 -122.738 33.16C-122.738 35.016 -123.202 36.696 -124.13 38.2C-125.026 39.672 -126.338 40.84 -128.066 41.704C-129.762 42.568 -131.81 43 -134.21 43H-142.898ZM-148.658 43V9.112H-141.218V43H-148.658ZM-108.212 43.528C-110.356 43.528 -112.26 43.096 -113.924 42.232C-115.556 41.336 -116.836 40.12 -117.764 38.584C-118.692 37.016 -119.156 35.224 -119.156 33.208V19.672H-111.812V33.112C-111.812 33.912 -111.684 34.6 -111.428 35.176C-111.14 35.752 -110.724 36.2 -110.18 36.52C-109.636 36.84 -108.98 37 -108.212 37C-107.124 37 -106.26 36.664 -105.62 35.992C-104.98 35.288 -104.66 34.328 -104.66 33.112V19.672H-97.3159V33.16C-97.3159 35.208 -97.7799 37.016 -98.7079 38.584C-99.6359 40.12 -100.916 41.336 -102.548 42.232C-104.18 43.096 -106.068 43.528 -108.212 43.528ZM-82.7689 43.48C-84.9769 43.48 -86.9449 42.952 -88.6729 41.896C-90.3689 40.84 -91.7129 39.4 -92.7049 37.576C-93.6649 35.752 -94.1449 33.672 -94.1449 31.336C-94.1449 29 -93.6649 26.92 -92.7049 25.096C-91.7129 23.272 -90.3689 21.832 -88.6729 20.776C-86.9449 19.72 -84.9769 19.192 -82.7689 19.192C-81.1689 19.192 -79.7289 19.496 -78.4489 20.104C-77.1369 20.712 -76.0649 21.56 -75.2329 22.648C-74.3689 23.704 -73.8889 24.92 -73.7929 26.296V36.136C-73.8889 37.512 -74.3529 38.76 -75.1849 39.88C-76.0169 40.968 -77.0889 41.848 -78.4009 42.52C-79.7129 43.16 -81.1689 43.48 -82.7689 43.48ZM-81.4729 36.856C-80.4169 36.856 -79.5049 36.632 -78.7369 36.184C-77.9689 35.704 -77.3609 35.048 -76.9129 34.216C-76.4649 33.384 -76.2409 32.424 -76.2409 31.336C-76.2409 30.248 -76.4649 29.304 -76.9129 28.504C-77.3289 27.672 -77.9369 27.016 -78.7369 26.536C-79.5049 26.056 -80.4009 25.816 -81.4249 25.816C-82.4489 25.816 -83.3609 26.056 -84.1609 26.536C-84.9289 27.016 -85.5529 27.672 -86.0329 28.504C-86.4809 29.336 -86.7049 30.28 -86.7049 31.336C-86.7049 32.392 -86.4809 33.336 -86.0329 34.168C-85.5849 35 -84.9609 35.656 -84.1609 36.136C-83.3609 36.616 -82.4649 36.856 -81.4729 36.856ZM-69.3289 43H-76.5289V36.712L-75.4249 31.048L-76.6729 25.384V8.152H-69.3289V43ZM-55.662 43.576C-57.038 43.576 -58.398 43.4 -59.742 43.048C-61.054 42.696 -62.286 42.2 -63.438 41.56C-64.558 40.888 -65.518 40.12 -66.318 39.256L-62.142 35.032C-61.374 35.864 -60.462 36.52 -59.406 37C-58.35 37.448 -57.198 37.672 -55.95 37.672C-55.086 37.672 -54.43 37.544 -53.982 37.288C-53.502 37.032 -53.262 36.68 -53.262 36.232C-53.262 35.656 -53.55 35.224 -54.126 34.936C-54.67 34.616 -55.374 34.344 -56.238 34.12C-57.102 33.864 -58.014 33.592 -58.974 33.304C-59.934 33.016 -60.846 32.616 -61.71 32.104C-62.574 31.592 -63.278 30.888 -63.822 29.992C-64.366 29.064 -64.638 27.896 -64.638 26.488C-64.638 24.984 -64.254 23.688 -63.486 22.6C-62.718 21.48 -61.63 20.6 -60.222 19.96C-58.814 19.32 -57.166 19 -55.278 19C-53.294 19 -51.47 19.352 -49.806 20.056C-48.11 20.728 -46.734 21.736 -45.678 23.08L-49.854 27.304C-50.59 26.44 -51.422 25.832 -52.35 25.48C-53.246 25.128 -54.126 24.952 -54.99 24.952C-55.822 24.952 -56.446 25.08 -56.862 25.336C-57.278 25.56 -57.486 25.896 -57.486 26.344C-57.486 26.824 -57.214 27.208 -56.67 27.496C-56.126 27.784 -55.422 28.04 -54.558 28.264C-53.694 28.488 -52.782 28.76 -51.822 29.08C-50.862 29.4 -49.95 29.832 -49.086 30.376C-48.222 30.92 -47.518 31.656 -46.974 32.584C-46.43 33.48 -46.158 34.664 -46.158 36.136C-46.158 38.408 -47.022 40.216 -48.75 41.56C-50.446 42.904 -52.75 43.576 -55.662 43.576ZM-33.6776 43.576C-35.0536 43.576 -36.4136 43.4 -37.7576 43.048C-39.0696 42.696 -40.3016 42.2 -41.4536 41.56C-42.5736 40.888 -43.5336 40.12 -44.3336 39.256L-40.1576 35.032C-39.3896 35.864 -38.4776 36.52 -37.4216 37C-36.3656 37.448 -35.2136 37.672 -33.9656 37.672C-33.1016 37.672 -32.4456 37.544 -31.9976 37.288C-31.5176 37.032 -31.2776 36.68 -31.2776 36.232C-31.2776 35.656 -31.5656 35.224 -32.1416 34.936C-32.6856 34.616 -33.3896 34.344 -34.2536 34.12C-35.1176 33.864 -36.0296 33.592 -36.9896 33.304C-37.9496 33.016 -38.8616 32.616 -39.7256 32.104C-40.5896 31.592 -41.2936 30.888 -41.8376 29.992C-42.3816 29.064 -42.6536 27.896 -42.6536 26.488C-42.6536 24.984 -42.2696 23.688 -41.5016 22.6C-40.7336 21.48 -39.6456 20.6 -38.2376 19.96C-36.8296 19.32 -35.1816 19 -33.2936 19C-31.3096 19 -29.4856 19.352 -27.8216 20.056C-26.1256 20.728 -24.7496 21.736 -23.6936 23.08L-27.8696 27.304C-28.6056 26.44 -29.4376 25.832 -30.3656 25.48C-31.2616 25.128 -32.1416 24.952 -33.0056 24.952C-33.8376 24.952 -34.4616 25.08 -34.8776 25.336C-35.2936 25.56 -35.5016 25.896 -35.5016 26.344C-35.5016 26.824 -35.2296 27.208 -34.6856 27.496C-34.1416 27.784 -33.4376 28.04 -32.5736 28.264C-31.7096 28.488 -30.7976 28.76 -29.8376 29.08C-28.8776 29.4 -27.9656 29.832 -27.1016 30.376C-26.2376 30.92 -25.5336 31.656 -24.9896 32.584C-24.4456 33.48 -24.1736 34.664 -24.1736 36.136C-24.1736 38.408 -25.0376 40.216 -26.7656 41.56C-28.4616 42.904 -30.7656 43.576 -33.6776 43.576ZM-1.92862 43L-12.8246 9.112H-5.33662L2.63138 35.176H-0.296624L7.47938 9.112H13.3834L21.1594 35.176H18.2794L26.1994 9.112H33.6394L22.7434 43H16.8394L9.01538 16.936H11.7994L3.97538 43H-1.92862ZM45.2771 43.528C42.8771 43.528 40.7011 43 38.7491 41.944C36.8291 40.856 35.3091 39.384 34.1891 37.528C33.0691 35.672 32.5091 33.592 32.5091 31.288C32.5091 28.984 33.0691 26.92 34.1891 25.096C35.3091 23.272 36.8291 21.832 38.7491 20.776C40.6691 19.688 42.8451 19.144 45.2771 19.144C47.7091 19.144 49.8851 19.672 51.8051 20.728C53.7251 21.784 55.2451 23.24 56.3651 25.096C57.4851 26.92 58.0451 28.984 58.0451 31.288C58.0451 33.592 57.4851 35.672 56.3651 37.528C55.2451 39.384 53.7251 40.856 51.8051 41.944C49.8851 43 47.7091 43.528 45.2771 43.528ZM45.2771 36.856C46.3331 36.856 47.2611 36.632 48.0611 36.184C48.8611 35.704 49.4691 35.048 49.8851 34.216C50.3331 33.352 50.5571 32.376 50.5571 31.288C50.5571 30.2 50.3331 29.256 49.8851 28.456C49.4371 27.624 48.8131 26.984 48.0131 26.536C47.2451 26.056 46.3331 25.816 45.2771 25.816C44.2531 25.816 43.3411 26.056 42.5411 26.536C41.7411 26.984 41.1171 27.624 40.6691 28.456C40.2211 29.288 39.9971 30.248 39.9971 31.336C39.9971 32.392 40.2211 33.352 40.6691 34.216C41.1171 35.048 41.7411 35.704 42.5411 36.184C43.3411 36.632 44.2531 36.856 45.2771 36.856ZM61.7014 43V19.672H69.0454V43H61.7014ZM69.0454 30.184L65.9734 27.784C66.5814 25.064 67.6054 22.952 69.0454 21.448C70.4854 19.944 72.4854 19.192 75.0454 19.192C76.1654 19.192 77.1414 19.368 77.9734 19.72C78.8374 20.04 79.5894 20.552 80.2294 21.256L75.8614 26.776C75.5414 26.424 75.1414 26.152 74.6614 25.96C74.1814 25.768 73.6374 25.672 73.0294 25.672C71.8134 25.672 70.8374 26.056 70.1014 26.824C69.3974 27.56 69.0454 28.68 69.0454 30.184ZM97.1138 43L88.9538 30.904L97.0658 19.672H105.274L95.4818 32.296L95.7218 29.272L105.754 43H97.1138ZM82.1858 43V8.152H89.5298V43H82.1858ZM115.526 43.576C114.15 43.576 112.79 43.4 111.446 43.048C110.134 42.696 108.902 42.2 107.75 41.56C106.63 40.888 105.67 40.12 104.87 39.256L109.046 35.032C109.814 35.864 110.726 36.52 111.782 37C112.838 37.448 113.99 37.672 115.238 37.672C116.102 37.672 116.758 37.544 117.206 37.288C117.686 37.032 117.926 36.68 117.926 36.232C117.926 35.656 117.638 35.224 117.062 34.936C116.518 34.616 115.814 34.344 114.95 34.12C114.086 33.864 113.174 33.592 112.214 33.304C111.253 33.016 110.342 32.616 109.478 32.104C108.614 31.592 107.91 30.888 107.366 29.992C106.822 29.064 106.55 27.896 106.55 26.488C106.55 24.984 106.934 23.688 107.702 22.6C108.47 21.48 109.558 20.6 110.966 19.96C112.374 19.32 114.022 19 115.91 19C117.894 19 119.718 19.352 121.382 20.056C123.078 20.728 124.454 21.736 125.51 23.08L121.334 27.304C120.598 26.44 119.766 25.832 118.838 25.48C117.942 25.128 117.062 24.952 116.198 24.952C115.366 24.952 114.742 25.08 114.326 25.336C113.91 25.56 113.702 25.896 113.702 26.344C113.702 26.824 113.974 27.208 114.518 27.496C115.062 27.784 115.766 28.04 116.63 28.264C117.494 28.488 118.406 28.76 119.366 29.08C120.326 29.4 121.238 29.832 122.102 30.376C122.966 30.92 123.67 31.656 124.214 32.584C124.758 33.48 125.03 34.664 125.03 36.136C125.03 38.408 124.166 40.216 122.438 41.56C120.742 42.904 118.438 43.576 115.526 43.576Z" fill="#FFAA4C"/>
<path d="M150.264 43H149.264V44H150.264V43ZM150.264 9.112V8.112H149.264V9.112H150.264ZM157.8 9.112H158.8V8.112H157.8V9.112ZM157.8 43V44H158.8V43H157.8ZM171.24 43H170.24V44H171.24V43ZM171.24 9.112V8.112H170.24V9.112H171.24ZM178.824 9.112H179.824V8.112H178.824V9.112ZM178.824 43V44H179.824V43H178.824ZM154.776 28.84H153.776V29.84H154.776V28.84ZM154.776 22.312V21.312H153.776V22.312H154.776ZM173.736 22.312H174.736V21.312H173.736V22.312ZM173.736 28.84V29.84H174.736V28.84H173.736ZM151.264 43V9.112H149.264V43H151.264ZM150.264 10.112H157.8V8.112H150.264V10.112ZM156.8 9.112V43H158.8V9.112H156.8ZM157.8 42H150.264V44H157.8V42ZM172.24 43V9.112H170.24V43H172.24ZM171.24 10.112H178.824V8.112H171.24V10.112ZM177.824 9.112V43H179.824V9.112H177.824ZM178.824 42H171.24V44H178.824V42ZM155.776 28.84V22.312H153.776V28.84H155.776ZM154.776 23.312H173.736V21.312H154.776V23.312ZM172.736 22.312V28.84H174.736V22.312H172.736ZM173.736 27.84H154.776V29.84H173.736V27.84ZM189.359 41.944L188.865 42.814L188.874 42.8189L188.883 42.8235L189.359 41.944ZM184.799 37.528L185.655 37.0113L184.799 37.528ZM184.799 25.096L183.946 24.5727L184.799 25.096ZM189.359 20.776L189.84 21.6523L189.852 21.646L189.359 20.776ZM206.975 25.096L206.118 25.6127L206.122 25.6193L206.975 25.096ZM206.975 37.528L207.831 38.0447L207.831 38.0447L206.975 37.528ZM202.415 41.944L202.896 42.8203L202.908 42.814L202.415 41.944ZM198.671 36.184L199.159 37.0565L199.172 37.0492L199.185 37.0415L198.671 36.184ZM200.494 34.216L199.607 33.7557L199.603 33.7622L199.6 33.7688L200.494 34.216ZM200.494 28.456L199.614 28.9301L199.618 28.9374L199.622 28.9446L200.494 28.456ZM198.623 26.536L198.093 27.384L198.113 27.3967L198.134 27.4085L198.623 26.536ZM193.151 26.536L193.639 27.4085L193.652 27.4012L193.665 27.3935L193.151 26.536ZM191.278 28.456L192.159 28.9301L191.278 28.456ZM191.278 34.216L190.391 34.6763L190.394 34.6832L190.398 34.6901L191.278 34.216ZM193.151 36.184L192.636 37.0415L192.649 37.0492L192.662 37.0565L193.151 36.184ZM195.887 42.528C193.639 42.528 191.628 42.035 189.834 41.0645L188.883 42.8235C190.993 43.965 193.334 44.528 195.887 44.528V42.528ZM189.852 41.074C188.078 40.069 186.684 38.7176 185.655 37.0113L183.942 38.0447C185.153 40.0504 186.799 41.643 188.865 42.814L189.852 41.074ZM185.655 37.0113C184.635 35.3211 184.118 33.4218 184.118 31.288H182.118C182.118 33.7622 182.722 36.0229 183.942 38.0447L185.655 37.0113ZM184.118 31.288C184.118 29.1541 184.635 27.2738 185.651 25.6193L183.946 24.5727C182.722 26.5662 182.118 28.8139 182.118 31.288H184.118ZM185.651 25.6193C186.678 23.9467 188.069 22.6267 189.84 21.6522L188.877 19.8998C186.808 21.0373 185.159 22.5973 183.946 24.5727L185.651 25.6193ZM189.852 21.646C191.606 20.6517 193.609 20.144 195.887 20.144V18.144C193.3 18.144 190.951 18.7243 188.865 19.906L189.852 21.646ZM195.887 20.144C198.169 20.144 200.176 20.6381 201.933 21.6042L202.896 19.8518C200.813 18.7059 198.468 18.144 195.887 18.144V20.144ZM201.933 21.6042C203.7 22.5764 205.09 23.9091 206.118 25.6127L207.831 24.5793C206.619 22.5709 204.969 20.9916 202.896 19.8518L201.933 21.6042ZM206.122 25.6193C207.138 27.2738 207.655 29.1541 207.655 31.288H209.655C209.655 28.8139 209.051 26.5662 207.827 24.5727L206.122 25.6193ZM207.655 31.288C207.655 33.4218 207.138 35.3211 206.118 37.0113L207.831 38.0447C209.051 36.0229 209.655 33.7622 209.655 31.288H207.655ZM206.118 37.0113C205.089 38.7176 203.695 40.069 201.921 41.074L202.908 42.814C204.974 41.643 206.62 40.0504 207.831 38.0447L206.118 37.0113ZM201.933 41.0678C200.176 42.0339 198.169 42.528 195.887 42.528V44.528C198.468 44.528 200.813 43.9661 202.896 42.8202L201.933 41.0678ZM195.887 37.856C197.087 37.856 198.188 37.6001 199.159 37.0565L198.182 35.3115C197.553 35.6639 196.798 35.856 195.887 35.856V37.856ZM199.185 37.0415C200.148 36.464 200.888 35.6659 201.389 34.6632L199.6 33.7688C199.269 34.4301 198.793 34.944 198.156 35.3265L199.185 37.0415ZM201.382 34.6763C201.912 33.654 202.167 32.5171 202.167 31.288H200.167C200.167 32.2349 199.973 33.05 199.607 33.7557L201.382 34.6763ZM202.167 31.288C202.167 30.0609 201.913 28.9423 201.367 27.9674L199.622 28.9446C199.972 29.5697 200.167 30.3391 200.167 31.288H202.167ZM201.375 27.9819C200.84 26.988 200.082 26.2073 199.111 25.6635L198.134 27.4085C198.763 27.7607 199.253 28.26 199.614 28.9301L201.375 27.9819ZM199.153 25.688C198.201 25.0931 197.098 24.816 195.887 24.816V26.816C196.787 26.816 197.508 27.0189 198.093 27.384L199.153 25.688ZM195.887 24.816C194.7 24.816 193.606 25.0963 192.636 25.6785L193.665 27.3935C194.295 27.0157 195.026 26.816 195.887 26.816V24.816ZM192.662 25.6635C191.691 26.2073 190.933 26.988 190.398 27.9819L192.159 28.9301C192.52 28.26 193.01 27.7607 193.639 27.4085L192.662 25.6635ZM190.398 27.9819C189.86 28.9803 189.606 30.1078 189.606 31.336H191.606C191.606 30.3882 191.801 29.5957 192.159 28.9301L190.398 27.9819ZM189.606 31.336C189.606 32.5383 189.863 33.6582 190.391 34.6763L192.166 33.7557C191.798 33.0458 191.606 32.2457 191.606 31.336H189.606ZM190.398 34.6901C190.93 35.6783 191.68 36.4677 192.636 37.0415L193.665 35.3265C193.021 34.9403 192.523 34.4177 192.159 33.7419L190.398 34.6901ZM192.662 37.0565C193.628 37.5975 194.712 37.856 195.887 37.856V35.856C195.013 35.856 194.273 35.6665 193.639 35.3115L192.662 37.0565ZM217.554 43L216.609 43.3267L216.842 44H217.554V43ZM209.49 19.672V18.672H208.086L208.545 19.9987L209.49 19.672ZM216.69 19.672L217.649 19.3894L217.438 18.672H216.69V19.672ZM221.682 36.616L221.705 37.6157L223.01 37.5861L222.641 36.3334L221.682 36.616ZM219.57 36.664L218.619 36.355L218.183 37.6958L219.593 37.6637L219.57 36.664ZM225.09 19.672V18.672H224.363L224.139 19.363L225.09 19.672ZM231.042 19.672L231.992 19.3606L231.767 18.672H231.042V19.672ZM236.61 36.664L236.588 37.6638L238 37.6951L237.56 36.3526L236.61 36.664ZM234.45 36.616L233.492 36.3309L233.118 37.5866L234.428 37.6158L234.45 36.616ZM239.49 19.672V18.672H238.744L238.532 19.3869L239.49 19.672ZM246.69 19.672L247.635 19.9987L248.094 18.672H246.69V19.672ZM238.626 43V44H239.338L239.571 43.3267L238.626 43ZM232.626 43L231.678 43.3188L231.907 44H232.626V43ZM227.202 26.872V25.872H225.811L226.254 27.1908L227.202 26.872ZM229.026 26.872L229.972 27.1958L230.425 25.872H229.026V26.872ZM223.506 43V44H224.221L224.452 43.3238L223.506 43ZM218.499 42.6733L210.435 19.3453L208.545 19.9987L216.609 43.3267L218.499 42.6733ZM209.49 20.672H216.69V18.672H209.49V20.672ZM215.731 19.9546L220.723 36.8986L222.641 36.3334L217.649 19.3894L215.731 19.9546ZM221.659 35.6163L219.547 35.6643L219.593 37.6637L221.705 37.6157L221.659 35.6163ZM220.521 36.973L226.041 19.981L224.139 19.363L218.619 36.355L220.521 36.973ZM225.09 20.672H231.042V18.672H225.09V20.672ZM230.092 19.9834L235.66 36.9754L237.56 36.3526L231.992 19.3606L230.092 19.9834ZM236.632 35.6642L234.472 35.6162L234.428 37.6158L236.588 37.6638L236.632 35.6642ZM235.409 36.9011L240.449 19.9571L238.532 19.3869L233.492 36.3309L235.409 36.9011ZM239.49 20.672H246.69V18.672H239.49V20.672ZM245.745 19.3453L237.681 42.6733L239.571 43.3267L247.635 19.9987L245.745 19.3453ZM238.626 42H232.626V44H238.626V42ZM233.574 42.6812L228.15 26.5532L226.254 27.1908L231.678 43.3188L233.574 42.6812ZM227.202 27.872H229.026V25.872H227.202V27.872ZM228.08 26.5482L222.56 42.6762L224.452 43.3238L229.972 27.1958L228.08 26.5482ZM223.506 42H217.554V44H223.506V42ZM265.102 43H264.102V44H265.102V43ZM265.102 37.144V36.144H264.102V37.144H265.102ZM276.526 35.848L277.246 36.5416L276.526 35.848ZM275.566 28.792L275.07 29.6602L275.079 29.6652L275.087 29.6699L275.566 28.792ZM265.102 28.216H264.102V29.216H265.102V28.216ZM265.102 22.504V21.504H264.102V22.504H265.102ZM275.47 21.592L276.091 22.376L276.101 22.3683L276.11 22.3602L275.47 21.592ZM275.47 15.928L274.83 16.6962L274.84 16.7043L274.849 16.712L275.47 15.928ZM265.102 14.968H264.102V15.968H265.102V14.968ZM265.102 9.112V8.112H264.102V9.112H265.102ZM279.406 10.312L278.936 11.1949L278.944 11.1989L279.406 10.312ZM282.91 13.528L282.051 14.0395V14.0395L282.91 13.528ZM282.094 23.272L282.825 23.9543V23.9543L282.094 23.272ZM276.142 26.248L275.145 26.1727L275.045 27.4967L276.345 27.2272L276.142 26.248ZM276.334 23.704L276.522 22.7218L275.421 22.5116L275.337 23.6287L276.334 23.704ZM282.91 27.016L282.175 27.6943L282.182 27.7018L282.91 27.016ZM283.87 38.2L283.019 37.6749L283.016 37.6801L283.87 38.2ZM279.934 41.704L279.487 40.8095L279.48 40.813L279.934 41.704ZM259.342 43H258.342V44H259.342V43ZM259.342 9.112V8.112H258.342V9.112H259.342ZM266.782 9.112H267.782V8.112H266.782V9.112ZM266.782 43V44H267.782V43H266.782ZM266.102 43V37.144H264.102V43H266.102ZM265.102 38.144H273.07V36.144H265.102V38.144ZM273.07 38.144C274.748 38.144 276.185 37.6443 277.246 36.5416L275.806 35.1544C275.204 35.7797 274.336 36.144 273.07 36.144V38.144ZM277.246 36.5416C278.266 35.4831 278.774 34.1751 278.774 32.68H276.774C276.774 33.6809 276.45 34.4849 275.806 35.1544L277.246 36.5416ZM278.774 32.68C278.774 31.6627 278.546 30.72 278.066 29.8799L276.33 30.8721C276.618 31.376 276.774 31.9693 276.774 32.68H278.774ZM278.066 29.8799C277.587 29.041 276.905 28.3835 276.045 27.9141L275.087 29.6699C275.635 29.9685 276.041 30.367 276.33 30.8721L278.066 29.8799ZM276.062 27.9238C275.202 27.4324 274.188 27.216 273.07 27.216V29.216C273.936 29.216 274.586 29.3836 275.07 29.6602L276.062 27.9238ZM273.07 27.216H265.102V29.216H273.07V27.216ZM266.102 28.216V22.504H264.102V28.216H266.102ZM265.102 23.504H272.446V21.504H265.102V23.504ZM272.446 23.504C273.857 23.504 275.103 23.1584 276.091 22.376L274.849 20.808C274.302 21.2416 273.532 21.504 272.446 21.504V23.504ZM276.11 22.3602C277.167 21.4794 277.622 20.1989 277.622 18.712H275.622C275.622 19.7851 275.309 20.4246 274.83 20.8238L276.11 22.3602ZM277.622 18.712C277.622 17.2498 277.162 15.9919 276.091 15.144L274.849 16.712C275.314 17.0801 275.622 17.6782 275.622 18.712H277.622ZM276.11 15.1598C275.121 14.3357 273.868 13.968 272.446 13.968V15.968C273.52 15.968 274.283 16.2403 274.83 16.6962L276.11 15.1598ZM272.446 13.968H265.102V15.968H272.446V13.968ZM266.102 14.968V9.112H264.102V14.968H266.102ZM265.102 10.112H273.886V8.112H265.102V10.112ZM273.886 10.112C275.943 10.112 277.612 10.4902 278.937 11.1949L279.876 9.42912C278.193 8.53382 276.182 8.112 273.886 8.112V10.112ZM278.944 11.1989C280.334 11.9226 281.356 12.8719 282.051 14.0395L283.769 13.0165C282.864 11.4961 281.551 10.3014 279.868 9.42508L278.944 11.1989ZM282.051 14.0395C282.755 15.2219 283.11 16.5319 283.11 17.992H285.11C285.11 16.1881 284.666 14.5221 283.769 13.0165L282.051 14.0395ZM283.11 17.992C283.11 19.8343 282.524 21.3459 281.363 22.5897L282.825 23.9543C284.352 22.3181 285.11 20.3097 285.11 17.992H283.11ZM281.363 22.5897C280.203 23.8327 278.432 24.752 275.939 25.2688L276.345 27.2272C279.1 26.656 281.297 25.5913 282.825 23.9543L281.363 22.5897ZM277.139 26.3233L277.331 23.7793L275.337 23.6287L275.145 26.1727L277.139 26.3233ZM276.146 24.6862C278.844 25.2014 280.821 26.2267 282.175 27.6943L283.645 26.3377C281.928 24.4773 279.521 23.2946 276.522 22.7218L276.146 24.6862ZM282.182 27.7018C283.564 29.1677 284.262 30.9651 284.262 33.16H286.262C286.262 30.4909 285.393 28.1923 283.638 26.3302L282.182 27.7018ZM284.262 33.16C284.262 34.8403 283.845 36.3368 283.019 37.6749L284.721 38.7251C285.752 37.0552 286.262 35.1917 286.262 33.16H284.262ZM283.016 37.6801C282.229 38.9725 281.068 40.0192 279.487 40.8096L280.381 42.5984C282.257 41.6608 283.719 40.3715 284.724 38.7199L283.016 37.6801ZM279.48 40.813C277.957 41.5891 276.072 42 273.79 42V44C276.308 44 278.52 43.5469 280.388 42.595L279.48 40.813ZM273.79 42H265.102V44H273.79V42ZM260.342 43V9.112H258.342V43H260.342ZM259.342 10.112H266.782V8.112H259.342V10.112ZM265.782 9.112V43H267.782V9.112H265.782ZM266.782 42H259.342V44H266.782V42ZM294.076 42.232L293.595 43.1086L293.605 43.1142L293.615 43.1195L294.076 42.232ZM290.236 38.584L289.376 39.0933L289.38 39.1011L290.236 38.584ZM288.844 19.672V18.672H287.844V19.672H288.844ZM296.188 19.672H297.188V18.672H296.188V19.672ZM296.572 35.176L295.658 35.5821L295.668 35.6029L295.678 35.6232L296.572 35.176ZM297.82 36.52L298.327 35.6581L297.82 36.52ZM302.38 35.992L303.104 36.6817L303.112 36.6733L303.12 36.6647L302.38 35.992ZM303.34 19.672V18.672H302.34V19.672H303.34ZM310.684 19.672H311.684V18.672H310.684V19.672ZM309.292 38.584L310.148 39.1011L310.153 39.0933L309.292 38.584ZM305.452 42.232L305.92 43.1158L305.927 43.1122L305.933 43.1086L305.452 42.232ZM299.788 42.528C297.781 42.528 296.039 42.1246 294.537 41.3445L293.615 43.1195C295.441 44.0674 297.507 44.528 299.788 44.528V42.528ZM294.557 41.3554C293.074 40.5409 291.925 39.4464 291.092 38.0669L289.38 39.1011C290.403 40.7936 291.815 42.1311 293.595 43.1086L294.557 41.3554ZM291.097 38.0747C290.269 36.6769 289.844 35.0644 289.844 33.208H287.844C287.844 35.3836 288.347 37.3551 289.376 39.0933L291.097 38.0747ZM289.844 33.208V19.672H287.844V33.208H289.844ZM288.844 20.672H296.188V18.672H288.844V20.672ZM295.188 19.672V33.112H297.188V19.672H295.188ZM295.188 33.112C295.188 34.0156 295.332 34.8488 295.658 35.5821L297.486 34.7699C297.3 34.3512 297.188 33.8084 297.188 33.112H295.188ZM295.678 35.6232C296.05 36.3682 296.599 36.9619 297.313 37.3819L298.327 35.6581C297.953 35.4381 297.67 35.1358 297.467 34.7288L295.678 35.6232ZM297.313 37.3819C298.041 37.8101 298.88 38 299.788 38V36C299.16 36 298.687 35.8699 298.327 35.6581L297.313 37.3819ZM299.788 38C301.099 38 302.243 37.5861 303.104 36.6817L301.656 35.3023C301.237 35.7419 300.654 36 299.788 36V38ZM303.12 36.6647C303.97 35.7298 304.34 34.5053 304.34 33.112H302.34C302.34 34.1507 302.07 34.8462 301.64 35.3193L303.12 36.6647ZM304.34 33.112V19.672H302.34V33.112H304.34ZM303.34 20.672H310.684V18.672H303.34V20.672ZM309.684 19.672V33.16H311.684V19.672H309.684ZM309.684 33.16C309.684 35.0515 309.257 36.6794 308.432 38.0747L310.153 39.0933C311.183 37.3526 311.684 35.3645 311.684 33.16H309.684ZM308.436 38.0669C307.603 39.4464 306.455 40.5409 304.971 41.3554L305.933 43.1086C307.714 42.1311 309.125 40.7936 310.148 39.1011L308.436 38.0669ZM304.984 41.3482C303.518 42.1244 301.795 42.528 299.788 42.528V44.528C302.069 44.528 304.122 44.0676 305.92 43.1158L304.984 41.3482ZM319.327 41.896L318.799 42.7449L318.806 42.7493L319.327 41.896ZM315.295 37.576L314.41 38.0418L314.417 38.0538L315.295 37.576ZM315.295 25.096L314.417 24.6182L314.41 24.6303L315.295 25.096ZM319.327 20.776L318.806 19.9227L318.799 19.9271L319.327 20.776ZM329.551 20.104L329.122 21.0073L329.131 21.0113L329.551 20.104ZM332.767 22.648L331.973 23.2554L331.983 23.2685L331.993 23.2812L332.767 22.648ZM334.207 26.296H335.207V26.2612L335.205 26.2264L334.207 26.296ZM334.207 36.136L335.205 36.2056L335.207 36.1708V36.136H334.207ZM332.815 39.88L333.61 40.4875L333.618 40.4763L332.815 39.88ZM329.599 42.52L330.038 43.4188L330.046 43.4145L330.055 43.41L329.599 42.52ZM329.263 36.184L329.767 37.0478L329.78 37.0401L329.793 37.032L329.263 36.184ZM331.087 34.216L330.207 33.7419V33.7419L331.087 34.216ZM331.087 28.504L330.193 28.9512L330.203 28.9722L330.215 28.9926L331.087 28.504ZM329.263 26.536L328.733 27.384L328.741 27.3888L328.749 27.3935L329.263 26.536ZM323.839 26.536L323.325 25.6785L323.317 25.6832L323.309 25.688L323.839 26.536ZM321.967 28.504L321.101 28.0043L321.094 28.017L321.087 28.0299L321.967 28.504ZM321.967 34.168L321.087 34.6421L321.967 34.168ZM338.671 43V44H339.671V43H338.671ZM331.471 43H330.471V44H331.471V43ZM331.471 36.712L330.49 36.5207L330.471 36.6155V36.712H331.471ZM332.575 31.048L333.557 31.2393L333.596 31.0356L333.552 30.8328L332.575 31.048ZM331.327 25.384H330.327V25.4929L330.351 25.5992L331.327 25.384ZM331.327 8.152V7.152H330.327V8.152H331.327ZM338.671 8.152H339.671V7.152H338.671V8.152ZM325.231 42.48C323.19 42.48 321.406 41.9942 319.849 41.0427L318.806 42.7493C320.705 43.9098 322.856 44.48 325.231 44.48V42.48ZM319.856 41.0471C318.312 40.0861 317.086 38.7766 316.174 37.0982L314.417 38.0538C315.488 40.0234 316.95 41.5939 318.799 42.7449L319.856 41.0471ZM316.18 37.1103C315.305 35.448 314.855 33.5316 314.855 31.336H312.855C312.855 33.8124 313.365 36.056 314.41 38.0417L316.18 37.1103ZM314.855 31.336C314.855 29.1404 315.305 27.224 316.18 25.5617L314.41 24.6303C313.365 26.616 312.855 28.8596 312.855 31.336H314.855ZM316.174 25.5738C317.086 23.8954 318.312 22.5859 319.856 21.6249L318.799 19.9271C316.95 21.0781 315.488 22.6486 314.417 24.6182L316.174 25.5738ZM319.849 21.6293C321.406 20.6778 323.19 20.192 325.231 20.192V18.192C322.856 18.192 320.705 18.7622 318.806 19.9227L319.849 21.6293ZM325.231 20.192C326.702 20.192 327.992 20.4707 329.122 21.0073L329.98 19.2007C328.55 18.5213 326.96 18.192 325.231 18.192V20.192ZM329.131 21.0113C330.304 21.5551 331.245 22.3034 331.973 23.2554L333.561 22.0405C332.625 20.8166 331.422 19.8689 329.972 19.1967L329.131 21.0113ZM331.993 23.2812C332.725 24.1752 333.128 25.1937 333.21 26.3656L335.205 26.2264C335.094 24.6463 334.538 23.2328 333.541 22.0148L331.993 23.2812ZM333.207 26.296V36.136H335.207V26.296H333.207ZM333.21 36.0664C333.127 37.2495 332.732 38.3152 332.012 39.2837L333.618 40.4763C334.562 39.2048 335.095 37.7745 335.205 36.2056L333.21 36.0664ZM332.021 39.2725C331.286 40.2335 330.333 41.0205 329.143 41.63L330.055 43.41C331.489 42.6755 332.68 41.7025 333.609 40.4874L332.021 39.2725ZM329.161 41.6212C327.998 42.1884 326.694 42.48 325.231 42.48V44.48C326.968 44.48 328.576 44.1316 330.038 43.4188L329.161 41.6212ZM326.527 37.856C327.727 37.856 328.82 37.6004 329.767 37.0478L328.759 35.3202C328.171 35.6636 327.439 35.856 326.527 35.856V37.856ZM329.793 37.032C330.715 36.4559 331.441 35.6682 331.968 34.6901L330.207 33.7419C329.837 34.4278 329.347 34.9521 328.733 35.336L329.793 37.032ZM331.968 34.6901C332.505 33.6917 332.759 32.5642 332.759 31.336H330.759C330.759 32.2838 330.565 33.0763 330.207 33.7419L331.968 34.6901ZM332.759 31.336C332.759 30.1089 332.506 28.9903 331.96 28.0154L330.215 28.9926C330.565 29.6177 330.759 30.3871 330.759 31.336H332.759ZM331.982 28.0568C331.48 27.0541 330.74 26.256 329.778 25.6785L328.749 27.3935C329.386 27.7759 329.862 28.2899 330.193 28.9512L331.982 28.0568ZM329.793 25.688C328.846 25.0961 327.761 24.816 326.575 24.816V26.816C327.437 26.816 328.144 27.0159 328.733 27.384L329.793 25.688ZM326.575 24.816C325.388 24.816 324.295 25.0963 323.325 25.6785L324.354 27.3935C324.983 27.0157 325.714 26.816 326.575 26.816V24.816ZM323.309 25.688C322.394 26.2601 321.658 27.0393 321.101 28.0043L322.833 29.0037C323.237 28.3047 323.748 27.7719 324.369 27.384L323.309 25.688ZM321.087 28.0299C320.551 29.0241 320.295 30.1343 320.295 31.336H322.295C322.295 30.4257 322.487 29.6479 322.848 28.9781L321.087 28.0299ZM320.295 31.336C320.295 32.5377 320.551 33.6479 321.087 34.6421L322.848 33.6939C322.487 33.0241 322.295 32.2463 322.295 31.336H320.295ZM321.087 34.6421C321.619 35.6303 322.368 36.4197 323.325 36.9935L324.354 35.2785C323.71 34.8923 323.211 34.3697 322.848 33.6939L321.087 34.6421ZM323.325 36.9935C324.29 37.5727 325.366 37.856 326.527 37.856V35.856C325.704 35.856 324.988 35.6593 324.354 35.2785L323.325 36.9935ZM338.671 42H331.471V44H338.671V42ZM332.471 43V36.712H330.471V43H332.471ZM332.453 36.9033L333.557 31.2393L331.594 30.8567L330.49 36.5207L332.453 36.9033ZM333.552 30.8328L332.304 25.1688L330.351 25.5992L331.599 31.2632L333.552 30.8328ZM332.327 25.384V8.152H330.327V25.384H332.327ZM331.327 9.152H338.671V7.152H331.327V9.152ZM337.671 8.152V43H339.671V8.152H337.671ZM348.258 43.048L347.999 44.0139L348.005 44.0154L348.258 43.048ZM344.562 41.56L344.048 42.4175L344.062 42.4261L344.076 42.4342L344.562 41.56ZM341.682 39.256L340.971 38.5529L340.298 39.2334L340.948 39.9354L341.682 39.256ZM345.858 35.032L346.593 34.3537L345.883 33.5845L345.147 34.3289L345.858 35.032ZM348.594 37L348.18 37.9104L348.192 37.9156L348.203 37.9206L348.594 37ZM354.018 37.288L353.547 36.4056L353.535 36.4125L353.522 36.4198L354.018 37.288ZM353.874 34.936L353.367 35.7979L353.396 35.8152L353.427 35.8304L353.874 34.936ZM351.762 34.12L351.478 35.0788L351.494 35.0837L351.511 35.088L351.762 34.12ZM346.29 32.104L346.8 31.2437L346.29 32.104ZM344.178 29.992L343.315 30.4977L343.319 30.5044L343.323 30.511L344.178 29.992ZM344.514 22.6L345.331 23.1767L345.339 23.1655L344.514 22.6ZM347.778 19.96L347.364 19.0496L347.778 19.96ZM358.194 20.056L357.804 20.977L357.815 20.9814L357.826 20.9857L358.194 20.056ZM362.322 23.08L363.033 23.7831L363.653 23.1558L363.108 22.4622L362.322 23.08ZM358.146 27.304L357.385 27.9525L358.091 28.7818L358.857 28.0071L358.146 27.304ZM355.65 25.48L355.284 26.4108L355.295 26.415L355.65 25.48ZM351.138 25.336L351.612 26.2165L351.638 26.2028L351.662 26.1877L351.138 25.336ZM353.442 28.264L353.191 29.232L353.442 28.264ZM356.178 29.08L356.494 28.1313L356.178 29.08ZM358.914 30.376L359.447 29.5298L358.914 30.376ZM361.026 32.584L360.163 33.0897L360.167 33.0964L360.171 33.103L361.026 32.584ZM359.25 41.56L358.636 40.7706L358.629 40.7763L359.25 41.56ZM352.338 42.576C351.048 42.576 349.773 42.4112 348.511 42.0806L348.005 44.0154C349.431 44.3888 350.876 44.576 352.338 44.576V42.576ZM348.517 42.0822C347.282 41.7507 346.126 41.2849 345.048 40.6858L344.076 42.4342C345.302 43.1151 346.61 43.6413 347.999 44.0138L348.517 42.0822ZM345.076 40.7025C344.029 40.0739 343.145 39.364 342.416 38.5766L340.948 39.9354C341.819 40.876 342.855 41.7021 344.048 42.4175L345.076 40.7025ZM342.393 39.9591L346.569 35.7351L345.147 34.3289L340.971 38.5529L342.393 39.9591ZM345.123 35.7103C345.984 36.6427 347.006 37.3766 348.18 37.9104L349.008 36.0896C348.07 35.6634 347.268 35.0853 346.593 34.3537L345.123 35.7103ZM348.203 37.9206C349.393 38.4254 350.68 38.672 352.05 38.672V36.672C350.924 36.672 349.907 36.4706 348.985 36.0794L348.203 37.9206ZM352.05 38.672C352.984 38.672 353.845 38.5386 354.514 38.1562L353.522 36.4198C353.295 36.5494 352.844 36.672 352.05 36.672V38.672ZM354.489 38.1704C355.211 37.785 355.738 37.1351 355.738 36.232H353.738C353.738 36.2537 353.735 36.2624 353.735 36.2627C353.735 36.2632 353.735 36.2634 353.735 36.2637C353.735 36.264 353.734 36.2656 353.732 36.2687C353.725 36.2793 353.683 36.3332 353.547 36.4056L354.489 38.1704ZM355.738 36.232C355.738 35.769 355.619 35.3193 355.354 34.9213C355.093 34.5296 354.728 34.2449 354.321 34.0416L353.427 35.8304C353.596 35.9151 353.663 35.9904 353.69 36.0307C353.713 36.0647 353.738 36.119 353.738 36.232H355.738ZM354.381 34.0741C353.732 33.692 352.933 33.3905 352.013 33.152L351.511 35.088C352.319 35.2975 352.928 35.54 353.367 35.7979L354.381 34.0741ZM352.046 33.1612C351.183 32.9056 350.272 32.6339 349.313 32.3462L348.739 34.2618C349.7 34.5501 350.613 34.8224 351.478 35.0788L352.046 33.1612ZM349.313 32.3462C348.431 32.0816 347.594 31.7144 346.8 31.2437L345.78 32.9643C346.714 33.5176 347.701 33.9504 348.739 34.2618L349.313 32.3462ZM346.8 31.2437C346.083 30.8191 345.495 30.235 345.033 29.473L343.323 30.511C343.949 31.541 344.769 32.3649 345.78 32.9643L346.8 31.2437ZM345.041 29.4863C344.61 28.752 344.362 27.7717 344.362 26.488H342.362C342.362 28.0203 342.658 29.376 343.315 30.4977L345.041 29.4863ZM344.362 26.488C344.362 25.1627 344.697 24.0746 345.331 23.1767L343.697 22.0233C342.795 23.3014 342.362 24.8053 342.362 26.488H344.362ZM345.339 23.1655C345.99 22.2157 346.926 21.4457 348.192 20.8704L347.364 19.0496C345.814 19.7543 344.574 20.7443 343.689 22.0345L345.339 23.1655ZM348.192 20.8704C349.444 20.301 350.946 20 352.722 20V18C350.722 18 348.928 18.339 347.364 19.0496L348.192 20.8704ZM352.722 20C354.585 20 356.275 20.33 357.804 20.977L358.584 19.135C356.785 18.374 354.827 18 352.722 18V20ZM357.826 20.9857C359.369 21.5971 360.596 22.5023 361.536 23.6978L363.108 22.4622C361.936 20.9697 360.411 19.8589 358.562 19.1263L357.826 20.9857ZM361.611 22.3769L357.435 26.6009L358.857 28.0071L363.033 23.7831L361.611 22.3769ZM358.907 26.6555C358.078 25.6819 357.112 24.9649 356.005 24.545L355.295 26.415C356.044 26.6991 356.742 27.1981 357.385 27.9525L358.907 26.6555ZM356.016 24.5492C355.016 24.1567 354.013 23.952 353.01 23.952V25.952C353.735 25.952 354.492 26.0993 355.284 26.4108L356.016 24.5492ZM353.01 23.952C352.108 23.952 351.263 24.0849 350.614 24.4843L351.662 26.1877C351.845 26.0751 352.248 25.952 353.01 25.952V23.952ZM350.664 24.4555C350.332 24.6343 350.032 24.886 349.82 25.2296C349.605 25.5761 349.514 25.9595 349.514 26.344H351.514C351.514 26.3096 351.518 26.2915 351.52 26.2854C351.521 26.2801 351.521 26.2804 351.52 26.2824C351.516 26.29 351.528 26.2617 351.612 26.2165L350.664 24.4555ZM349.514 26.344C349.514 27.3029 350.099 27.9759 350.862 28.3798L351.798 26.6122C351.623 26.5197 351.556 26.445 351.534 26.414C351.52 26.3945 351.514 26.3814 351.514 26.344H349.514ZM350.862 28.3798C351.498 28.7165 352.282 28.9964 353.191 29.232L353.693 27.296C352.874 27.0836 352.25 26.8515 351.798 26.6122L350.862 28.3798ZM353.191 29.232C354.03 29.4496 354.921 29.7149 355.862 30.0287L356.494 28.1313C355.515 27.8051 354.582 27.5264 353.693 27.296L353.191 29.232ZM355.862 30.0287C356.745 30.3231 357.584 30.7206 358.381 31.2222L359.447 29.5298C358.516 28.9434 357.531 28.4769 356.494 28.1313L355.862 30.0287ZM358.381 31.2222C359.102 31.6762 359.696 32.2924 360.163 33.0897L361.889 32.0783C361.268 31.0196 360.454 30.1638 359.447 29.5298L358.381 31.2222ZM360.171 33.103C360.589 33.7916 360.842 34.7765 360.842 36.136H362.842C362.842 34.5515 362.551 33.1684 361.881 32.065L360.171 33.103ZM360.842 36.136C360.842 38.113 360.11 39.6243 358.636 40.7706L359.864 42.3494C361.846 40.8077 362.842 38.703 362.842 36.136H360.842ZM358.629 40.7763C357.162 41.9386 355.102 42.576 352.338 42.576V44.576C355.398 44.576 357.946 43.8694 359.871 42.3437L358.629 40.7763ZM370.242 43.048L369.983 44.0139L369.989 44.0154L370.242 43.048ZM366.546 41.56L366.032 42.4175L366.046 42.4261L366.061 42.4342L366.546 41.56ZM363.666 39.256L362.955 38.5529L362.283 39.2334L362.933 39.9354L363.666 39.256ZM367.842 35.032L368.577 34.3537L367.867 33.5845L367.131 34.3289L367.842 35.032ZM370.578 37L370.165 37.9104L370.176 37.9156L370.188 37.9206L370.578 37ZM376.002 37.288L375.532 36.4056L375.519 36.4125L375.506 36.4198L376.002 37.288ZM375.858 34.936L375.351 35.7979L375.381 35.8152L375.411 35.8304L375.858 34.936ZM373.746 34.12L373.462 35.0788L373.479 35.0837L373.495 35.088L373.746 34.12ZM368.274 32.104L368.784 31.2437L368.274 32.104ZM366.162 29.992L365.3 30.4977L365.304 30.5044L365.308 30.511L366.162 29.992ZM366.498 22.6L367.315 23.1767L367.323 23.1655L366.498 22.6ZM369.762 19.96L369.349 19.0496L369.762 19.96ZM380.178 20.056L379.789 20.977L379.799 20.9814L379.81 20.9857L380.178 20.056ZM384.306 23.08L385.018 23.7831L385.638 23.1558L385.093 22.4622L384.306 23.08ZM380.13 27.304L379.369 27.9525L380.076 28.7818L380.842 28.0071L380.13 27.304ZM377.634 25.48L377.269 26.4108L377.28 26.415L377.634 25.48ZM373.122 25.336L373.596 26.2165L373.622 26.2028L373.646 26.1877L373.122 25.336ZM375.426 28.264L375.175 29.232L375.426 28.264ZM378.162 29.08L378.479 28.1313L378.162 29.08ZM380.898 30.376L381.431 29.5298L380.898 30.376ZM383.01 32.584L382.148 33.0897L382.152 33.0964L382.156 33.103L383.01 32.584ZM381.234 41.56L380.62 40.7706L380.613 40.7763L381.234 41.56ZM374.322 42.576C373.033 42.576 371.758 42.4112 370.496 42.0806L369.989 44.0154C371.415 44.3888 372.86 44.576 374.322 44.576V42.576ZM370.502 42.0822C369.266 41.7507 368.11 41.2849 367.032 40.6858L366.061 42.4342C367.286 43.1151 368.595 43.6413 369.983 44.0138L370.502 42.0822ZM367.061 40.7025C366.013 40.0739 365.129 39.364 364.4 38.5766L362.933 39.9354C363.803 40.876 364.839 41.7021 366.032 42.4175L367.061 40.7025ZM364.378 39.9591L368.554 35.7351L367.131 34.3289L362.955 38.5529L364.378 39.9591ZM367.108 35.7103C367.968 36.6427 368.99 37.3766 370.165 37.9104L370.992 36.0896C370.055 35.6634 369.252 35.0853 368.577 34.3537L367.108 35.7103ZM370.188 37.9206C371.378 38.4254 372.664 38.672 374.034 38.672V36.672C372.909 36.672 371.891 36.4706 370.969 36.0794L370.188 37.9206ZM374.034 38.672C374.969 38.672 375.829 38.5386 376.499 38.1562L375.506 36.4198C375.279 36.5494 374.828 36.672 374.034 36.672V38.672ZM376.473 38.1704C377.195 37.785 377.722 37.1351 377.722 36.232H375.722C375.722 36.2537 375.72 36.2624 375.72 36.2627C375.719 36.2632 375.719 36.2634 375.719 36.2637C375.719 36.264 375.718 36.2656 375.716 36.2687C375.709 36.2793 375.668 36.3332 375.532 36.4056L376.473 38.1704ZM377.722 36.232C377.722 35.769 377.604 35.3193 377.338 34.9213C377.077 34.5296 376.712 34.2449 376.306 34.0416L375.411 35.8304C375.581 35.9151 375.647 35.9904 375.674 36.0307C375.697 36.0647 375.722 36.119 375.722 36.232H377.722ZM376.365 34.0741C375.716 33.692 374.917 33.3905 373.997 33.152L373.495 35.088C374.304 35.2975 374.913 35.54 375.351 35.7979L376.365 34.0741ZM374.03 33.1612C373.168 32.9056 372.257 32.6339 371.298 32.3462L370.723 34.2618C371.684 34.5501 372.597 34.8224 373.462 35.0788L374.03 33.1612ZM371.298 32.3462C370.416 32.0816 369.578 31.7144 368.784 31.2437L367.765 32.9643C368.698 33.5176 369.685 33.9504 370.723 34.2618L371.298 32.3462ZM368.784 31.2437C368.068 30.8191 367.48 30.235 367.017 29.473L365.308 30.511C365.933 31.541 366.753 32.3649 367.765 32.9643L368.784 31.2437ZM367.025 29.4863C366.595 28.752 366.346 27.7717 366.346 26.488H364.346C364.346 28.0203 364.642 29.376 365.3 30.4977L367.025 29.4863ZM366.346 26.488C366.346 25.1627 366.682 24.0746 367.315 23.1767L365.681 22.0233C364.779 23.3014 364.346 24.8053 364.346 26.488H366.346ZM367.323 23.1655C367.974 22.2157 368.91 21.4457 370.176 20.8704L369.349 19.0496C367.798 19.7543 366.558 20.7443 365.674 22.0345L367.323 23.1655ZM370.176 20.8704C371.429 20.301 372.93 20 374.706 20V18C372.706 18 370.912 18.339 369.349 19.0496L370.176 20.8704ZM374.706 20C376.57 20 378.26 20.33 379.789 20.977L380.568 19.135C378.769 18.374 376.811 18 374.706 18V20ZM379.81 20.9857C381.353 21.5971 382.581 22.5023 383.52 23.6978L385.093 22.4622C383.92 20.9697 382.396 19.8589 380.547 19.1263L379.81 20.9857ZM383.595 22.3769L379.419 26.6009L380.842 28.0071L385.018 23.7831L383.595 22.3769ZM380.892 26.6555C380.062 25.6819 379.096 24.9649 377.989 24.545L377.28 26.415C378.029 26.6991 378.727 27.1981 379.369 27.9525L380.892 26.6555ZM378 24.5492C377.001 24.1567 375.997 23.952 374.994 23.952V25.952C375.72 25.952 376.476 26.0993 377.269 26.4108L378 24.5492ZM374.994 23.952C374.092 23.952 373.247 24.0849 372.598 24.4843L373.646 26.1877C373.829 26.0751 374.232 25.952 374.994 25.952V23.952ZM372.648 24.4555C372.316 24.6343 372.017 24.886 371.804 25.2296C371.59 25.5761 371.498 25.9595 371.498 26.344H373.498C373.498 26.3096 373.502 26.2915 373.504 26.2854C373.505 26.2801 373.506 26.2804 373.505 26.2824C373.5 26.29 373.512 26.2617 373.596 26.2165L372.648 24.4555ZM371.498 26.344C371.498 27.3029 372.084 27.9759 372.846 28.3798L373.782 26.6122C373.608 26.5197 373.54 26.445 373.518 26.414C373.505 26.3945 373.498 26.3814 373.498 26.344H371.498ZM372.846 28.3798C373.482 28.7165 374.267 28.9964 375.175 29.232L375.677 27.296C374.858 27.0836 374.234 26.8515 373.782 26.6122L372.846 28.3798ZM375.175 29.232C376.015 29.4496 376.905 29.7149 377.846 30.0287L378.479 28.1313C377.5 27.8051 376.566 27.5264 375.677 27.296L375.175 29.232ZM377.846 30.0287C378.729 30.3231 379.569 30.7206 380.366 31.2222L381.431 29.5298C380.5 28.9434 379.515 28.4769 378.479 28.1313L377.846 30.0287ZM380.366 31.2222C381.087 31.6762 381.68 32.2924 382.148 33.0897L383.873 32.0783C383.252 31.0196 382.438 30.1638 381.431 29.5298L380.366 31.2222ZM382.156 33.103C382.574 33.7916 382.826 34.7765 382.826 36.136H384.826C384.826 34.5515 384.535 33.1684 383.865 32.065L382.156 33.103ZM382.826 36.136C382.826 38.113 382.094 39.6243 380.62 40.7706L381.848 42.3494C383.83 40.8077 384.826 38.703 384.826 36.136H382.826ZM380.613 40.7763C379.147 41.9386 377.087 42.576 374.322 42.576V44.576C377.382 44.576 379.93 43.8694 381.855 42.3437L380.613 40.7763ZM406.071 43L405.119 43.3061L405.342 44H406.071V43ZM395.175 9.112V8.112H393.803L394.223 9.41809L395.175 9.112ZM402.663 9.112L403.62 8.81965L403.403 8.112H402.663V9.112ZM410.631 35.176V36.176H411.983L411.588 34.8836L410.631 35.176ZM407.703 35.176L406.745 34.8901L406.361 36.176H407.703V35.176ZM415.479 9.112V8.112H414.734L414.521 8.82611L415.479 9.112ZM421.383 9.112L422.342 8.82611L422.129 8.112H421.383V9.112ZM429.159 35.176V36.176H430.501L430.118 34.8901L429.159 35.176ZM426.279 35.176L425.323 34.8853L424.93 36.176H426.279V35.176ZM434.199 9.112V8.112H433.458L433.243 8.82126L434.199 9.112ZM441.639 9.112L442.591 9.41809L443.011 8.112H441.639V9.112ZM430.743 43V44H431.472L431.695 43.3061L430.743 43ZM424.839 43L423.882 43.2875L424.095 44H424.839V43ZM417.015 16.936V15.936H415.671L416.058 17.2235L417.015 16.936ZM419.799 16.936L420.757 17.2235L421.144 15.936H419.799V16.936ZM411.975 43V44H412.719L412.933 43.2875L411.975 43ZM407.023 42.6939L396.127 8.8059L394.223 9.41809L405.119 43.3061L407.023 42.6939ZM395.175 10.112H402.663V8.112H395.175V10.112ZM401.707 9.40435L409.675 35.4684L411.588 34.8836L403.62 8.81965L401.707 9.40435ZM410.631 34.176H407.703V36.176H410.631V34.176ZM408.662 35.4619L416.438 9.39789L414.521 8.82611L406.745 34.8901L408.662 35.4619ZM415.479 10.112H421.383V8.112H415.479V10.112ZM420.425 9.39789L428.201 35.4619L430.118 34.8901L422.342 8.82611L420.425 9.39789ZM429.159 34.176H426.279V36.176H429.159V34.176ZM427.236 35.4667L435.156 9.40274L433.243 8.82126L425.323 34.8853L427.236 35.4667ZM434.199 10.112H441.639V8.112H434.199V10.112ZM440.687 8.8059L429.791 42.6939L431.695 43.3061L442.591 9.41809L440.687 8.8059ZM430.743 42H424.839V44H430.743V42ZM425.797 42.7125L417.973 16.6485L416.058 17.2235L423.882 43.2875L425.797 42.7125ZM417.015 17.936H419.799V15.936H417.015V17.936ZM418.842 16.6485L411.018 42.7125L412.933 43.2875L420.757 17.2235L418.842 16.6485ZM411.975 42H406.071V44H411.975V42ZM446.749 41.944L446.256 42.814L446.265 42.8189L446.273 42.8235L446.749 41.944ZM442.189 37.528L443.045 37.0113L442.189 37.528ZM442.189 25.096L441.337 24.5727L442.189 25.096ZM446.749 20.776L447.231 21.6523L447.242 21.646L446.749 20.776ZM464.365 25.096L463.509 25.6127L463.513 25.6193L464.365 25.096ZM464.365 37.528L465.221 38.0447V38.0447L464.365 37.528ZM459.805 41.944L460.287 42.8203L460.298 42.814L459.805 41.944ZM456.061 36.184L456.55 37.0565L456.563 37.0492L456.576 37.0415L456.061 36.184ZM457.885 34.216L456.997 33.7557L456.994 33.7622L456.991 33.7688L457.885 34.216ZM457.885 28.456L457.005 28.9301L457.009 28.9374L457.013 28.9446L457.885 28.456ZM456.013 26.536L455.483 27.384L455.504 27.3967L455.525 27.4085L456.013 26.536ZM450.541 26.536L451.03 27.4085L451.043 27.4012L451.056 27.3935L450.541 26.536ZM448.669 28.456L449.55 28.9301L448.669 28.456ZM448.669 34.216L447.781 34.6763L447.785 34.6832L447.789 34.6901L448.669 34.216ZM450.541 36.184L450.027 37.0415L450.039 37.0492L450.053 37.0565L450.541 36.184ZM453.277 42.528C451.029 42.528 449.019 42.035 447.225 41.0645L446.273 42.8235C448.383 43.965 450.725 44.528 453.277 44.528V42.528ZM447.242 41.074C445.469 40.069 444.075 38.7176 443.045 37.0113L441.333 38.0447C442.543 40.0504 444.19 41.643 446.256 42.814L447.242 41.074ZM443.045 37.0113C442.025 35.3211 441.509 33.4218 441.509 31.288H439.509C439.509 33.7622 440.113 36.0229 441.333 38.0447L443.045 37.0113ZM441.509 31.288C441.509 29.1541 442.025 27.2738 443.041 25.6193L441.337 24.5727C440.113 26.5662 439.509 28.8139 439.509 31.288H441.509ZM443.041 25.6193C444.068 23.9467 445.459 22.6267 447.231 21.6522L446.267 19.8998C444.199 21.0373 442.55 22.5973 441.337 24.5727L443.041 25.6193ZM447.242 21.646C448.997 20.6517 451 20.144 453.277 20.144V18.144C450.69 18.144 448.341 18.7243 446.256 19.906L447.242 21.646ZM453.277 20.144C455.56 20.144 457.567 20.6381 459.323 21.6042L460.287 19.8518C458.204 18.7059 455.859 18.144 453.277 18.144V20.144ZM459.323 21.6042C461.091 22.5764 462.481 23.9091 463.509 25.6127L465.221 24.5793C464.009 22.5709 462.36 20.9916 460.287 19.8518L459.323 21.6042ZM463.513 25.6193C464.529 27.2738 465.045 29.1541 465.045 31.288H467.045C467.045 28.8139 466.441 26.5662 465.217 24.5727L463.513 25.6193ZM465.045 31.288C465.045 33.4218 464.529 35.3211 463.509 37.0113L465.221 38.0447C466.441 36.0229 467.045 33.7622 467.045 31.288H465.045ZM463.509 37.0113C462.479 38.7176 461.086 40.069 459.312 41.074L460.298 42.814C462.365 41.643 464.011 40.0504 465.221 38.0447L463.509 37.0113ZM459.323 41.0678C457.567 42.0339 455.56 42.528 453.277 42.528V44.528C455.859 44.528 458.204 43.9661 460.287 42.8202L459.323 41.0678ZM453.277 37.856C454.478 37.856 455.579 37.6001 456.55 37.0565L455.573 35.3115C454.943 35.6639 454.188 35.856 453.277 35.856V37.856ZM456.576 37.0415C457.538 36.464 458.278 35.6659 458.78 34.6632L456.991 33.7688C456.66 34.4301 456.184 34.944 455.547 35.3265L456.576 37.0415ZM458.773 34.6763C459.303 33.654 459.557 32.5171 459.557 31.288H457.557C457.557 32.2349 457.363 33.05 456.997 33.7557L458.773 34.6763ZM459.557 31.288C459.557 30.0609 459.304 28.9423 458.758 27.9674L457.013 28.9446C457.363 29.5697 457.557 30.3391 457.557 31.288H459.557ZM458.766 27.9819C458.23 26.988 457.473 26.2073 456.502 25.6635L455.525 27.4085C456.153 27.7607 456.644 28.26 457.005 28.9301L458.766 27.9819ZM456.543 25.688C455.591 25.0931 454.489 24.816 453.277 24.816V26.816C454.177 26.816 454.899 27.0189 455.483 27.384L456.543 25.688ZM453.277 24.816C452.09 24.816 450.997 25.0963 450.027 25.6785L451.056 27.3935C451.685 27.0157 452.416 26.816 453.277 26.816V24.816ZM450.053 25.6635C449.081 26.2073 448.324 26.988 447.789 27.9819L449.55 28.9301C449.91 28.26 450.401 27.7607 451.03 27.4085L450.053 25.6635ZM447.789 27.9819C447.251 28.9803 446.997 30.1078 446.997 31.336H448.997C448.997 30.3882 449.191 29.5957 449.55 28.9301L447.789 27.9819ZM446.997 31.336C446.997 32.5383 447.253 33.6582 447.781 34.6763L449.557 33.7557C449.189 33.0458 448.997 32.2457 448.997 31.336H446.997ZM447.789 34.6901C448.321 35.6783 449.07 36.4677 450.027 37.0415L451.056 35.3265C450.412 34.9403 449.913 34.4177 449.55 33.7419L447.789 34.6901ZM450.053 37.0565C451.019 37.5975 452.102 37.856 453.277 37.856V35.856C452.404 35.856 451.664 35.6665 451.03 35.3115L450.053 37.0565ZM469.701 43H468.701V44H469.701V43ZM469.701 19.672V18.672H468.701V19.672H469.701ZM477.045 19.672H478.045V18.672H477.045V19.672ZM477.045 43V44H478.045V43H477.045ZM477.045 30.184L476.43 30.972L478.045 32.2342V30.184H477.045ZM473.973 27.784L472.997 27.5659L472.86 28.1828L473.358 28.572L473.973 27.784ZM477.045 21.448L477.768 22.1396L477.045 21.448ZM485.973 19.72L485.584 20.641L485.605 20.6498L485.626 20.6577L485.973 19.72ZM488.229 21.256L489.014 21.8765L489.54 21.2112L488.969 20.5833L488.229 21.256ZM483.861 26.776L483.121 27.4487L483.914 28.3207L484.646 27.3965L483.861 26.776ZM482.661 25.96L482.29 26.8885L482.661 25.96ZM478.101 26.824L477.379 26.1321L477.379 26.1328L478.101 26.824ZM470.701 43V19.672H468.701V43H470.701ZM469.701 20.672H477.045V18.672H469.701V20.672ZM476.045 19.672V43H478.045V19.672H476.045ZM477.045 42H469.701V44H477.045V42ZM477.661 29.396L474.589 26.996L473.358 28.572L476.43 30.972L477.661 29.396ZM474.949 28.0021C475.531 25.4017 476.49 23.4744 477.768 22.1396L476.323 20.7564C474.721 22.4296 473.632 24.7263 472.997 27.5659L474.949 28.0021ZM477.768 22.1396C478.977 20.8762 480.691 20.192 483.045 20.192V18.192C480.28 18.192 477.993 19.0118 476.323 20.7564L477.768 22.1396ZM483.045 20.192C484.063 20.192 484.901 20.352 485.584 20.641L486.363 18.799C485.382 18.384 484.268 18.192 483.045 18.192V20.192ZM485.626 20.6577C486.335 20.9203 486.954 21.3392 487.489 21.9287L488.969 20.5833C488.225 19.7648 487.34 19.1597 486.321 18.7822L485.626 20.6577ZM487.445 20.6355L483.077 26.1555L484.646 27.3965L489.014 21.8765L487.445 20.6355ZM484.601 26.1033C484.171 25.6298 483.641 25.2748 483.033 25.0315L482.29 26.8885C482.642 27.0292 482.912 27.2182 483.121 27.4487L484.601 26.1033ZM483.033 25.0315C482.416 24.7847 481.743 24.672 481.029 24.672V26.672C481.532 26.672 481.947 26.7513 482.29 26.8885L483.033 25.0315ZM481.029 24.672C479.583 24.672 478.332 25.1385 477.379 26.1321L478.823 27.5159C479.343 26.9735 480.043 26.672 481.029 26.672V24.672ZM477.379 26.1328C476.428 27.1271 476.045 28.5437 476.045 30.184H478.045C478.045 28.8163 478.367 27.9929 478.824 27.5152L477.379 26.1328ZM505.114 43L504.285 43.5592L504.582 44H505.114V43ZM496.954 30.904L496.143 30.3185L495.734 30.8845L496.125 31.4632L496.954 30.904ZM505.066 19.672V18.672H504.554L504.255 19.0865L505.066 19.672ZM513.274 19.672L514.064 20.2849L515.315 18.672H513.274V19.672ZM503.482 32.296L502.485 32.2169L502.22 35.5542L504.272 32.9089L503.482 32.296ZM503.722 29.272L504.529 28.682L502.938 26.5049L502.725 29.1929L503.722 29.272ZM513.754 43V44H515.723L514.561 42.41L513.754 43ZM490.186 43H489.186V44H490.186V43ZM490.186 8.152V7.152H489.186V8.152H490.186ZM497.53 8.152H498.53V7.152H497.53V8.152ZM497.53 43V44H498.53V43H497.53ZM505.943 42.4408L497.783 30.3448L496.125 31.4632L504.285 43.5592L505.943 42.4408ZM497.764 31.4895L505.876 20.2575L504.255 19.0865L496.143 30.3185L497.764 31.4895ZM505.066 20.672H513.274V18.672H505.066V20.672ZM512.484 19.0591L502.692 31.6831L504.272 32.9089L514.064 20.2849L512.484 19.0591ZM504.479 32.3751L504.719 29.3511L502.725 29.1929L502.485 32.2169L504.479 32.3751ZM502.914 29.862L512.946 43.59L514.561 42.41L504.529 28.682L502.914 29.862ZM513.754 42H505.114V44H513.754V42ZM491.186 43V8.152H489.186V43H491.186ZM490.186 9.152H497.53V7.152H490.186V9.152ZM496.53 8.152V43H498.53V8.152H496.53ZM497.53 42H490.186V44H497.53V42ZM519.445 43.048L519.186 44.0139L519.192 44.0154L519.445 43.048ZM515.75 41.56L515.235 42.4175L515.249 42.4261L515.264 42.4342L515.75 41.56ZM512.87 39.256L512.158 38.5529L511.486 39.2334L512.136 39.9354L512.87 39.256ZM517.046 35.032L517.78 34.3537L517.07 33.5845L516.334 34.3289L517.046 35.032ZM519.781 37L519.368 37.9104L519.379 37.9156L519.391 37.9206L519.781 37ZM525.206 37.288L524.735 36.4056L524.722 36.4125L524.709 36.4198L525.206 37.288ZM525.061 34.936L524.554 35.7979L524.584 35.8152L524.614 35.8304L525.061 34.936ZM522.949 34.12L522.665 35.0788L522.682 35.0837L522.699 35.088L522.949 34.12ZM517.478 32.104L517.987 31.2437L517.478 32.104ZM515.366 29.992L514.503 30.4977L514.507 30.5044L514.511 30.511L515.366 29.992ZM515.702 22.6L516.519 23.1767L516.526 23.1655L515.702 22.6ZM518.966 19.96L518.552 19.0496L518.966 19.96ZM529.382 20.056L528.992 20.977L529.002 20.9814L529.013 20.9857L529.382 20.056ZM533.509 23.08L534.221 23.7831L534.841 23.1558L534.296 22.4622L533.509 23.08ZM529.333 27.304L528.572 27.9525L529.279 28.7818L530.045 28.0071L529.333 27.304ZM526.837 25.48L526.472 26.4108L526.483 26.415L526.837 25.48ZM522.326 25.336L522.8 26.2165L522.825 26.2028L522.85 26.1877L522.326 25.336ZM524.629 28.264L524.379 29.232L524.629 28.264ZM527.366 29.08L527.682 28.1313L527.366 29.08ZM530.102 30.376L530.634 29.5298L530.102 30.376ZM532.214 32.584L531.351 33.0897L531.355 33.0964L531.359 33.103L532.214 32.584ZM530.438 41.56L529.824 40.7706L529.816 40.7763L530.438 41.56ZM523.526 42.576C522.236 42.576 520.961 42.4112 519.699 42.0806L519.192 44.0154C520.618 44.3888 522.063 44.576 523.526 44.576V42.576ZM519.705 42.0822C518.469 41.7507 517.314 41.2849 516.235 40.6858L515.264 42.4342C516.49 43.1151 517.798 43.6413 519.186 44.0138L519.705 42.0822ZM516.264 40.7025C515.216 40.0739 514.332 39.364 513.603 38.5766L512.136 39.9354C513.007 40.876 514.043 41.7021 515.235 42.4175L516.264 40.7025ZM513.581 39.9591L517.757 35.7351L516.334 34.3289L512.158 38.5529L513.581 39.9591ZM516.311 35.7103C517.171 36.6427 518.193 37.3766 519.368 37.9104L520.195 36.0896C519.258 35.6634 518.456 35.0853 517.78 34.3537L516.311 35.7103ZM519.391 37.9206C520.581 38.4254 521.867 38.672 523.237 38.672V36.672C522.112 36.672 521.094 36.4706 520.172 36.0794L519.391 37.9206ZM523.237 38.672C524.172 38.672 525.033 38.5386 525.702 38.1562L524.709 36.4198C524.482 36.5494 524.031 36.672 523.237 36.672V38.672ZM525.676 38.1704C526.399 37.785 526.926 37.1351 526.926 36.232H524.926C524.926 36.2537 524.923 36.2624 524.923 36.2627C524.923 36.2632 524.922 36.2634 524.922 36.2637C524.922 36.264 524.921 36.2656 524.919 36.2687C524.912 36.2793 524.871 36.3332 524.735 36.4056L525.676 38.1704ZM526.926 36.232C526.926 35.769 526.807 35.3193 526.542 34.9213C526.28 34.5296 525.915 34.2449 525.509 34.0416L524.614 35.8304C524.784 35.9151 524.851 35.9904 524.877 36.0307C524.9 36.0647 524.926 36.119 524.926 36.232H526.926ZM525.569 34.0741C524.919 33.692 524.12 33.3905 523.2 33.152L522.699 35.088C523.507 35.2975 524.116 35.54 524.554 35.7979L525.569 34.0741ZM523.234 33.1612C522.371 32.9056 521.46 32.6339 520.501 32.3462L519.926 34.2618C520.887 34.5501 521.8 34.8224 522.665 35.0788L523.234 33.1612ZM520.501 32.3462C519.619 32.0816 518.782 31.7144 517.987 31.2437L516.968 32.9643C517.901 33.5176 518.888 33.9504 519.926 34.2618L520.501 32.3462ZM517.987 31.2437C517.271 30.8191 516.683 30.235 516.22 29.473L514.511 30.511C515.136 31.541 515.956 32.3649 516.968 32.9643L517.987 31.2437ZM516.228 29.4863C515.798 28.752 515.549 27.7717 515.549 26.488H513.549C513.549 28.0203 513.845 29.376 514.503 30.4977L516.228 29.4863ZM515.549 26.488C515.549 25.1627 515.885 24.0746 516.518 23.1767L514.885 22.0233C513.982 23.3014 513.549 24.8053 513.549 26.488H515.549ZM516.526 23.1655C517.178 22.2157 518.114 21.4457 519.379 20.8704L518.552 19.0496C517.001 19.7543 515.761 20.7443 514.877 22.0345L516.526 23.1655ZM519.379 20.8704C520.632 20.301 522.133 20 523.91 20V18C521.91 18 520.115 18.339 518.552 19.0496L519.379 20.8704ZM523.91 20C525.773 20 527.463 20.33 528.992 20.977L529.771 19.135C527.972 18.374 526.014 18 523.91 18V20ZM529.013 20.9857C530.556 21.5971 531.784 22.5023 532.723 23.6978L534.296 22.4622C533.123 20.9697 531.599 19.8589 529.75 19.1263L529.013 20.9857ZM532.798 22.3769L528.622 26.6009L530.045 28.0071L534.221 23.7831L532.798 22.3769ZM530.095 26.6555C529.265 25.6819 528.299 24.9649 527.192 24.545L526.483 26.415C527.232 26.6991 527.93 27.1981 528.572 27.9525L530.095 26.6555ZM527.203 24.5492C526.204 24.1567 525.2 23.952 524.198 23.952V25.952C524.923 25.952 525.679 26.0993 526.472 26.4108L527.203 24.5492ZM524.198 23.952C523.295 23.952 522.45 24.0849 521.801 24.4843L522.85 26.1877C523.033 26.0751 523.436 25.952 524.198 25.952V23.952ZM521.851 24.4555C521.519 24.6343 521.22 24.886 521.007 25.2296C520.793 25.5761 520.702 25.9595 520.702 26.344H522.702C522.702 26.3096 522.705 26.2915 522.707 26.2854C522.708 26.2801 522.709 26.2804 522.708 26.2824C522.703 26.29 522.716 26.2617 522.8 26.2165L521.851 24.4555ZM520.702 26.344C520.702 27.3029 521.287 27.9759 522.05 28.3798L522.985 26.6122C522.811 26.5197 522.744 26.445 522.722 26.414C522.708 26.3945 522.702 26.3814 522.702 26.344H520.702ZM522.05 28.3798C522.686 28.7165 523.47 28.9964 524.379 29.232L524.88 27.296C524.061 27.0836 523.437 26.8515 522.985 26.6122L522.05 28.3798ZM524.379 29.232C525.218 29.4496 526.108 29.7149 527.049 30.0287L527.682 28.1313C526.703 27.8051 525.769 27.5264 524.88 27.296L524.379 29.232ZM527.049 30.0287C527.933 30.3231 528.772 30.7206 529.569 31.2222L530.634 29.5298C529.703 28.9434 528.718 28.4769 527.682 28.1313L527.049 30.0287ZM529.569 31.2222C530.29 31.6762 530.883 32.2924 531.351 33.0897L533.076 32.0783C532.456 31.0196 531.641 30.1638 530.634 29.5298L529.569 31.2222ZM531.359 33.103C531.777 33.7916 532.03 34.7765 532.03 36.136H534.03C534.03 34.5515 533.738 33.1684 533.068 32.065L531.359 33.103ZM532.03 36.136C532.03 38.113 531.297 39.6243 529.824 40.7706L531.051 42.3494C533.034 40.8077 534.03 38.703 534.03 36.136H532.03ZM529.816 40.7763C528.35 41.9386 526.29 42.576 523.526 42.576V44.576C526.585 44.576 529.133 43.8694 531.059 42.3437L529.816 40.7763Z" fill="#444444"/>
</svg>
